# Blender 4.4.1
# www.blender.org
mtllib player.mtl
o 立方体
v -0.283896 -0.139356 0.101448
v -0.283896 -0.045814 0.101448
v -0.283896 -0.139356 -0.425787
v -0.283896 -0.045814 -0.425787
v 0.283896 -0.139356 0.101448
v 0.283896 -0.045814 0.101448
v 0.283896 -0.139356 -0.425787
v 0.283896 -0.045814 -0.425787
v 0.072141 0.262814 -0.425787
v 0.045423 -0.151967 0.802220
v 0.045423 -0.063212 0.802220
v 0.000000 -0.278006 -0.425787
v -0.045423 -0.063212 0.802220
v -0.072141 0.262814 -0.425787
v -0.045423 -0.151967 0.802220
v 0.141948 0.399055 0.101448
v 0.000000 -0.278006 0.385344
v -0.141948 0.399055 0.101448
v 0.141948 -0.283300 -0.911870
v -0.072141 0.262814 -0.911870
v 0.283896 -0.283300 -0.911870
v 0.283896 0.077333 -0.911870
v 0.072141 0.262814 -0.911870
v -0.141948 -0.283300 -0.911870
v -0.283896 -0.283300 -0.911870
v -0.283896 0.077333 -0.911870
v -0.191304 0.262814 -0.648631
v 0.191304 0.262814 -0.648631
v 0.072140 0.262814 -0.425787
v -0.072141 0.262814 -0.425787
v 0.000000 -0.283300 -0.911870
v 0.000000 0.550064 -0.911870
v 0.000000 0.262814 -0.425787
v -0.567792 -0.139356 0.101448
v -0.567792 -0.045814 0.101448
v -1.219137 -0.045814 -0.425787
v -1.219137 -0.068715 -0.425787
v 1.219137 -0.045814 -0.425787
v 1.219137 -0.068715 -0.425787
v 0.567792 -0.045814 0.101448
v 0.567792 -0.139356 0.101448
v -0.283896 -0.045814 -0.162169
v 0.283896 -0.045814 -0.162169
v 0.107044 0.262814 -0.162169
v -0.107044 0.262814 -0.162169
v -0.283896 -0.139356 -0.162169
v 0.283896 -0.139356 -0.162169
v -1.077189 -0.045814 -0.162169
v -1.077189 -0.068715 -0.162169
v 1.077189 -0.045814 -0.162169
v 1.077189 -0.068715 -0.162169
v -0.132043 0.017463 -1.135646
v -0.132043 0.017463 -0.903445
v -0.109393 0.015232 -1.135646
v -0.109393 0.015232 -0.903445
v -0.087613 0.008625 -1.135646
v -0.087613 0.008625 -0.903445
v -0.067541 -0.002103 -1.135646
v -0.067541 -0.002103 -0.903445
v -0.049948 -0.016542 -1.135646
v -0.049948 -0.016542 -0.903445
v -0.035509 -0.034135 -1.135646
v -0.035509 -0.034135 -0.903445
v -0.024780 -0.054208 -1.135646
v -0.024780 -0.054208 -0.903445
v -0.018173 -0.075987 -1.135646
v -0.018173 -0.075987 -0.903445
v -0.015943 -0.098637 -1.135646
v -0.015943 -0.098637 -0.903445
v -0.018173 -0.121287 -1.135646
v -0.018173 -0.121287 -0.903445
v -0.024780 -0.143067 -1.135646
v -0.024780 -0.143067 -0.903445
v -0.035509 -0.163139 -1.135646
v -0.035509 -0.163139 -0.903445
v -0.049948 -0.180733 -1.135646
v -0.049948 -0.180733 -0.903445
v -0.067541 -0.195171 -1.135646
v -0.067541 -0.195171 -0.903445
v -0.087613 -0.205900 -1.135646
v -0.087613 -0.205900 -0.903445
v -0.109393 -0.212507 -1.135646
v -0.109393 -0.212507 -0.903445
v -0.132043 -0.214738 -1.135646
v -0.132043 -0.214738 -0.903445
v -0.154693 -0.212507 -1.135646
v -0.154693 -0.212507 -0.903445
v -0.176473 -0.205900 -1.135646
v -0.176473 -0.205900 -0.903445
v -0.196545 -0.195171 -1.135646
v -0.196545 -0.195171 -0.903445
v -0.214138 -0.180733 -1.135646
v -0.214138 -0.180733 -0.903445
v -0.228577 -0.163139 -1.135646
v -0.228577 -0.163139 -0.903445
v -0.239306 -0.143067 -1.135646
v -0.239306 -0.143067 -0.903445
v -0.245913 -0.121287 -1.135646
v -0.245913 -0.121287 -0.903445
v -0.248143 -0.098637 -1.135646
v -0.248143 -0.098637 -0.903445
v -0.245913 -0.075987 -1.135646
v -0.245913 -0.075987 -0.903445
v -0.239306 -0.054208 -1.135646
v -0.239306 -0.054208 -0.903445
v -0.228577 -0.034135 -1.135646
v -0.228577 -0.034135 -0.903445
v -0.214138 -0.016542 -1.135646
v -0.214138 -0.016542 -0.903445
v -0.196545 -0.002103 -1.135646
v -0.196545 -0.002103 -0.903445
v -0.176473 0.008625 -1.135646
v -0.176473 0.008625 -0.903445
v -0.154693 0.015232 -1.135646
v -0.154693 0.015232 -0.903445
v 0.132043 0.017463 -1.135646
v 0.132043 0.017463 -0.903445
v 0.154693 0.015232 -1.135646
v 0.154693 0.015232 -0.903445
v 0.176473 0.008625 -1.135646
v 0.176473 0.008625 -0.903445
v 0.196545 -0.002103 -1.135646
v 0.196545 -0.002103 -0.903445
v 0.214138 -0.016542 -1.135646
v 0.214138 -0.016542 -0.903445
v 0.228577 -0.034135 -1.135646
v 0.228577 -0.034135 -0.903445
v 0.239306 -0.054208 -1.135646
v 0.239306 -0.054208 -0.903445
v 0.245913 -0.075987 -1.135646
v 0.245913 -0.075987 -0.903445
v 0.248143 -0.098637 -1.135646
v 0.248143 -0.098637 -0.903445
v 0.245913 -0.121287 -1.135646
v 0.245913 -0.121287 -0.903445
v 0.239306 -0.143067 -1.135646
v 0.239306 -0.143067 -0.903445
v 0.228577 -0.163139 -1.135646
v 0.228577 -0.163139 -0.903445
v 0.214138 -0.180733 -1.135646
v 0.214138 -0.180733 -0.903445
v 0.196545 -0.195171 -1.135646
v 0.196545 -0.195171 -0.903445
v 0.176473 -0.205900 -1.135646
v 0.176473 -0.205900 -0.903445
v 0.154693 -0.212507 -1.135646
v 0.154693 -0.212507 -0.903445
v 0.132043 -0.214738 -1.135646
v 0.132043 -0.214738 -0.903445
v 0.109393 -0.212507 -1.135646
v 0.109393 -0.212507 -0.903445
v 0.087613 -0.205900 -1.135646
v 0.087613 -0.205900 -0.903445
v 0.067541 -0.195171 -1.135646
v 0.067541 -0.195171 -0.903445
v 0.049948 -0.180733 -1.135646
v 0.049948 -0.180733 -0.903445
v 0.035509 -0.163139 -1.135646
v 0.035509 -0.163139 -0.903445
v 0.024780 -0.143067 -1.135646
v 0.024780 -0.143067 -0.903445
v 0.018173 -0.121287 -1.135646
v 0.018173 -0.121287 -0.903445
v 0.015943 -0.098637 -1.135646
v 0.015943 -0.098637 -0.903445
v 0.018173 -0.075987 -1.135646
v 0.018173 -0.075987 -0.903445
v 0.024780 -0.054208 -1.135646
v 0.024780 -0.054208 -0.903445
v 0.035509 -0.034135 -1.135646
v 0.035509 -0.034135 -0.903445
v 0.049948 -0.016542 -1.135646
v 0.049948 -0.016542 -0.903445
v 0.067541 -0.002103 -1.135646
v 0.067541 -0.002103 -0.903445
v 0.087613 0.008625 -1.135646
v 0.087613 0.008625 -0.903445
v 0.109393 0.015232 -1.135646
v 0.109393 0.015232 -0.903445
v -0.137795 -0.144162 0.166490
v -0.137795 -0.144162 0.680587
v -0.128944 -0.145033 0.166490
v -0.128944 -0.145033 0.680587
v -0.120434 -0.147615 0.166490
v -0.120434 -0.147615 0.680587
v -0.112590 -0.151807 0.166490
v -0.112590 -0.151807 0.680587
v -0.105715 -0.157449 0.166490
v -0.105715 -0.157449 0.680587
v -0.100073 -0.164324 0.166490
v -0.100073 -0.164324 0.680587
v -0.095881 -0.172168 0.166490
v -0.095881 -0.172168 0.680587
v -0.093299 -0.180678 0.166490
v -0.093299 -0.180678 0.680587
v -0.092428 -0.189529 0.166490
v -0.092428 -0.189529 0.680587
v -0.093299 -0.198380 0.166490
v -0.093299 -0.198380 0.680587
v -0.095881 -0.206890 0.166490
v -0.095881 -0.206890 0.680587
v -0.100073 -0.214734 0.166490
v -0.100073 -0.214734 0.680587
v -0.105715 -0.221609 0.166490
v -0.105715 -0.221609 0.680587
v -0.112590 -0.227251 0.166490
v -0.112590 -0.227251 0.680587
v -0.120434 -0.231443 0.166490
v -0.120434 -0.231443 0.680587
v -0.128944 -0.234025 0.166490
v -0.128944 -0.234025 0.680587
v -0.137795 -0.234897 0.166490
v -0.137795 -0.234897 0.680587
v -0.146646 -0.234025 0.166490
v -0.146646 -0.234025 0.680587
v -0.155157 -0.231443 0.166490
v -0.155157 -0.231443 0.680587
v -0.163000 -0.227251 0.166490
v -0.163000 -0.227251 0.680587
v -0.169875 -0.221609 0.166490
v -0.169875 -0.221609 0.680587
v -0.175517 -0.214734 0.166490
v -0.175517 -0.214734 0.680587
v -0.179709 -0.206890 0.166490
v -0.179709 -0.206890 0.680587
v -0.182291 -0.198380 0.166490
v -0.182291 -0.198380 0.680587
v -0.183163 -0.189529 0.166490
v -0.183163 -0.189529 0.680587
v -0.182291 -0.180678 0.166490
v -0.182291 -0.180678 0.680587
v -0.179709 -0.172168 0.166490
v -0.179709 -0.172168 0.680587
v -0.175517 -0.164324 0.166490
v -0.175517 -0.164324 0.680587
v -0.169875 -0.157449 0.166490
v -0.169875 -0.157449 0.680587
v -0.163000 -0.151807 0.166490
v -0.163000 -0.151807 0.680587
v -0.155157 -0.147615 0.166490
v -0.155157 -0.147615 0.680587
v -0.146646 -0.145033 0.166490
v -0.146646 -0.145033 0.680587
v 0.154254 -0.144162 0.166490
v 0.154254 -0.144162 0.680587
v 0.163105 -0.145033 0.166490
v 0.163105 -0.145033 0.680587
v 0.171615 -0.147615 0.166490
v 0.171615 -0.147615 0.680587
v 0.179459 -0.151807 0.166490
v 0.179459 -0.151807 0.680587
v 0.186334 -0.157449 0.166490
v 0.186334 -0.157449 0.680587
v 0.191976 -0.164324 0.166490
v 0.191976 -0.164324 0.680587
v 0.196168 -0.172168 0.166490
v 0.196168 -0.172168 0.680587
v 0.198750 -0.180678 0.166490
v 0.198750 -0.180678 0.680587
v 0.199622 -0.189529 0.166490
v 0.199622 -0.189529 0.680587
v 0.198750 -0.198380 0.166490
v 0.198750 -0.198380 0.680587
v 0.196168 -0.206890 0.166490
v 0.196168 -0.206890 0.680587
v 0.191976 -0.214734 0.166490
v 0.191976 -0.214734 0.680587
v 0.186334 -0.221609 0.166490
v 0.186334 -0.221609 0.680587
v 0.179459 -0.227251 0.166490
v 0.179459 -0.227251 0.680587
v 0.171615 -0.231443 0.166490
v 0.171615 -0.231443 0.680587
v 0.163105 -0.234025 0.166490
v 0.163105 -0.234025 0.680587
v 0.154254 -0.234897 0.166490
v 0.154254 -0.234897 0.680587
v 0.145403 -0.234025 0.166490
v 0.145403 -0.234025 0.680587
v 0.136893 -0.231443 0.166490
v 0.136893 -0.231443 0.680587
v 0.129049 -0.227251 0.166490
v 0.129049 -0.227251 0.680587
v 0.122174 -0.221609 0.166490
v 0.122174 -0.221609 0.680587
v 0.116532 -0.214734 0.166490
v 0.116532 -0.214734 0.680587
v 0.112340 -0.206890 0.166490
v 0.112340 -0.206890 0.680587
v 0.109758 -0.198380 0.166490
v 0.109758 -0.198380 0.680587
v 0.108887 -0.189529 0.166490
v 0.108887 -0.189529 0.680587
v 0.109758 -0.180678 0.166490
v 0.109758 -0.180678 0.680587
v 0.112340 -0.172168 0.166490
v 0.112340 -0.172168 0.680587
v 0.116532 -0.164324 0.166490
v 0.116532 -0.164324 0.680587
v 0.122174 -0.157449 0.166490
v 0.122174 -0.157449 0.680587
v 0.129049 -0.151807 0.166490
v 0.129049 -0.151807 0.680587
v 0.136893 -0.147615 0.166490
v 0.136893 -0.147615 0.680587
v 0.145403 -0.145033 0.166490
v 0.145403 -0.145033 0.680587
vn -0.9467 -0.0000 0.3222
vn 0.9467 -0.0000 0.3222
vn -0.0000 -0.0000 1.0000
vn -0.0000 -0.9572 0.2894
vn -0.0000 0.8884 -0.4591
vn -0.5711 -0.8009 0.1799
vn -0.0000 0.8347 0.5506
vn -0.0000 -0.0000 -1.0000
vn -0.0000 1.0000 -0.0000
vn -0.6314 0.7209 -0.2858
vn 0.4388 -0.8986 -0.0000
vn -0.9042 0.2885 0.3149
vn 0.9042 0.2885 0.3149
vn -0.8676 0.4972 -0.0000
vn 0.8676 0.4972 -0.0000
vn -1.0000 -0.0000 -0.0000
vn 1.0000 -0.0000 -0.0000
vn 0.7545 0.5177 0.4035
vn -0.7545 0.5177 0.4035
vn -0.0000 -0.9999 0.0109
vn -0.0000 -0.9588 0.2839
vn -0.8805 -0.0000 0.4741
vn -0.0883 -0.9915 -0.0951
vn 0.4596 -0.0000 0.8881
vn 0.0887 -0.9961 -0.0000
vn -0.0000 -1.0000 -0.0000
vn 0.8805 -0.0000 0.4741
vn -0.0753 -0.9963 0.0405
vn -0.4596 -0.0000 0.8881
vn 0.8197 0.5624 -0.1085
vn -0.9600 0.2411 0.1425
vn 0.9600 0.2411 0.1425
vn 0.0980 0.9952 -0.0000
vn 0.2903 0.9569 -0.0000
vn 0.4714 0.8819 -0.0000
vn 0.6344 0.7730 -0.0000
vn 0.7730 0.6344 -0.0000
vn 0.8819 0.4714 -0.0000
vn 0.9569 0.2903 -0.0000
vn 0.9952 0.0980 -0.0000
vn 0.9952 -0.0980 -0.0000
vn 0.9569 -0.2903 -0.0000
vn 0.8819 -0.4714 -0.0000
vn 0.7730 -0.6344 -0.0000
vn 0.6344 -0.7730 -0.0000
vn 0.4714 -0.8819 -0.0000
vn 0.2903 -0.9569 -0.0000
vn 0.0980 -0.9952 -0.0000
vn -0.0980 -0.9952 -0.0000
vn -0.2903 -0.9569 -0.0000
vn -0.4714 -0.8819 -0.0000
vn -0.6344 -0.7730 -0.0000
vn -0.7730 -0.6344 -0.0000
vn -0.8819 -0.4714 -0.0000
vn -0.9569 -0.2903 -0.0000
vn -0.9952 -0.0980 -0.0000
vn -0.9952 0.0980 -0.0000
vn -0.9569 0.2903 -0.0000
vn -0.8819 0.4714 -0.0000
vn -0.7730 0.6344 -0.0000
vn -0.6344 0.7730 -0.0000
vn -0.4714 0.8819 -0.0000
vn -0.2903 0.9569 -0.0000
vn -0.0980 0.9952 -0.0000
vn -0.4388 -0.8986 -0.0000
vn 0.6314 0.7209 -0.2858
vn 0.5711 -0.8009 0.1799
vn -0.8197 0.5624 -0.1085
vn 0.9166 0.2925 -0.2725
vn -0.9352 0.3434 0.0870
vn -0.4347 -0.8901 0.1366
vn 0.4347 -0.8901 0.1366
vn 0.0753 -0.9963 0.0405
vn 0.0883 -0.9915 -0.0951
vn -0.0887 -0.9961 -0.0000
vn -0.9166 0.2925 -0.2725
vn 0.9352 0.3434 0.0870
vt 0.274931 0.459013
vt 0.180190 0.513697
vt 0.268542 0.453396
vt 0.252494 0.327237
vt 0.286558 0.435661
vt 0.277007 0.434213
vt 0.238058 0.430519
vt 0.059278 0.408303
vt 0.102318 0.361129
vt 0.087313 0.408525
vt 0.007202 0.346452
vt 0.000894 0.366520
vt 0.157538 0.401617
vt 0.139940 0.389725
vt 0.160022 0.387596
vt 0.134028 0.415265
vt 0.152781 0.416571
vt 0.141700 0.427790
vt 0.150583 0.376865
vt 0.156718 0.377505
vt 0.139643 0.374762
vt 0.117558 0.378981
vt 0.127741 0.409288
vt 0.135492 0.402153
vt 0.218664 0.321727
vt 0.179347 0.408458
vt 0.023961 0.442316
vt 0.069488 0.297487
vt 0.078993 0.345589
vt 0.136631 0.309237
vt 0.125909 0.211164
vt 0.192075 0.040875
vt 0.188114 0.520723
vt 0.138273 0.589823
vt 0.115549 0.471984
vt 0.086388 0.468801
vt 0.110232 0.298909
vt 0.137486 0.451136
vt 0.185803 0.316959
vt 0.167020 0.323724
vt 0.124149 0.414100
vt 0.111149 0.403753
vt 0.038165 0.727801
vt 0.010348 0.727393
vt 0.038087 0.725513
vt 0.154222 0.495287
vt 0.000894 0.689262
vt 0.008012 0.728212
vt 0.256840 0.025425
vt 0.279060 0.215062
vt 0.266938 0.216291
vt 0.278226 0.217799
vt 0.264629 0.326577
vt 0.166886 0.323600
vt 0.231522 0.005004
vt 0.229925 0.000894
vt 0.028237 0.544482
vt 0.059147 0.464292
vt 0.127764 0.476826
vt 0.146605 0.596618
vt 0.117256 0.378929
vt 0.110629 0.404606
vt 0.134688 0.395348
vt 0.114590 0.390321
vt 0.642407 0.710891
vt 0.465845 0.728197
vt 0.465845 0.710891
vt 0.820757 0.287297
vt 0.644194 0.304603
vt 0.644194 0.287297
vt 0.820757 0.306390
vt 0.644194 0.323696
vt 0.644194 0.306390
vt 0.801035 0.906562
vt 0.783728 0.730000
vt 0.801035 0.730000
vt 0.999106 0.573699
vt 0.822544 0.591006
vt 0.822544 0.573699
vt 0.495538 0.906562
vt 0.478232 0.730000
vt 0.495538 0.730000
vt 0.820757 0.325484
vt 0.644194 0.342790
vt 0.644194 0.325484
vt 0.999106 0.268203
vt 0.822544 0.285509
vt 0.822544 0.268203
vt 0.999106 0.287297
vt 0.822544 0.304603
vt 0.822544 0.287297
vt 0.820757 0.344577
vt 0.644194 0.361884
vt 0.644194 0.344577
vt 0.514632 0.906562
vt 0.497325 0.730000
vt 0.514632 0.730000
vt 0.999106 0.592793
vt 0.822544 0.610099
vt 0.822544 0.592793
vt 0.999106 0.611886
vt 0.822544 0.629193
vt 0.822544 0.611886
vt 0.533725 0.906562
vt 0.516419 0.730000
vt 0.533725 0.730000
vt 0.820757 0.363671
vt 0.644194 0.380977
vt 0.644194 0.363671
vt 0.999106 0.306390
vt 0.822544 0.323696
vt 0.822544 0.306390
vt 0.999106 0.325484
vt 0.822544 0.342790
vt 0.822544 0.325484
vt 0.820757 0.382764
vt 0.644194 0.400071
vt 0.644194 0.382764
vt 0.552819 0.906562
vt 0.535513 0.730000
vt 0.552819 0.730000
vt 0.999106 0.630980
vt 0.822544 0.648286
vt 0.822544 0.630980
vt 0.820128 0.730000
vt 0.802822 0.906562
vt 0.802822 0.730000
vt 0.820757 0.401858
vt 0.644194 0.419164
vt 0.644194 0.401858
vt 0.820757 0.420952
vt 0.644194 0.438258
vt 0.644194 0.420952
vt 0.820757 0.000894
vt 0.644194 0.018200
vt 0.644194 0.000894
vt 0.820757 0.019987
vt 0.644194 0.037293
vt 0.644194 0.019987
vt 0.820757 0.440045
vt 0.644194 0.457351
vt 0.644194 0.440045
vt 0.820757 0.459139
vt 0.644194 0.476445
vt 0.644194 0.459139
vt 0.822544 0.000894
vt 0.999106 0.018200
vt 0.822544 0.018200
vt 0.999106 0.019987
vt 0.822544 0.037293
vt 0.822544 0.019987
vt 0.820757 0.478232
vt 0.644194 0.495538
vt 0.644194 0.478232
vt 0.595316 0.010893
vt 0.609706 0.020507
vt 0.475844 0.047134
vt 0.820757 0.497326
vt 0.644194 0.514632
vt 0.644194 0.497326
vt 0.820757 0.039081
vt 0.644194 0.056387
vt 0.644194 0.039081
vt 0.432206 0.156992
vt 0.417817 0.166607
vt 0.417817 0.010893
vt 0.820757 0.058174
vt 0.644194 0.075480
vt 0.644194 0.058174
vt 0.820757 0.516419
vt 0.644194 0.533725
vt 0.644194 0.516419
vt 0.820757 0.535513
vt 0.644194 0.552819
vt 0.644194 0.535513
vt 0.999106 0.039081
vt 0.822544 0.056387
vt 0.822544 0.039081
vt 0.999106 0.650073
vt 0.822544 0.667379
vt 0.822544 0.650073
vt 0.571912 0.906562
vt 0.554606 0.730000
vt 0.571912 0.730000
vt 0.820757 0.554606
vt 0.644194 0.571912
vt 0.644194 0.554606
vt 0.999106 0.344577
vt 0.822544 0.361883
vt 0.822544 0.344577
vt 0.999106 0.363671
vt 0.822544 0.380977
vt 0.822544 0.363671
vt 0.820757 0.573700
vt 0.644194 0.591006
vt 0.644194 0.573700
vt 0.591006 0.906562
vt 0.573700 0.730000
vt 0.591006 0.730000
vt 0.999106 0.669167
vt 0.822544 0.686473
vt 0.822544 0.669167
vt 0.999106 0.688260
vt 0.822544 0.705567
vt 0.822544 0.688260
vt 0.610099 0.906562
vt 0.592793 0.730000
vt 0.610099 0.730000
vt 0.820757 0.592793
vt 0.644194 0.610099
vt 0.644194 0.592793
vt 0.999106 0.382764
vt 0.822544 0.400070
vt 0.822544 0.382764
vt 0.999106 0.401858
vt 0.822544 0.419164
vt 0.822544 0.401858
vt 0.820757 0.611887
vt 0.644194 0.629193
vt 0.644194 0.611887
vt 0.629193 0.906562
vt 0.611887 0.730000
vt 0.629193 0.730000
vt 0.999106 0.707354
vt 0.822544 0.724660
vt 0.822544 0.707354
vt 0.822544 0.058174
vt 0.999106 0.075480
vt 0.822544 0.075480
vt 0.820757 0.630980
vt 0.644194 0.648286
vt 0.644194 0.630980
vt 0.820757 0.650074
vt 0.644194 0.667380
vt 0.644194 0.650074
vt 0.820757 0.077268
vt 0.644194 0.094574
vt 0.644194 0.077268
vt 0.820757 0.096361
vt 0.644194 0.113668
vt 0.644194 0.096361
vt 0.820757 0.669167
vt 0.644194 0.686473
vt 0.644194 0.669167
vt 0.820757 0.688261
vt 0.644194 0.705567
vt 0.644194 0.688261
vt 0.822544 0.077268
vt 0.999106 0.094574
vt 0.822544 0.094574
vt 0.999106 0.096361
vt 0.822544 0.113667
vt 0.822544 0.096361
vt 0.820757 0.707354
vt 0.644194 0.724660
vt 0.644194 0.707354
vt 0.595316 0.188392
vt 0.609706 0.198007
vt 0.475844 0.224634
vt 0.018200 0.906562
vt 0.000894 0.730000
vt 0.018200 0.730000
vt 0.820757 0.115455
vt 0.644194 0.132761
vt 0.644194 0.115455
vt 0.432206 0.334491
vt 0.417817 0.344106
vt 0.417817 0.188392
vt 0.820757 0.134548
vt 0.644194 0.151855
vt 0.644194 0.134548
vt 0.037293 0.906562
vt 0.019987 0.730000
vt 0.037293 0.730000
vt 0.056387 0.906562
vt 0.039081 0.730000
vt 0.056387 0.730000
vt 0.999106 0.115455
vt 0.822544 0.132761
vt 0.822544 0.115455
vt 0.999106 0.726447
vt 0.822544 0.743754
vt 0.822544 0.726447
vt 0.648286 0.906562
vt 0.630980 0.730000
vt 0.648286 0.730000
vt 0.075480 0.906562
vt 0.058174 0.730000
vt 0.075480 0.730000
vt 0.999106 0.420951
vt 0.822544 0.438257
vt 0.822544 0.420951
vt 0.999106 0.440045
vt 0.822544 0.457351
vt 0.822544 0.440045
vt 0.094574 0.906562
vt 0.077268 0.730000
vt 0.094574 0.730000
vt 0.667380 0.906562
vt 0.650074 0.730000
vt 0.667380 0.730000
vt 0.999106 0.745541
vt 0.822544 0.762847
vt 0.822544 0.745541
vt 0.999106 0.764635
vt 0.822544 0.781941
vt 0.822544 0.764635
vt 0.686473 0.906562
vt 0.669167 0.730000
vt 0.686473 0.730000
vt 0.113667 0.906562
vt 0.096361 0.730000
vt 0.113667 0.730000
vt 0.999106 0.459138
vt 0.822544 0.476444
vt 0.822544 0.459138
vt 0.999106 0.478232
vt 0.822544 0.495538
vt 0.822544 0.478232
vt 0.132761 0.906562
vt 0.115455 0.730000
vt 0.132761 0.730000
vt 0.705567 0.906562
vt 0.688261 0.730000
vt 0.705567 0.730000
vt 0.999106 0.783728
vt 0.822544 0.801034
vt 0.822544 0.783728
vt 0.822544 0.134548
vt 0.999106 0.151855
vt 0.822544 0.151855
vt 0.151855 0.906562
vt 0.134548 0.730000
vt 0.151855 0.730000
vt 0.170948 0.730000
vt 0.153642 0.906562
vt 0.153642 0.730000
vt 0.820757 0.153642
vt 0.644194 0.170948
vt 0.644194 0.153642
vt 0.820757 0.172736
vt 0.644194 0.190042
vt 0.644194 0.172736
vt 0.190042 0.730000
vt 0.172735 0.906562
vt 0.172735 0.730000
vt 0.209135 0.906562
vt 0.191829 0.730000
vt 0.209135 0.730000
vt 0.822544 0.153642
vt 0.999106 0.170948
vt 0.822544 0.170948
vt 0.999106 0.172735
vt 0.822544 0.190042
vt 0.822544 0.172735
vt 0.228229 0.906562
vt 0.210923 0.730000
vt 0.228229 0.730000
vt 0.595316 0.365891
vt 0.609706 0.375506
vt 0.475844 0.402133
vt 0.247322 0.906562
vt 0.230016 0.730000
vt 0.247322 0.730000
vt 0.820757 0.191829
vt 0.644194 0.209135
vt 0.644194 0.191829
vt 0.432206 0.511991
vt 0.417817 0.521605
vt 0.417817 0.365891
vt 0.820757 0.210923
vt 0.644194 0.228229
vt 0.644194 0.210923
vt 0.266416 0.906562
vt 0.249110 0.730000
vt 0.266416 0.730000
vt 0.285509 0.906562
vt 0.268203 0.730000
vt 0.285509 0.730000
vt 0.999106 0.191829
vt 0.822544 0.209135
vt 0.822544 0.191829
vt 0.999106 0.802822
vt 0.822544 0.820128
vt 0.822544 0.802822
vt 0.724660 0.906562
vt 0.707354 0.730000
vt 0.724660 0.730000
vt 0.304603 0.906562
vt 0.287297 0.730000
vt 0.304603 0.730000
vt 0.999106 0.497325
vt 0.822544 0.514631
vt 0.822544 0.497325
vt 0.999106 0.516419
vt 0.822544 0.533725
vt 0.822544 0.516419
vt 0.323696 0.906562
vt 0.306390 0.730000
vt 0.323696 0.730000
vt 0.743754 0.906562
vt 0.726448 0.730000
vt 0.743754 0.730000
vt 0.999106 0.821915
vt 0.822544 0.839221
vt 0.822544 0.821915
vt 0.999106 0.841009
vt 0.822544 0.858315
vt 0.822544 0.841009
vt 0.762847 0.906562
vt 0.745541 0.730000
vt 0.762847 0.730000
vt 0.342790 0.906562
vt 0.325484 0.730000
vt 0.342790 0.730000
vt 0.999106 0.535512
vt 0.822544 0.552818
vt 0.822544 0.535512
vt 0.999106 0.554606
vt 0.822544 0.571912
vt 0.822544 0.554606
vt 0.361883 0.906562
vt 0.344577 0.730000
vt 0.361883 0.730000
vt 0.781941 0.906562
vt 0.764635 0.730000
vt 0.781941 0.730000
vt 0.999106 0.860102
vt 0.822544 0.877409
vt 0.822544 0.860102
vt 0.822544 0.210922
vt 0.999106 0.228229
vt 0.822544 0.228229
vt 0.380977 0.906562
vt 0.363671 0.730000
vt 0.380977 0.730000
vt 0.400070 0.730000
vt 0.382764 0.906562
vt 0.382764 0.730000
vt 0.820757 0.230016
vt 0.644194 0.247322
vt 0.644194 0.230016
vt 0.820757 0.249110
vt 0.644194 0.266416
vt 0.644194 0.249110
vt 0.419164 0.730000
vt 0.401858 0.906562
vt 0.401858 0.730000
vt 0.438258 0.906562
vt 0.420951 0.730000
vt 0.438258 0.730000
vt 0.822544 0.230016
vt 0.999106 0.247322
vt 0.822544 0.247322
vt 0.999106 0.249110
vt 0.822544 0.266416
vt 0.822544 0.249110
vt 0.457351 0.906562
vt 0.440045 0.730000
vt 0.457351 0.730000
vt 0.595316 0.543391
vt 0.609706 0.553006
vt 0.475844 0.579632
vt 0.476445 0.906562
vt 0.459138 0.730000
vt 0.476445 0.730000
vt 0.820757 0.268203
vt 0.644194 0.285509
vt 0.644194 0.268203
vt 0.432206 0.689490
vt 0.417817 0.699105
vt 0.417817 0.543391
vt 0.146873 0.594622
vt 0.131929 0.444198
vt 0.158059 0.385691
vt 0.259807 0.025124
vt 0.257948 0.024086
vt 0.040127 0.727176
vt 0.642407 0.728197
vt 0.820757 0.304603
vt 0.820757 0.323696
vt 0.783728 0.906562
vt 0.999106 0.591005
vt 0.478232 0.906562
vt 0.820757 0.342790
vt 0.999106 0.285509
vt 0.999106 0.304603
vt 0.820757 0.361884
vt 0.497325 0.906562
vt 0.999106 0.610099
vt 0.999106 0.629193
vt 0.516419 0.906562
vt 0.820757 0.380977
vt 0.999106 0.323696
vt 0.999106 0.342790
vt 0.820757 0.400071
vt 0.535513 0.906562
vt 0.999106 0.648286
vt 0.820128 0.906562
vt 0.820757 0.419164
vt 0.820757 0.438258
vt 0.820757 0.018200
vt 0.820757 0.037293
vt 0.820757 0.457351
vt 0.820757 0.476445
vt 0.999106 0.000894
vt 0.999106 0.037293
vt 0.820757 0.495538
vt 0.621943 0.032745
vt 0.631558 0.047134
vt 0.465845 0.097403
vt 0.638180 0.063123
vt 0.469221 0.114376
vt 0.641557 0.080097
vt 0.475844 0.130365
vt 0.641557 0.097403
vt 0.485459 0.144755
vt 0.638180 0.114376
vt 0.631558 0.130365
vt 0.497696 0.156992
vt 0.621943 0.144755
vt 0.512085 0.166607
vt 0.609706 0.156992
vt 0.528074 0.173229
vt 0.595316 0.166607
vt 0.562354 0.176606
vt 0.579327 0.173229
vt 0.545048 0.176606
vt 0.465845 0.080097
vt 0.469221 0.063123
vt 0.485459 0.032745
vt 0.497696 0.020507
vt 0.579327 0.004270
vt 0.512085 0.010893
vt 0.545048 0.000894
vt 0.528074 0.004270
vt 0.562354 0.000894
vt 0.820757 0.514632
vt 0.820757 0.056387
vt 0.401828 0.173229
vt 0.384854 0.176606
vt 0.367548 0.000894
vt 0.367548 0.176606
vt 0.350575 0.004270
vt 0.350575 0.173229
vt 0.334586 0.166607
vt 0.334586 0.010893
vt 0.320196 0.156992
vt 0.307959 0.032745
vt 0.307959 0.144755
vt 0.298344 0.047134
vt 0.298344 0.130365
vt 0.291722 0.114376
vt 0.291722 0.063123
vt 0.288345 0.097403
vt 0.288345 0.080097
vt 0.320196 0.020508
vt 0.384854 0.000894
vt 0.401828 0.004270
vt 0.432206 0.020507
vt 0.444444 0.144755
vt 0.444444 0.032745
vt 0.454058 0.130365
vt 0.454058 0.047134
vt 0.460681 0.063123
vt 0.460681 0.114376
vt 0.464057 0.080097
vt 0.464057 0.097403
vt 0.820757 0.075480
vt 0.820757 0.533725
vt 0.820757 0.552819
vt 0.999106 0.056387
vt 0.999106 0.667379
vt 0.554606 0.906562
vt 0.820757 0.571912
vt 0.999106 0.361883
vt 0.999106 0.380977
vt 0.820757 0.591006
vt 0.573700 0.906562
vt 0.999106 0.686473
vt 0.999106 0.705567
vt 0.592793 0.906562
vt 0.820757 0.610099
vt 0.999106 0.400070
vt 0.999106 0.419164
vt 0.820757 0.629193
vt 0.611887 0.906562
vt 0.999106 0.724660
vt 0.999106 0.058174
vt 0.820757 0.648286
vt 0.820757 0.667380
vt 0.820757 0.094574
vt 0.820757 0.113668
vt 0.820757 0.686473
vt 0.820757 0.705567
vt 0.999106 0.077268
vt 0.999106 0.113667
vt 0.820757 0.724660
vt 0.621943 0.210244
vt 0.631558 0.224634
vt 0.465845 0.274902
vt 0.638181 0.240622
vt 0.469221 0.291876
vt 0.641557 0.257596
vt 0.475844 0.307864
vt 0.641557 0.274902
vt 0.485459 0.322254
vt 0.638181 0.291876
vt 0.631558 0.307864
vt 0.497696 0.334491
vt 0.621943 0.322254
vt 0.512085 0.344106
vt 0.609706 0.334491
vt 0.528074 0.350729
vt 0.595316 0.344106
vt 0.545048 0.354105
vt 0.579327 0.350729
vt 0.562354 0.354105
vt 0.465845 0.257596
vt 0.469221 0.240622
vt 0.485459 0.210244
vt 0.497696 0.198007
vt 0.579327 0.181769
vt 0.512085 0.188392
vt 0.562354 0.178393
vt 0.528074 0.181769
vt 0.545048 0.178393
vt 0.000894 0.906562
vt 0.820757 0.132761
vt 0.401828 0.350729
vt 0.384854 0.354105
vt 0.367548 0.178393
vt 0.367548 0.354105
vt 0.350575 0.181769
vt 0.350575 0.350729
vt 0.334586 0.344106
vt 0.334586 0.188392
vt 0.320196 0.334491
vt 0.307959 0.210244
vt 0.307959 0.322254
vt 0.298344 0.224634
vt 0.298344 0.307865
vt 0.291722 0.291876
vt 0.291722 0.240622
vt 0.288345 0.274902
vt 0.288345 0.257596
vt 0.320196 0.198007
vt 0.384854 0.178393
vt 0.401828 0.181769
vt 0.432206 0.198007
vt 0.444444 0.322254
vt 0.444444 0.210244
vt 0.454058 0.307865
vt 0.454058 0.224634
vt 0.460681 0.240622
vt 0.460681 0.291876
vt 0.464057 0.257596
vt 0.464057 0.274902
vt 0.820757 0.151855
vt 0.019987 0.906562
vt 0.039081 0.906562
vt 0.999106 0.132761
vt 0.999106 0.743754
vt 0.630980 0.906562
vt 0.058174 0.906562
vt 0.999106 0.438257
vt 0.999106 0.457351
vt 0.077268 0.906562
vt 0.650074 0.906562
vt 0.999106 0.762847
vt 0.999106 0.781941
vt 0.669167 0.906562
vt 0.096361 0.906562
vt 0.999106 0.476444
vt 0.999106 0.495538
vt 0.115455 0.906562
vt 0.688261 0.906562
vt 0.999106 0.801034
vt 0.999106 0.134548
vt 0.134548 0.906562
vt 0.170948 0.906562
vt 0.820757 0.170948
vt 0.820757 0.190042
vt 0.190042 0.906562
vt 0.191829 0.906562
vt 0.999106 0.153642
vt 0.999106 0.190042
vt 0.210923 0.906562
vt 0.621943 0.387744
vt 0.631558 0.402133
vt 0.465845 0.452402
vt 0.638181 0.418122
vt 0.469221 0.469375
vt 0.641557 0.435095
vt 0.475844 0.485364
vt 0.641557 0.452402
vt 0.485459 0.499753
vt 0.638181 0.469375
vt 0.631558 0.485364
vt 0.497696 0.511991
vt 0.621943 0.499753
vt 0.512085 0.521605
vt 0.609706 0.511991
vt 0.528074 0.528228
vt 0.595316 0.521605
vt 0.562354 0.531604
vt 0.579327 0.528228
vt 0.545048 0.531604
vt 0.465845 0.435095
vt 0.469221 0.418122
vt 0.485459 0.387744
vt 0.497696 0.375506
vt 0.579327 0.359269
vt 0.512085 0.365892
vt 0.562354 0.355892
vt 0.528074 0.359269
vt 0.545048 0.355892
vt 0.230016 0.906562
vt 0.820757 0.209135
vt 0.401828 0.528228
vt 0.384854 0.531604
vt 0.367548 0.355892
vt 0.367548 0.531604
vt 0.350575 0.359269
vt 0.350575 0.528228
vt 0.334586 0.521605
vt 0.334586 0.365892
vt 0.320196 0.511991
vt 0.307959 0.387744
vt 0.307959 0.499753
vt 0.298344 0.402133
vt 0.298344 0.485364
vt 0.291722 0.469375
vt 0.291722 0.418122
vt 0.288345 0.452402
vt 0.288345 0.435095
vt 0.320196 0.375506
vt 0.384854 0.355892
vt 0.401828 0.359269
vt 0.432206 0.375506
vt 0.444444 0.499753
vt 0.444444 0.387744
vt 0.454058 0.485364
vt 0.454058 0.402133
vt 0.460681 0.418122
vt 0.460681 0.469375
vt 0.464057 0.435095
vt 0.464057 0.452402
vt 0.820757 0.228229
vt 0.249110 0.906562
vt 0.268203 0.906562
vt 0.999106 0.209135
vt 0.999106 0.820128
vt 0.707354 0.906562
vt 0.287297 0.906562
vt 0.999106 0.514631
vt 0.999106 0.533725
vt 0.306390 0.906562
vt 0.726448 0.906562
vt 0.999106 0.839221
vt 0.999106 0.858315
vt 0.745541 0.906562
vt 0.325484 0.906562
vt 0.999106 0.552818
vt 0.999106 0.571912
vt 0.344577 0.906562
vt 0.764635 0.906562
vt 0.999106 0.877409
vt 0.999106 0.210922
vt 0.363671 0.906562
vt 0.400070 0.906562
vt 0.820757 0.247322
vt 0.820757 0.266416
vt 0.419164 0.906562
vt 0.420951 0.906562
vt 0.999106 0.230016
vt 0.999106 0.266416
vt 0.440045 0.906562
vt 0.621943 0.565243
vt 0.631558 0.579632
vt 0.465845 0.629901
vt 0.638180 0.595621
vt 0.469221 0.646875
vt 0.641557 0.612595
vt 0.475844 0.662863
vt 0.641557 0.629901
vt 0.485459 0.677253
vt 0.638180 0.646874
vt 0.631558 0.662863
vt 0.497696 0.689490
vt 0.621943 0.677253
vt 0.512085 0.699105
vt 0.609706 0.689490
vt 0.528074 0.705728
vt 0.595316 0.699105
vt 0.562354 0.709104
vt 0.579327 0.705728
vt 0.545048 0.709104
vt 0.465845 0.612595
vt 0.469221 0.595621
vt 0.485459 0.565243
vt 0.497696 0.553006
vt 0.579327 0.536768
vt 0.512085 0.543391
vt 0.562354 0.533392
vt 0.528074 0.536768
vt 0.545048 0.533392
vt 0.459138 0.906562
vt 0.820757 0.285509
vt 0.401828 0.705728
vt 0.384854 0.709104
vt 0.367548 0.533392
vt 0.367548 0.709104
vt 0.350575 0.536768
vt 0.350575 0.705728
vt 0.334586 0.699105
vt 0.334586 0.543391
vt 0.320196 0.689490
vt 0.307959 0.565243
vt 0.307959 0.677253
vt 0.298344 0.579633
vt 0.298344 0.662863
vt 0.291722 0.646875
vt 0.291722 0.595621
vt 0.288345 0.629901
vt 0.288345 0.612595
vt 0.320196 0.553006
vt 0.384854 0.533392
vt 0.401828 0.536768
vt 0.432206 0.553006
vt 0.444444 0.677253
vt 0.444444 0.565243
vt 0.454058 0.662863
vt 0.454058 0.579632
vt 0.460681 0.595621
vt 0.460681 0.646875
vt 0.464057 0.612595
vt 0.464057 0.629901
s 0
usemtl マテリアル
f 13/1/1 1/2/1 15/3/1
f 5/4/2 11/5/2 10/6/2
f 11/5/3 15/3/3 10/6/3
f 17/7/4 10/6/4 15/3/4
f 18/8/5 44/9/5 45/10/5
f 17/7/6 15/3/6 1/2/6
f 11/11/7 18/8/7 13/12/7
f 31/13/8 23/14/8 19/15/8
f 26/16/8 24/17/8 25/18/8
f 19/15/8 22/19/8 21/20/8
f 28/21/9 23/14/9 29/22/9
f 27/23/10 20/24/10 26/16/10
f 47/25/11 5/4/11 12/26/11
f 13/12/12 18/8/12 2/27/12
f 11/11/13 6/28/13 16/29/13
f 43/30/9 40/31/9 50/32/9
f 2/33/3 34/34/3 1/2/3
f 45/10/14 4/35/14 42/36/14
f 44/9/15 6/37/15 43/30/15
f 26/16/16 25/18/16 3/38/16
f 22/19/17 7/39/17 21/20/17
f 28/21/18 29/22/18 8/40/18
f 27/23/19 4/41/19 30/42/19
f 20/24/8 31/13/8 24/17/8
f 24/17/20 31/13/20 12/26/20
f 19/15/21 21/20/21 7/39/21
f 48/43/22 37/44/22 49/45/22
f 46/46/23 34/34/23 49/45/23
f 4/35/9 48/47/9 42/36/9
f 4/35/8 37/44/8 36/48/8
f 51/49/24 40/50/24 41/51/24
f 7/39/25 51/49/25 47/25/25
f 5/4/3 40/52/3 6/53/3
f 8/54/8 39/55/8 7/39/8
f 47/25/26 41/51/26 5/4/26
f 38/56/27 51/49/27 39/55/27
f 42/36/9 35/57/9 2/58/9
f 3/59/28 49/45/28 37/44/28
f 35/60/29 49/45/29 34/34/29
f 44/9/30 8/54/30 9/61/30
f 2/58/14 45/10/14 42/36/14
f 8/54/9 50/32/9 38/56/9
f 45/10/9 9/61/9 14/62/9
f 32/63/31 20/24/31 33/64/31
f 32/63/32 33/64/32 23/14/32
f 33/64/9 29/22/9 23/14/9
f 30/42/9 33/64/9 20/24/9
f 53/65/33 54/66/33 52/67/33
f 55/68/34 56/69/34 54/70/34
f 57/71/35 58/72/35 56/73/35
f 59/74/36 60/75/36 58/76/36
f 61/77/37 62/78/37 60/79/37
f 63/80/38 64/81/38 62/82/38
f 65/83/39 66/84/39 64/85/39
f 67/86/40 68/87/40 66/88/40
f 69/89/41 70/90/41 68/91/41
f 71/92/42 72/93/42 70/94/42
f 73/95/43 74/96/43 72/97/43
f 75/98/44 76/99/44 74/100/44
f 77/101/45 78/102/45 76/103/45
f 79/104/46 80/105/46 78/106/46
f 81/107/47 82/108/47 80/109/47
f 83/110/48 84/111/48 82/112/48
f 85/113/49 86/114/49 84/115/49
f 87/116/50 88/117/50 86/118/50
f 89/119/51 90/120/51 88/121/51
f 91/122/52 92/123/52 90/124/52
f 92/125/53 95/126/53 94/127/53
f 95/128/54 96/129/54 94/130/54
f 97/131/55 98/132/55 96/133/55
f 99/134/56 100/135/56 98/136/56
f 101/137/57 102/138/57 100/139/57
f 103/140/58 104/141/58 102/142/58
f 105/143/59 106/144/59 104/145/59
f 106/146/60 109/147/60 108/148/60
f 109/149/61 110/150/61 108/151/61
f 111/152/62 112/153/62 110/154/62
f 61/155/3 59/156/3 77/157/3
f 113/158/63 114/159/63 112/160/63
f 115/161/64 52/162/64 114/163/64
f 110/164/8 112/165/8 90/166/8
f 117/167/33 118/168/33 116/169/33
f 119/170/34 120/171/34 118/172/34
f 121/173/35 122/174/35 120/175/35
f 123/176/36 124/177/36 122/178/36
f 125/179/37 126/180/37 124/181/37
f 127/182/38 128/183/38 126/184/38
f 129/185/39 130/186/39 128/187/39
f 131/188/40 132/189/40 130/190/40
f 133/191/41 134/192/41 132/193/41
f 135/194/42 136/195/42 134/196/42
f 137/197/43 138/198/43 136/199/43
f 139/200/44 140/201/44 138/202/44
f 141/203/45 142/204/45 140/205/45
f 143/206/46 144/207/46 142/208/46
f 145/209/47 146/210/47 144/211/47
f 147/212/48 148/213/48 146/214/48
f 149/215/49 150/216/49 148/217/49
f 151/218/50 152/219/50 150/220/50
f 153/221/51 154/222/51 152/223/51
f 155/224/52 156/225/52 154/226/52
f 156/227/53 159/228/53 158/229/53
f 159/230/54 160/231/54 158/232/54
f 161/233/55 162/234/55 160/235/55
f 163/236/56 164/237/56 162/238/56
f 165/239/57 166/240/57 164/241/57
f 167/242/58 168/243/58 166/244/58
f 169/245/59 170/246/59 168/247/59
f 170/248/60 173/249/60 172/250/60
f 173/251/61 174/252/61 172/253/61
f 175/254/62 176/255/62 174/256/62
f 125/257/3 123/258/3 141/259/3
f 177/260/63 178/261/63 176/262/63
f 179/263/64 116/264/64 178/265/64
f 174/266/8 176/267/8 154/268/8
f 181/269/33 182/270/33 180/271/33
f 183/272/34 184/273/34 182/274/34
f 185/275/35 186/276/35 184/277/35
f 187/278/36 188/279/36 186/280/36
f 189/281/37 190/282/37 188/283/37
f 191/284/38 192/285/38 190/286/38
f 193/287/39 194/288/39 192/289/39
f 195/290/40 196/291/40 194/292/40
f 197/293/41 198/294/41 196/295/41
f 199/296/42 200/297/42 198/298/42
f 201/299/43 202/300/43 200/301/43
f 203/302/44 204/303/44 202/304/44
f 205/305/45 206/306/45 204/307/45
f 207/308/46 208/309/46 206/310/46
f 209/311/47 210/312/47 208/313/47
f 211/314/48 212/315/48 210/316/48
f 213/317/49 214/318/49 212/319/49
f 215/320/50 216/321/50 214/322/50
f 217/323/51 218/324/51 216/325/51
f 219/326/52 220/327/52 218/328/52
f 220/329/53 223/330/53 222/331/53
f 223/332/54 224/333/54 222/334/54
f 224/335/55 227/336/55 226/337/55
f 227/338/56 228/339/56 226/340/56
f 229/341/57 230/342/57 228/343/57
f 230/344/58 233/345/58 232/346/58
f 233/347/59 234/348/59 232/349/59
f 234/350/60 237/351/60 236/352/60
f 237/353/61 238/354/61 236/355/61
f 239/356/62 240/357/62 238/358/62
f 189/359/3 187/360/3 205/361/3
f 241/362/63 242/363/63 240/364/63
f 243/365/64 180/366/64 242/367/64
f 238/368/8 240/369/8 218/370/8
f 245/371/33 246/372/33 244/373/33
f 247/374/34 248/375/34 246/376/34
f 249/377/35 250/378/35 248/379/35
f 251/380/36 252/381/36 250/382/36
f 253/383/37 254/384/37 252/385/37
f 255/386/38 256/387/38 254/388/38
f 257/389/39 258/390/39 256/391/39
f 259/392/40 260/393/40 258/394/40
f 261/395/41 262/396/41 260/397/41
f 263/398/42 264/399/42 262/400/42
f 265/401/43 266/402/43 264/403/43
f 267/404/44 268/405/44 266/406/44
f 269/407/45 270/408/45 268/409/45
f 271/410/46 272/411/46 270/412/46
f 273/413/47 274/414/47 272/415/47
f 275/416/48 276/417/48 274/418/48
f 277/419/49 278/420/49 276/421/49
f 279/422/50 280/423/50 278/424/50
f 281/425/51 282/426/51 280/427/51
f 283/428/52 284/429/52 282/430/52
f 284/431/53 287/432/53 286/433/53
f 287/434/54 288/435/54 286/436/54
f 288/437/55 291/438/55 290/439/55
f 291/440/56 292/441/56 290/442/56
f 293/443/57 294/444/57 292/445/57
f 294/446/58 297/447/58 296/448/58
f 297/449/59 298/450/59 296/451/59
f 298/452/60 301/453/60 300/454/60
f 301/455/61 302/456/61 300/457/61
f 303/458/62 304/459/62 302/460/62
f 253/461/3 251/462/3 269/463/3
f 305/464/63 306/465/63 304/466/63
f 307/467/64 244/468/64 306/469/64
f 302/470/8 304/471/8 282/472/8
f 13/1/1 2/33/1 1/2/1
f 5/4/2 6/53/2 11/5/2
f 11/5/3 13/1/3 15/3/3
f 18/8/5 16/29/5 44/9/5
f 3/59/65 12/26/65 46/46/65
f 12/26/65 17/7/65 1/2/65
f 46/46/65 12/26/65 1/2/65
f 11/11/7 16/29/7 18/8/7
f 31/13/8 32/63/8 23/14/8
f 26/16/8 20/24/8 24/17/8
f 19/15/8 23/14/8 22/19/8
f 28/21/66 22/19/66 23/14/66
f 27/23/9 30/42/9 20/24/9
f 5/4/67 10/6/67 17/7/67
f 17/7/11 12/26/11 5/4/11
f 12/26/11 7/39/11 47/25/11
f 43/30/9 6/37/9 40/31/9
f 2/33/3 35/473/3 34/34/3
f 45/10/68 14/62/68 4/35/68
f 44/9/69 16/29/69 6/37/69
f 4/474/8 14/475/8 3/38/8
f 27/23/70 26/16/70 4/41/70
f 4/41/16 26/16/16 3/38/16
f 20/24/8 32/63/8 31/13/8
f 12/26/71 3/59/71 24/17/71
f 3/59/21 25/18/21 24/17/21
f 7/39/72 12/26/72 19/15/72
f 12/26/20 31/13/20 19/15/20
f 48/43/22 36/48/22 37/44/22
f 46/46/26 1/2/26 34/34/26
f 4/35/9 36/48/9 48/47/9
f 4/35/8 3/59/8 37/44/8
f 51/49/24 50/476/24 40/50/24
f 7/39/73 39/55/73 51/49/73
f 5/4/3 41/51/3 40/52/3
f 8/54/8 38/56/8 39/55/8
f 47/25/74 51/49/74 41/51/74
f 38/56/27 50/477/27 51/49/27
f 42/36/9 48/47/9 35/57/9
f 3/59/75 46/46/75 49/45/75
f 35/60/29 48/478/29 49/45/29
f 44/9/15 43/30/15 8/54/15
f 2/58/76 18/8/76 45/10/76
f 8/54/9 43/30/9 50/32/9
f 45/10/9 44/9/9 9/61/9
f 53/65/33 55/479/33 54/66/33
f 55/68/34 57/480/34 56/69/34
f 57/71/35 59/481/35 58/72/35
f 59/74/36 61/482/36 60/75/36
f 61/77/37 63/483/37 62/78/37
f 63/80/38 65/484/38 64/81/38
f 65/83/39 67/485/39 66/84/39
f 67/86/40 69/486/40 68/87/40
f 69/89/41 71/487/41 70/90/41
f 71/92/42 73/488/42 72/93/42
f 73/95/43 75/489/43 74/96/43
f 75/98/44 77/490/44 76/99/44
f 77/101/45 79/491/45 78/102/45
f 79/104/46 81/492/46 80/105/46
f 81/107/47 83/493/47 82/108/47
f 83/110/48 85/494/48 84/111/48
f 85/113/49 87/495/49 86/114/49
f 87/116/50 89/496/50 88/117/50
f 89/119/51 91/497/51 90/120/51
f 91/122/52 93/498/52 92/123/52
f 92/125/53 93/499/53 95/126/53
f 95/128/54 97/500/54 96/129/54
f 97/131/55 99/501/55 98/132/55
f 99/134/56 101/502/56 100/135/56
f 101/137/57 103/503/57 102/138/57
f 103/140/58 105/504/58 104/141/58
f 105/143/59 107/505/59 106/144/59
f 106/146/60 107/506/60 109/147/60
f 109/149/61 111/507/61 110/150/61
f 111/152/62 113/508/62 112/153/62
f 57/509/3 55/510/3 83/511/3
f 55/510/3 53/512/3 85/513/3
f 53/512/3 115/514/3 87/515/3
f 115/514/3 113/516/3 89/517/3
f 113/516/3 111/518/3 89/517/3
f 111/518/3 109/519/3 91/520/3
f 89/517/3 111/518/3 91/520/3
f 109/519/3 107/521/3 93/522/3
f 107/521/3 105/523/3 95/524/3
f 93/522/3 107/521/3 95/524/3
f 105/523/3 103/525/3 99/526/3
f 103/525/3 101/527/3 99/526/3
f 99/526/3 97/528/3 105/523/3
f 97/528/3 95/524/3 105/523/3
f 93/522/3 91/520/3 109/519/3
f 89/517/3 87/515/3 115/514/3
f 87/515/3 85/513/3 53/512/3
f 85/513/3 83/511/3 55/510/3
f 83/511/3 81/529/3 57/509/3
f 81/529/3 79/530/3 57/509/3
f 79/530/3 77/157/3 59/156/3
f 57/509/3 79/530/3 59/156/3
f 77/157/3 75/531/3 61/155/3
f 75/531/3 73/532/3 63/533/3
f 61/155/3 75/531/3 63/533/3
f 73/532/3 71/534/3 67/535/3
f 71/534/3 69/536/3 67/535/3
f 67/535/3 65/537/3 73/532/3
f 65/537/3 63/533/3 73/532/3
f 113/158/63 115/538/63 114/159/63
f 115/161/64 53/539/64 52/162/64
f 114/540/8 52/541/8 84/542/8
f 52/541/8 54/543/8 82/544/8
f 54/543/8 56/545/8 82/544/8
f 56/545/8 58/546/8 80/547/8
f 82/544/8 56/545/8 80/547/8
f 58/546/8 60/548/8 76/549/8
f 60/548/8 62/550/8 74/551/8
f 62/550/8 64/552/8 74/551/8
f 64/552/8 66/553/8 72/554/8
f 74/551/8 64/552/8 72/554/8
f 66/553/8 68/555/8 70/556/8
f 70/556/8 72/554/8 66/553/8
f 74/551/8 76/549/8 60/548/8
f 76/549/8 78/557/8 58/546/8
f 78/557/8 80/547/8 58/546/8
f 82/544/8 84/542/8 52/541/8
f 84/542/8 86/558/8 114/540/8
f 86/558/8 88/559/8 114/540/8
f 88/559/8 90/166/8 112/165/8
f 114/540/8 88/559/8 112/165/8
f 90/166/8 92/560/8 108/561/8
f 92/560/8 94/562/8 106/563/8
f 94/562/8 96/564/8 106/563/8
f 96/564/8 98/565/8 104/566/8
f 106/563/8 96/564/8 104/566/8
f 98/565/8 100/567/8 102/568/8
f 102/568/8 104/566/8 98/565/8
f 106/563/8 108/561/8 92/560/8
f 108/561/8 110/164/8 90/166/8
f 117/167/33 119/569/33 118/168/33
f 119/170/34 121/570/34 120/171/34
f 121/173/35 123/571/35 122/174/35
f 123/176/36 125/572/36 124/177/36
f 125/179/37 127/573/37 126/180/37
f 127/182/38 129/574/38 128/183/38
f 129/185/39 131/575/39 130/186/39
f 131/188/40 133/576/40 132/189/40
f 133/191/41 135/577/41 134/192/41
f 135/194/42 137/578/42 136/195/42
f 137/197/43 139/579/43 138/198/43
f 139/200/44 141/580/44 140/201/44
f 141/203/45 143/581/45 142/204/45
f 143/206/46 145/582/46 144/207/46
f 145/209/47 147/583/47 146/210/47
f 147/212/48 149/584/48 148/213/48
f 149/215/49 151/585/49 150/216/49
f 151/218/50 153/586/50 152/219/50
f 153/221/51 155/587/51 154/222/51
f 155/224/52 157/588/52 156/225/52
f 156/227/53 157/589/53 159/228/53
f 159/230/54 161/590/54 160/231/54
f 161/233/55 163/591/55 162/234/55
f 163/236/56 165/592/56 164/237/56
f 165/239/57 167/593/57 166/240/57
f 167/242/58 169/594/58 168/243/58
f 169/245/59 171/595/59 170/246/59
f 170/248/60 171/596/60 173/249/60
f 173/251/61 175/597/61 174/252/61
f 175/254/62 177/598/62 176/255/62
f 121/599/3 119/600/3 147/601/3
f 119/600/3 117/602/3 149/603/3
f 117/602/3 179/604/3 151/605/3
f 179/604/3 177/606/3 153/607/3
f 177/606/3 175/608/3 153/607/3
f 175/608/3 173/609/3 155/610/3
f 153/607/3 175/608/3 155/610/3
f 173/609/3 171/611/3 157/612/3
f 171/611/3 169/613/3 159/614/3
f 157/612/3 171/611/3 159/614/3
f 169/613/3 167/615/3 161/616/3
f 167/615/3 165/617/3 163/618/3
f 161/616/3 167/615/3 163/618/3
f 161/616/3 159/614/3 169/613/3
f 157/612/3 155/610/3 173/609/3
f 153/607/3 151/605/3 179/604/3
f 151/605/3 149/603/3 117/602/3
f 149/603/3 147/601/3 119/600/3
f 147/601/3 145/619/3 121/599/3
f 145/619/3 143/620/3 121/599/3
f 143/620/3 141/259/3 123/258/3
f 121/599/3 143/620/3 123/258/3
f 141/259/3 139/621/3 125/257/3
f 139/621/3 137/622/3 127/623/3
f 125/257/3 139/621/3 127/623/3
f 137/622/3 135/624/3 129/625/3
f 135/624/3 133/626/3 131/627/3
f 129/625/3 135/624/3 131/627/3
f 129/625/3 127/623/3 137/622/3
f 177/260/63 179/628/63 178/261/63
f 179/263/64 117/629/64 116/264/64
f 178/630/8 116/631/8 148/632/8
f 116/631/8 118/633/8 146/634/8
f 118/633/8 120/635/8 146/634/8
f 120/635/8 122/636/8 144/637/8
f 146/634/8 120/635/8 144/637/8
f 122/636/8 124/638/8 140/639/8
f 124/638/8 126/640/8 138/641/8
f 126/640/8 128/642/8 138/641/8
f 128/642/8 130/643/8 136/644/8
f 138/641/8 128/642/8 136/644/8
f 130/643/8 132/645/8 134/646/8
f 134/646/8 136/644/8 130/643/8
f 138/641/8 140/639/8 124/638/8
f 140/639/8 142/647/8 122/636/8
f 142/647/8 144/637/8 122/636/8
f 146/634/8 148/632/8 116/631/8
f 148/632/8 150/648/8 178/630/8
f 150/648/8 152/649/8 178/630/8
f 152/649/8 154/268/8 176/267/8
f 178/630/8 152/649/8 176/267/8
f 154/268/8 156/650/8 172/651/8
f 156/650/8 158/652/8 170/653/8
f 158/652/8 160/654/8 170/653/8
f 160/654/8 162/655/8 168/656/8
f 170/653/8 160/654/8 168/656/8
f 162/655/8 164/657/8 166/658/8
f 166/658/8 168/656/8 162/655/8
f 170/653/8 172/651/8 156/650/8
f 172/651/8 174/266/8 154/268/8
f 181/269/33 183/659/33 182/270/33
f 183/272/34 185/660/34 184/273/34
f 185/275/35 187/661/35 186/276/35
f 187/278/36 189/662/36 188/279/36
f 189/281/37 191/663/37 190/282/37
f 191/284/38 193/664/38 192/285/38
f 193/287/39 195/665/39 194/288/39
f 195/290/40 197/666/40 196/291/40
f 197/293/41 199/667/41 198/294/41
f 199/296/42 201/668/42 200/297/42
f 201/299/43 203/669/43 202/300/43
f 203/302/44 205/670/44 204/303/44
f 205/305/45 207/671/45 206/306/45
f 207/308/46 209/672/46 208/309/46
f 209/311/47 211/673/47 210/312/47
f 211/314/48 213/674/48 212/315/48
f 213/317/49 215/675/49 214/318/49
f 215/320/50 217/676/50 216/321/50
f 217/323/51 219/677/51 218/324/51
f 219/326/52 221/678/52 220/327/52
f 220/329/53 221/679/53 223/330/53
f 223/332/54 225/680/54 224/333/54
f 224/335/55 225/681/55 227/336/55
f 227/338/56 229/682/56 228/339/56
f 229/341/57 231/683/57 230/342/57
f 230/344/58 231/684/58 233/345/58
f 233/347/59 235/685/59 234/348/59
f 234/350/60 235/686/60 237/351/60
f 237/353/61 239/687/61 238/354/61
f 239/356/62 241/688/62 240/357/62
f 185/689/3 183/690/3 211/691/3
f 183/690/3 181/692/3 213/693/3
f 181/692/3 243/694/3 215/695/3
f 243/694/3 241/696/3 217/697/3
f 241/696/3 239/698/3 217/697/3
f 239/698/3 237/699/3 219/700/3
f 217/697/3 239/698/3 219/700/3
f 237/699/3 235/701/3 221/702/3
f 235/701/3 233/703/3 223/704/3
f 221/702/3 235/701/3 223/704/3
f 233/703/3 231/705/3 227/706/3
f 231/705/3 229/707/3 227/706/3
f 227/706/3 225/708/3 233/703/3
f 225/708/3 223/704/3 233/703/3
f 221/702/3 219/700/3 237/699/3
f 217/697/3 215/695/3 243/694/3
f 215/695/3 213/693/3 181/692/3
f 213/693/3 211/691/3 183/690/3
f 211/691/3 209/709/3 185/689/3
f 209/709/3 207/710/3 185/689/3
f 207/710/3 205/361/3 187/360/3
f 185/689/3 207/710/3 187/360/3
f 205/361/3 203/711/3 189/359/3
f 203/711/3 201/712/3 191/713/3
f 189/359/3 203/711/3 191/713/3
f 201/712/3 199/714/3 193/715/3
f 199/714/3 197/716/3 195/717/3
f 193/715/3 199/714/3 195/717/3
f 193/715/3 191/713/3 201/712/3
f 241/362/63 243/718/63 242/363/63
f 243/365/64 181/719/64 180/366/64
f 242/720/8 180/721/8 212/722/8
f 180/721/8 182/723/8 210/724/8
f 182/723/8 184/725/8 210/724/8
f 184/725/8 186/726/8 208/727/8
f 210/724/8 184/725/8 208/727/8
f 186/726/8 188/728/8 204/729/8
f 188/728/8 190/730/8 202/731/8
f 190/730/8 192/732/8 202/731/8
f 192/732/8 194/733/8 200/734/8
f 202/731/8 192/732/8 200/734/8
f 194/733/8 196/735/8 198/736/8
f 198/736/8 200/734/8 194/733/8
f 202/731/8 204/729/8 188/728/8
f 204/729/8 206/737/8 186/726/8
f 206/737/8 208/727/8 186/726/8
f 210/724/8 212/722/8 180/721/8
f 212/722/8 214/738/8 242/720/8
f 214/738/8 216/739/8 242/720/8
f 216/739/8 218/370/8 240/369/8
f 242/720/8 216/739/8 240/369/8
f 218/370/8 220/740/8 236/741/8
f 220/740/8 222/742/8 234/743/8
f 222/742/8 224/744/8 234/743/8
f 224/744/8 226/745/8 232/746/8
f 234/743/8 224/744/8 232/746/8
f 226/745/8 228/747/8 230/748/8
f 230/748/8 232/746/8 226/745/8
f 234/743/8 236/741/8 220/740/8
f 236/741/8 238/368/8 218/370/8
f 245/371/33 247/749/33 246/372/33
f 247/374/34 249/750/34 248/375/34
f 249/377/35 251/751/35 250/378/35
f 251/380/36 253/752/36 252/381/36
f 253/383/37 255/753/37 254/384/37
f 255/386/38 257/754/38 256/387/38
f 257/389/39 259/755/39 258/390/39
f 259/392/40 261/756/40 260/393/40
f 261/395/41 263/757/41 262/396/41
f 263/398/42 265/758/42 264/399/42
f 265/401/43 267/759/43 266/402/43
f 267/404/44 269/760/44 268/405/44
f 269/407/45 271/761/45 270/408/45
f 271/410/46 273/762/46 272/411/46
f 273/413/47 275/763/47 274/414/47
f 275/416/48 277/764/48 276/417/48
f 277/419/49 279/765/49 278/420/49
f 279/422/50 281/766/50 280/423/50
f 281/425/51 283/767/51 282/426/51
f 283/428/52 285/768/52 284/429/52
f 284/431/53 285/769/53 287/432/53
f 287/434/54 289/770/54 288/435/54
f 288/437/55 289/771/55 291/438/55
f 291/440/56 293/772/56 292/441/56
f 293/443/57 295/773/57 294/444/57
f 294/446/58 295/774/58 297/447/58
f 297/449/59 299/775/59 298/450/59
f 298/452/60 299/776/60 301/453/60
f 301/455/61 303/777/61 302/456/61
f 303/458/62 305/778/62 304/459/62
f 249/779/3 247/780/3 275/781/3
f 247/780/3 245/782/3 277/783/3
f 245/782/3 307/784/3 279/785/3
f 307/784/3 305/786/3 281/787/3
f 305/786/3 303/788/3 281/787/3
f 303/788/3 301/789/3 283/790/3
f 281/787/3 303/788/3 283/790/3
f 301/789/3 299/791/3 285/792/3
f 299/791/3 297/793/3 287/794/3
f 285/792/3 299/791/3 287/794/3
f 297/793/3 295/795/3 291/796/3
f 295/795/3 293/797/3 291/796/3
f 291/796/3 289/798/3 297/793/3
f 289/798/3 287/794/3 297/793/3
f 285/792/3 283/790/3 301/789/3
f 281/787/3 279/785/3 307/784/3
f 279/785/3 277/783/3 245/782/3
f 277/783/3 275/781/3 247/780/3
f 275/781/3 273/799/3 249/779/3
f 273/799/3 271/800/3 249/779/3
f 271/800/3 269/463/3 251/462/3
f 249/779/3 271/800/3 251/462/3
f 269/463/3 267/801/3 253/461/3
f 267/801/3 265/802/3 255/803/3
f 253/461/3 267/801/3 255/803/3
f 265/802/3 263/804/3 257/805/3
f 263/804/3 261/806/3 259/807/3
f 257/805/3 263/804/3 259/807/3
f 257/805/3 255/803/3 265/802/3
f 305/464/63 307/808/63 306/465/63
f 307/467/64 245/809/64 244/468/64
f 306/810/8 244/811/8 276/812/8
f 244/811/8 246/813/8 274/814/8
f 246/813/8 248/815/8 274/814/8
f 248/815/8 250/816/8 272/817/8
f 274/814/8 248/815/8 272/817/8
f 250/816/8 252/818/8 268/819/8
f 252/818/8 254/820/8 266/821/8
f 254/820/8 256/822/8 266/821/8
f 256/822/8 258/823/8 264/824/8
f 266/821/8 256/822/8 264/824/8
f 258/823/8 260/825/8 262/826/8
f 262/826/8 264/824/8 258/823/8
f 266/821/8 268/819/8 252/818/8
f 268/819/8 270/827/8 250/816/8
f 270/827/8 272/817/8 250/816/8
f 274/814/8 276/812/8 244/811/8
f 276/812/8 278/828/8 306/810/8
f 278/828/8 280/829/8 306/810/8
f 280/829/8 282/472/8 304/471/8
f 306/810/8 280/829/8 304/471/8
f 282/472/8 284/830/8 300/831/8
f 284/830/8 286/832/8 298/833/8
f 286/832/8 288/834/8 298/833/8
f 288/834/8 290/835/8 296/836/8
f 298/833/8 288/834/8 296/836/8
f 290/835/8 292/837/8 294/838/8
f 294/838/8 296/836/8 290/835/8
f 298/833/8 300/831/8 284/830/8
f 300/831/8 302/470/8 282/472/8
f 28/21/77 8/40/77 22/19/77
f 8/40/17 7/39/17 22/19/17
l 3 27
