# Blender 4.4.0
# www.blender.org
mtllib moon.mtl
o 球
v 75.911690 114.091942 356.556152
v 75.911690 104.124573 346.588776
v 75.911690 91.101593 341.194458
v 75.911690 84.053596 340.500336
v 75.911690 77.005600 341.194458
v 75.911690 63.982613 346.588776
v 77.286697 119.486237 369.714569
v 78.608841 117.430412 363.067627
v 79.827362 114.091942 356.941772
v 80.895378 109.599098 351.572449
v 81.771896 104.124573 347.165955
v 82.423195 97.878731 343.891632
v 82.824257 91.101593 341.875336
v 82.959694 84.053596 341.194458
v 82.824257 77.005600 341.875336
v 82.423195 70.228462 343.891632
v 81.771896 63.982613 347.165955
v 80.895378 58.508080 351.572449
v 79.827362 54.015251 356.941772
v 78.608841 50.676777 363.067627
v 77.286697 48.620949 369.714569
v 78.608841 119.486237 370.115631
v 81.202347 117.430412 363.854370
v 83.592529 114.091942 358.083954
v 85.687546 109.599098 353.026154
v 87.406868 104.124573 348.875305
v 88.684456 97.878731 345.790955
v 89.471184 91.101593 343.891632
v 89.736832 84.053596 343.250305
v 89.471184 77.005600 343.891632
v 88.684456 70.228462 345.790955
v 87.406868 63.982613 348.875305
v 85.687546 58.508080 353.026154
v 83.592529 54.015251 358.083954
v 81.202347 50.676777 363.854370
v 78.608841 48.620949 370.115631
v 79.827362 119.486237 370.766937
v 83.592529 117.430412 365.131958
v 87.062538 114.091942 359.938721
v 90.104034 109.599098 355.386810
v 92.600105 104.124573 351.651154
v 94.454857 97.878731 348.875305
v 95.597023 91.101593 347.165955
v 95.982681 84.053596 346.588776
v 95.597023 77.005600 347.165955
v 94.454857 70.228462 348.875305
v 92.600105 63.982613 351.651154
v 90.104034 58.508080 355.386810
v 87.062538 54.015251 359.938721
v 83.592529 50.676777 365.131958
v 79.827362 48.620949 370.766937
v 80.895378 119.486237 371.643433
v 85.687546 117.430412 366.851257
v 90.104034 114.091942 362.434814
v 93.975098 109.599098 358.563721
v 97.152008 104.124573 355.386810
v 99.512665 97.878731 353.026154
v 100.966354 91.101593 351.572449
v 101.457214 84.053596 351.081604
v 100.966354 77.005600 351.572449
v 99.512665 70.228462 353.026154
v 97.152008 63.982613 355.386810
v 93.975098 58.508080 358.563721
v 90.104034 54.015251 362.434814
v 85.687546 50.676777 366.851257
v 80.895378 48.620949 371.643433
v 81.771896 119.486237 372.711487
v 87.406883 117.430412 368.946320
v 92.600105 114.091942 365.476318
v 97.152023 109.599098 362.434814
v 100.887665 104.124573 359.938721
v 103.663513 97.878731 358.083954
v 105.372864 91.101593 356.941803
v 105.950035 84.053596 356.556152
v 105.372864 77.005600 356.941803
v 103.663513 70.228462 358.083954
v 100.887665 63.982613 359.938721
v 97.152023 58.508080 362.434814
v 92.600105 54.015251 365.476318
v 87.406883 50.676777 368.946320
v 81.771896 48.620949 372.711487
v 75.911690 120.180405 376.627136
v 82.423195 119.486237 373.929993
v 88.684456 117.430412 371.336487
v 94.454857 114.091942 368.946320
v 99.512680 109.599098 366.851257
v 103.663513 104.124573 365.131958
v 106.747856 97.878731 363.854370
v 108.647202 91.101593 363.067627
v 109.288521 84.053596 362.802002
v 108.647202 77.005600 363.067627
v 106.747856 70.228462 363.854370
v 103.663513 63.982613 365.131958
v 99.512680 58.508080 366.851257
v 94.454857 54.015251 368.946320
v 88.684456 50.676777 371.336487
v 82.423195 48.620949 373.929993
v 82.824257 119.486237 375.252136
v 89.471184 117.430412 373.929993
v 95.597023 114.091942 372.711487
v 100.966354 109.599098 371.643433
v 105.372864 104.124573 370.766937
v 108.647202 97.878731 370.115631
v 110.663513 91.101593 369.714569
v 111.344337 84.053596 369.579132
v 110.663513 77.005600 369.714569
v 108.647202 70.228462 370.115631
v 105.372864 63.982613 370.766937
v 100.966354 58.508080 371.643433
v 95.597023 54.015251 372.711487
v 89.471184 50.676777 373.929993
v 82.824257 48.620949 375.252136
v 82.959694 119.486237 376.627136
v 89.736832 117.430412 376.627136
v 95.982681 114.091942 376.627136
v 101.457214 109.599098 376.627136
v 105.950035 104.124573 376.627136
v 109.288521 97.878731 376.627136
v 111.344337 91.101593 376.627136
v 112.038498 84.053596 376.627136
v 111.344337 77.005600 376.627136
v 109.288521 70.228462 376.627136
v 105.950035 63.982613 376.627136
v 101.457214 58.508080 376.627136
v 95.982681 54.015251 376.627136
v 89.736832 50.676777 376.627136
v 82.959694 48.620949 376.627136
v 82.824257 119.486237 378.002136
v 89.471184 117.430412 379.324280
v 95.597023 114.091942 380.542755
v 100.966354 109.599098 381.610809
v 105.372864 104.124573 382.487305
v 108.647202 97.878731 383.138611
v 110.663513 91.101593 383.539703
v 111.344330 84.053596 383.675110
v 110.663513 77.005600 383.539703
v 108.647202 70.228462 383.138611
v 105.372864 63.982613 382.487305
v 100.966354 58.508080 381.610809
v 95.597023 54.015251 380.542755
v 89.471184 50.676777 379.324280
v 82.824257 48.620949 378.002136
v 82.423195 119.486237 379.324280
v 88.684456 117.430412 381.917786
v 94.454857 114.091942 384.307983
v 99.512665 109.599098 386.402954
v 103.663513 104.124573 388.122314
v 106.747856 97.878731 389.399902
v 108.647202 91.101593 390.186615
v 109.288513 84.053596 390.452240
v 108.647202 77.005600 390.186615
v 106.747856 70.228462 389.399902
v 103.663513 63.982613 388.122314
v 99.512665 58.508080 386.402954
v 94.454857 54.015251 384.307983
v 88.684456 50.676777 381.917786
v 82.423195 48.620949 379.324280
v 81.771896 119.486237 380.542755
v 87.406868 117.430412 384.307983
v 92.600105 114.091942 387.777954
v 97.152008 109.599098 390.819458
v 100.887665 104.124573 393.315582
v 103.663513 97.878731 395.170288
v 105.372864 91.101593 396.312439
v 105.950027 84.053596 396.698059
v 105.372864 77.005600 396.312439
v 103.663513 70.228462 395.170288
v 100.887665 63.982613 393.315582
v 97.152008 58.508080 390.819458
v 92.600105 54.015251 387.777954
v 87.406868 50.676777 384.307983
v 81.771896 48.620949 380.542755
v 80.895378 119.486237 381.610809
v 85.687546 117.430412 386.402954
v 90.104019 114.091942 390.819458
v 93.975098 109.599098 394.690521
v 97.152000 104.124573 397.867432
v 99.512665 97.878731 400.228058
v 100.966347 91.101593 401.681793
v 101.457199 84.053596 402.172607
v 100.966347 77.005600 401.681793
v 99.512665 70.228462 400.228058
v 97.152000 63.982613 397.867432
v 93.975098 58.508080 394.690521
v 90.104019 54.015251 390.819458
v 85.687546 50.676777 386.402954
v 80.895378 48.620949 381.610809
v 79.827347 119.486237 382.487305
v 83.592529 117.430412 388.122314
v 87.062531 114.091942 393.315582
v 90.104034 109.599098 397.867432
v 92.600105 104.124573 401.603058
v 94.454857 97.878731 404.378937
v 95.597015 91.101593 406.088257
v 95.982658 84.053596 406.665466
v 95.597015 77.005600 406.088257
v 94.454857 70.228462 404.378937
v 92.600105 63.982613 401.603058
v 90.104034 58.508080 397.867432
v 87.062531 54.015251 393.315582
v 83.592529 50.676777 388.122314
v 79.827347 48.620949 382.487305
v 78.608841 119.486237 383.138611
v 81.202347 117.430412 389.399902
v 83.592522 114.091942 395.170288
v 85.687546 109.599098 400.228058
v 87.406868 104.124573 404.378937
v 88.684456 97.878731 407.463287
v 89.471184 91.101593 409.362610
v 89.736809 84.053596 410.003937
v 89.471184 77.005600 409.362610
v 88.684456 70.228462 407.463287
v 87.406868 63.982613 404.378937
v 85.687546 58.508080 400.228058
v 83.592522 54.015251 395.170288
v 81.202347 50.676777 389.399902
v 78.608841 48.620949 383.138611
v 77.286697 119.486237 383.539703
v 78.608841 117.430412 390.186615
v 79.827339 114.091942 396.312439
v 80.895378 109.599098 401.681793
v 81.771889 104.124573 406.088257
v 82.423195 97.878731 409.362610
v 82.824257 91.101593 411.378937
v 82.959671 84.053596 412.059753
v 82.824257 77.005600 411.378937
v 82.423195 70.228462 409.362610
v 81.771889 63.982613 406.088257
v 80.895378 58.508080 401.681793
v 79.827339 54.015251 396.312439
v 78.608841 50.676777 390.186615
v 77.286697 48.620949 383.539703
v 75.911690 119.486237 383.675110
v 75.911690 117.430412 390.452240
v 75.911690 114.091942 396.698059
v 75.911690 109.599098 402.172607
v 75.911690 104.124573 406.665466
v 75.911690 97.878731 410.003937
v 75.911690 91.101593 412.059753
v 75.911682 84.053596 412.753876
v 75.911690 77.005600 412.059753
v 75.911690 70.228462 410.003937
v 75.911690 63.982613 406.665466
v 75.911690 58.508080 402.172607
v 75.911690 54.015251 396.698059
v 75.911690 50.676777 390.452240
v 75.911690 48.620949 383.675110
v 74.536705 119.486237 383.539703
v 73.214546 117.430412 390.186615
v 71.996048 114.091942 396.312439
v 70.928017 109.599098 401.681793
v 70.051498 104.124573 406.088257
v 69.400215 97.878731 409.362610
v 68.999130 91.101593 411.378937
v 68.863693 84.053596 412.059753
v 68.999130 77.005600 411.378937
v 69.400215 70.228462 409.362610
v 70.051498 63.982613 406.088257
v 70.928017 58.508080 401.681793
v 71.996048 54.015251 396.312439
v 73.214546 50.676777 390.186615
v 74.536705 48.620949 383.539703
v 73.214554 119.486237 383.138611
v 70.621048 117.430412 389.399902
v 68.230865 114.091942 395.170288
v 66.135849 109.599098 400.228058
v 64.416527 104.124573 404.378937
v 63.138947 97.878731 407.463287
v 62.352215 91.101593 409.362579
v 62.086567 84.053596 410.003937
v 62.352215 77.005600 409.362579
v 63.138947 70.228462 407.463287
v 64.416527 63.982613 404.378937
v 66.135849 58.508080 400.228058
v 68.230865 54.015251 395.170288
v 70.621048 50.676777 389.399902
v 73.214554 48.620949 383.138611
v 71.996048 119.486237 382.487305
v 68.230865 117.430412 388.122314
v 64.760864 114.091942 393.315521
v 61.719376 109.599098 397.867432
v 59.223297 104.124573 401.603058
v 57.368538 97.878731 404.378937
v 56.226383 91.101593 406.088257
v 55.840725 84.053596 406.665436
v 56.226383 77.005600 406.088257
v 57.368538 70.228462 404.378937
v 59.223297 63.982613 401.603058
v 61.719376 58.508080 397.867432
v 64.760864 54.015251 393.315521
v 68.230865 50.676777 388.122314
v 71.996048 48.620949 382.487305
v 70.928017 119.486237 381.610809
v 66.135849 117.430412 386.402954
v 61.719376 114.091942 390.819458
v 57.848293 109.599098 394.690521
v 54.671387 104.124573 397.867401
v 52.310726 97.878731 400.228058
v 50.857037 91.101593 401.681793
v 50.366199 84.053596 402.172577
v 50.857037 77.005600 401.681793
v 52.310726 70.228462 400.228058
v 54.671387 63.982613 397.867401
v 57.848293 58.508080 394.690521
v 61.719376 54.015251 390.819458
v 66.135849 50.676777 386.402954
v 70.928017 48.620949 381.610809
v 75.911690 47.926781 376.627136
v 70.051506 119.486237 380.542755
v 64.416527 117.430412 384.307953
v 59.223297 114.091942 387.777954
v 54.671387 109.599098 390.819458
v 50.935741 104.124573 393.315521
v 48.159897 97.878731 395.170288
v 46.450542 91.101593 396.312439
v 45.873379 84.053596 396.698059
v 46.450542 77.005600 396.312439
v 48.159897 70.228462 395.170288
v 50.935741 63.982613 393.315521
v 54.671387 58.508080 390.819458
v 59.223297 54.015251 387.777954
v 64.416527 50.676777 384.307953
v 70.051506 48.620949 380.542755
v 69.400215 119.486237 379.324280
v 63.138947 117.430412 381.917786
v 57.368546 114.091942 384.307953
v 52.310726 109.599098 386.402954
v 48.159897 104.124573 388.122253
v 45.075546 97.878731 389.399902
v 43.176212 91.101593 390.186615
v 42.534904 84.053596 390.452209
v 43.176212 77.005600 390.186615
v 45.075546 70.228462 389.399902
v 48.159897 63.982613 388.122253
v 52.310726 58.508080 386.402954
v 57.368546 54.015251 384.307953
v 63.138947 50.676777 381.917786
v 69.400215 48.620949 379.324280
v 68.999138 119.486237 378.002136
v 62.352215 117.430412 379.324280
v 56.226395 114.091942 380.542755
v 50.857037 109.599098 381.610809
v 46.450542 104.124573 382.487305
v 43.176212 97.878731 383.138611
v 41.159912 91.101593 383.539703
v 40.479088 84.053596 383.675079
v 41.159912 77.005600 383.539703
v 43.176212 70.228462 383.138611
v 46.450542 63.982613 382.487305
v 50.857037 58.508080 381.610809
v 56.226395 54.015251 380.542755
v 62.352215 50.676777 379.324280
v 68.999138 48.620949 378.002136
v 68.863716 119.486237 376.627136
v 62.086578 117.430412 376.627136
v 55.840736 114.091942 376.627136
v 50.366199 109.599098 376.627136
v 45.873367 104.124573 376.627136
v 42.534897 97.878731 376.627136
v 40.479076 91.101593 376.627075
v 39.784924 84.053596 376.627075
v 40.479076 77.005600 376.627075
v 42.534897 70.228462 376.627136
v 45.873367 63.982613 376.627136
v 50.366199 58.508080 376.627136
v 55.840736 54.015251 376.627136
v 62.086578 50.676777 376.627136
v 68.863716 48.620949 376.627136
v 68.999138 119.486237 375.252136
v 62.352226 117.430412 373.929993
v 56.226395 114.091942 372.711487
v 50.857048 109.599098 371.643433
v 46.450562 104.124573 370.766937
v 43.176220 97.878731 370.115631
v 41.159912 91.101593 369.714569
v 40.479088 84.053596 369.579132
v 41.159912 77.005600 369.714569
v 43.176220 70.228462 370.115631
v 46.450562 63.982613 370.766937
v 50.857048 58.508080 371.643433
v 56.226395 54.015251 372.711487
v 62.352226 50.676777 373.929993
v 68.999138 48.620949 375.252136
v 69.400215 119.486237 373.929993
v 63.138947 117.430412 371.336487
v 57.368546 114.091942 368.946320
v 52.310726 109.599098 366.851257
v 48.159916 104.124573 365.131958
v 45.075558 97.878731 363.854401
v 43.176228 91.101593 363.067627
v 42.534916 84.053596 362.802002
v 43.176228 77.005600 363.067627
v 45.075558 70.228462 363.854401
v 48.159916 63.982613 365.131958
v 52.310726 58.508080 366.851257
v 57.368546 54.015251 368.946320
v 63.138947 50.676777 371.336487
v 69.400215 48.620949 373.929993
v 70.051506 119.486237 372.711487
v 64.416534 117.430412 368.946320
v 59.223309 114.091942 365.476318
v 54.671387 109.599098 362.434814
v 50.935741 104.124573 359.938721
v 48.159897 97.878731 358.083954
v 46.450562 91.101593 356.941803
v 45.873398 84.053596 356.556152
v 46.450562 77.005600 356.941803
v 48.159897 70.228462 358.083954
v 50.935741 63.982613 359.938721
v 54.671387 58.508080 362.434814
v 59.223309 54.015251 365.476318
v 64.416534 50.676777 368.946320
v 70.051506 48.620949 372.711487
v 70.928024 119.486237 371.643433
v 66.135864 117.430412 366.851257
v 61.719395 114.091942 362.434814
v 57.848305 109.599098 358.563721
v 54.671406 104.124573 355.386810
v 52.310726 97.878731 353.026184
v 50.857048 91.101593 351.572449
v 50.366230 84.053596 351.081635
v 50.857048 77.005600 351.572449
v 52.310726 70.228462 353.026184
v 54.671406 63.982613 355.386810
v 57.848305 58.508080 358.563721
v 61.719395 54.015251 362.434814
v 66.135864 50.676777 366.851257
v 70.928024 48.620949 371.643433
v 71.996048 119.486237 370.766937
v 68.230873 117.430412 365.131958
v 64.760880 114.091942 359.938721
v 61.719376 109.599098 355.386810
v 59.223309 104.124573 351.651184
v 57.368538 97.878731 348.875305
v 56.226395 91.101593 347.165955
v 55.840755 84.053596 346.588776
v 56.226395 77.005600 347.165955
v 57.368538 70.228462 348.875305
v 59.223309 63.982613 351.651184
v 61.719376 58.508080 355.386810
v 64.760880 54.015251 359.938721
v 68.230873 50.676777 365.131958
v 71.996048 48.620949 370.766937
v 73.214554 119.486237 370.115631
v 70.621048 117.430412 363.854401
v 68.230881 114.091942 358.083954
v 66.135864 109.599098 353.026154
v 64.416534 104.124573 348.875305
v 63.138947 97.878731 345.791016
v 62.352226 91.101593 343.891632
v 62.086597 84.053596 343.250366
v 62.352226 77.005600 343.891632
v 63.138947 70.228462 345.791016
v 64.416534 63.982613 348.875305
v 66.135864 58.508080 353.026154
v 68.230881 54.015251 358.083954
v 70.621048 50.676777 363.854401
v 73.214554 48.620949 370.115631
v 74.536705 119.486237 369.714569
v 73.214554 117.430412 363.067627
v 71.996063 114.091942 356.941803
v 70.928024 109.599098 351.572449
v 70.051521 104.124573 347.165985
v 69.400215 97.878731 343.891632
v 68.999153 91.101593 341.875336
v 68.863731 84.053596 341.194550
v 68.999153 77.005600 341.875336
v 69.400215 70.228462 343.891632
v 70.051521 63.982613 347.165985
v 70.928024 58.508080 351.572449
v 71.996063 54.015251 356.941803
v 73.214554 50.676777 363.067627
v 74.536705 48.620949 369.714569
v 75.911690 119.486237 369.579132
v 75.911705 117.430412 362.802002
v 75.911705 109.599098 351.081604
v 75.911690 97.878731 343.250305
v 75.911690 70.228462 343.250305
v 75.911705 58.508080 351.081604
v 75.911713 54.015251 356.556183
v 75.911705 50.676777 362.802002
v 75.911690 48.620949 369.579132
vn 0.0464 -0.8810 -0.4709
vn 0.0938 0.2890 -0.9527
vn 0.0286 -0.9565 -0.2902
vn 0.0975 0.0976 -0.9904
vn 0.0097 0.9951 -0.0980
vn 0.0097 -0.9951 -0.0980
vn 0.0976 -0.0976 -0.9904
vn 0.0286 0.9565 -0.2902
vn 0.0938 -0.2890 -0.9527
vn 0.0464 0.8810 -0.4709
vn 0.0865 -0.4696 -0.8786
vn 0.0624 0.7715 -0.6332
vn 0.0759 -0.6326 -0.7708
vn 0.0759 0.6326 -0.7708
vn 0.0624 -0.7715 -0.6332
vn 0.0865 0.4696 -0.8786
vn 0.2248 0.6326 -0.7412
vn 0.1847 -0.7715 -0.6088
vn 0.2563 0.4696 -0.8449
vn 0.1374 -0.8810 -0.4528
vn 0.2779 0.2890 -0.9161
vn 0.0846 -0.9566 -0.2790
vn 0.2889 0.0976 -0.9524
vn 0.0286 0.9951 -0.0942
vn 0.0286 -0.9951 -0.0942
vn 0.2889 -0.0976 -0.9524
vn 0.0846 0.9565 -0.2790
vn 0.2779 -0.2890 -0.9161
vn 0.1374 0.8810 -0.4528
vn 0.2563 -0.4696 -0.8448
vn 0.1847 0.7715 -0.6088
vn 0.2248 -0.6326 -0.7412
vn 0.4691 -0.0975 -0.8777
vn 0.1374 0.9566 -0.2571
vn 0.4513 -0.2890 -0.8443
vn 0.2231 0.8810 -0.4173
vn 0.4162 -0.4696 -0.7786
vn 0.2999 0.7715 -0.5611
vn 0.3651 -0.6326 -0.6831
vn 0.3651 0.6326 -0.6831
vn 0.2999 -0.7715 -0.5611
vn 0.4162 0.4696 -0.7786
vn 0.2231 -0.8810 -0.4173
vn 0.4513 0.2890 -0.8443
vn 0.1375 -0.9565 -0.2571
vn 0.4691 0.0976 -0.8777
vn 0.0464 0.9951 -0.0869
vn 0.0464 -0.9951 -0.0869
vn 0.4036 -0.7715 -0.4918
vn 0.5601 0.4696 -0.6825
vn 0.3002 -0.8810 -0.3658
vn 0.6073 0.2890 -0.7400
vn 0.1850 -0.9565 -0.2254
vn 0.6314 0.0975 -0.7693
vn 0.0625 0.9951 -0.0761
vn 0.0625 -0.9951 -0.0761
vn 0.6314 -0.0975 -0.7693
vn 0.1850 0.9565 -0.2254
vn 0.6073 -0.2890 -0.7400
vn 0.3002 0.8810 -0.3658
vn 0.5601 -0.4696 -0.6825
vn 0.4036 0.7715 -0.4918
vn 0.4913 -0.6326 -0.5987
vn 0.4913 0.6326 -0.5987
vn 0.7400 -0.2890 -0.6073
vn 0.3658 0.8810 -0.3002
vn 0.6825 -0.4696 -0.5601
vn 0.4918 0.7715 -0.4036
vn 0.5987 -0.6326 -0.4913
vn 0.5987 0.6326 -0.4913
vn 0.4918 -0.7715 -0.4036
vn 0.6825 0.4696 -0.5601
vn 0.3658 -0.8810 -0.3002
vn 0.7400 0.2890 -0.6073
vn 0.2254 -0.9566 -0.1850
vn 0.7693 0.0976 -0.6314
vn 0.0761 0.9951 -0.0625
vn 0.0761 -0.9951 -0.0625
vn 0.7693 -0.0976 -0.6314
vn 0.2254 0.9566 -0.1850
vn 0.4173 -0.8810 -0.2231
vn 0.8443 0.2890 -0.4513
vn 0.2571 -0.9565 -0.1374
vn 0.8777 0.0976 -0.4691
vn 0.0869 0.9951 -0.0464
vn 0.0869 -0.9951 -0.0464
vn 0.8777 -0.0976 -0.4692
vn 0.2571 0.9565 -0.1374
vn 0.8443 -0.2890 -0.4513
vn 0.4173 0.8810 -0.2230
vn 0.7786 -0.4696 -0.4162
vn 0.5611 0.7715 -0.2999
vn 0.6831 -0.6326 -0.3651
vn 0.6831 0.6326 -0.3651
vn 0.5611 -0.7715 -0.2999
vn 0.7786 0.4696 -0.4162
vn 0.4528 0.8810 -0.1374
vn 0.8449 -0.4696 -0.2563
vn 0.6088 0.7715 -0.1847
vn 0.7412 -0.6326 -0.2248
vn 0.7412 0.6326 -0.2248
vn 0.6088 -0.7715 -0.1847
vn 0.8448 0.4696 -0.2563
vn 0.4528 -0.8810 -0.1374
vn 0.9161 0.2890 -0.2779
vn 0.2790 -0.9565 -0.0846
vn 0.9524 0.0975 -0.2889
vn 0.0942 0.9951 -0.0286
vn 0.0942 -0.9951 -0.0286
vn 0.9524 -0.0975 -0.2889
vn 0.2790 0.9565 -0.0846
vn 0.9161 -0.2890 -0.2779
vn 0.9527 0.2890 -0.0938
vn 0.2902 -0.9566 -0.0286
vn 0.9904 0.0976 -0.0976
vn 0.0980 0.9951 -0.0097
vn 0.0980 -0.9951 -0.0097
vn 0.9904 -0.0975 -0.0976
vn 0.2902 0.9566 -0.0286
vn 0.9527 -0.2890 -0.0938
vn 0.4709 0.8810 -0.0464
vn 0.8786 -0.4696 -0.0865
vn 0.6332 0.7715 -0.0624
vn 0.7708 -0.6326 -0.0759
vn 0.7708 0.6326 -0.0759
vn 0.6332 -0.7715 -0.0624
vn 0.8786 0.4696 -0.0865
vn 0.4709 -0.8810 -0.0464
vn 0.8786 -0.4696 0.0865
vn 0.6332 0.7715 0.0624
vn 0.7708 -0.6326 0.0759
vn 0.7708 0.6326 0.0759
vn 0.6332 -0.7715 0.0624
vn 0.8786 0.4696 0.0865
vn 0.4709 -0.8810 0.0464
vn 0.9527 0.2890 0.0938
vn 0.2902 -0.9565 0.0286
vn 0.9904 0.0975 0.0976
vn 0.0980 0.9951 0.0097
vn 0.0980 -0.9951 0.0097
vn 0.9904 -0.0975 0.0976
vn 0.2902 0.9565 0.0286
vn 0.9527 -0.2890 0.0938
vn 0.4709 0.8810 0.0464
vn 0.2790 -0.9566 0.0846
vn 0.9524 0.0975 0.2889
vn 0.0942 0.9951 0.0286
vn 0.0942 -0.9951 0.0286
vn 0.9524 -0.0975 0.2889
vn 0.2790 0.9566 0.0846
vn 0.9161 -0.2890 0.2779
vn 0.4528 0.8810 0.1374
vn 0.8449 -0.4696 0.2563
vn 0.6088 0.7715 0.1847
vn 0.7412 -0.6326 0.2248
vn 0.7412 0.6326 0.2248
vn 0.6088 -0.7715 0.1847
vn 0.8449 0.4696 0.2563
vn 0.4528 -0.8810 0.1373
vn 0.9161 0.2890 0.2779
vn 0.5611 0.7715 0.2999
vn 0.6831 -0.6326 0.3651
vn 0.6831 0.6326 0.3651
vn 0.5611 -0.7715 0.2999
vn 0.7786 0.4696 0.4162
vn 0.4173 -0.8810 0.2231
vn 0.8443 0.2890 0.4513
vn 0.2571 -0.9565 0.1374
vn 0.8777 0.0975 0.4692
vn 0.0869 0.9951 0.0464
vn 0.0869 -0.9951 0.0464
vn 0.8777 -0.0976 0.4691
vn 0.2571 0.9565 0.1374
vn 0.8443 -0.2890 0.4513
vn 0.4173 0.8810 0.2231
vn 0.7786 -0.4696 0.4162
vn 0.7693 0.0975 0.6314
vn 0.0761 0.9951 0.0625
vn 0.0761 -0.9951 0.0625
vn 0.7693 -0.0976 0.6314
vn 0.2254 0.9566 0.1850
vn 0.7400 -0.2890 0.6073
vn 0.3658 0.8810 0.3002
vn 0.6825 -0.4696 0.5601
vn 0.4918 0.7715 0.4036
vn 0.5987 -0.6326 0.4913
vn 0.5987 0.6326 0.4913
vn 0.4918 -0.7715 0.4036
vn 0.6825 0.4696 0.5601
vn 0.3658 -0.8810 0.3002
vn 0.7400 0.2890 0.6073
vn 0.2254 -0.9565 0.1850
vn 0.4913 -0.6326 0.5987
vn 0.4913 0.6326 0.5987
vn 0.4036 -0.7715 0.4918
vn 0.5601 0.4696 0.6825
vn 0.3002 -0.8810 0.3658
vn 0.6073 0.2890 0.7400
vn 0.1850 -0.9565 0.2254
vn 0.6314 0.0976 0.7693
vn 0.0625 0.9951 0.0761
vn 0.0625 -0.9951 0.0761
vn 0.6314 -0.0975 0.7693
vn 0.1850 0.9565 0.2254
vn 0.6073 -0.2890 0.7400
vn 0.3002 0.8810 0.3658
vn 0.5601 -0.4696 0.6825
vn 0.4036 0.7715 0.4918
vn 0.0464 -0.9951 0.0869
vn 0.4692 -0.0976 0.8777
vn 0.1374 0.9565 0.2571
vn 0.4513 -0.2890 0.8443
vn 0.2230 0.8810 0.4173
vn 0.4162 -0.4696 0.7786
vn 0.2999 0.7715 0.5611
vn 0.3651 -0.6326 0.6831
vn 0.3651 0.6326 0.6831
vn 0.2999 -0.7715 0.5611
vn 0.4162 0.4696 0.7786
vn 0.2230 -0.8810 0.4173
vn 0.4513 0.2890 0.8443
vn 0.1374 -0.9565 0.2571
vn 0.4691 0.0976 0.8777
vn 0.0464 0.9951 0.0869
vn 0.1847 -0.7715 0.6088
vn 0.2563 0.4696 0.8448
vn 0.1374 -0.8810 0.4528
vn 0.2779 0.2890 0.9161
vn 0.0846 -0.9565 0.2790
vn 0.2889 0.0976 0.9524
vn 0.0286 0.9951 0.0942
vn 0.0286 -0.9951 0.0942
vn 0.2889 -0.0975 0.9524
vn 0.0846 0.9565 0.2790
vn 0.2779 -0.2890 0.9161
vn 0.1374 0.8810 0.4528
vn 0.2563 -0.4696 0.8448
vn 0.1847 0.7715 0.6088
vn 0.2248 -0.6326 0.7412
vn 0.2248 0.6326 0.7412
vn 0.0286 0.9565 0.2902
vn 0.0938 -0.2890 0.9527
vn 0.0464 0.8810 0.4709
vn 0.0865 -0.4696 0.8786
vn 0.0624 0.7715 0.6332
vn 0.0759 -0.6326 0.7708
vn 0.0759 0.6326 0.7708
vn 0.0624 -0.7715 0.6332
vn 0.0865 0.4696 0.8786
vn 0.0464 -0.8810 0.4709
vn 0.0938 0.2890 0.9527
vn 0.0286 -0.9565 0.2902
vn 0.0975 0.0975 0.9904
vn 0.0096 0.9951 0.0980
vn 0.0097 -0.9951 0.0980
vn 0.0975 -0.0976 0.9904
vn -0.0865 0.4696 0.8786
vn -0.0464 -0.8810 0.4709
vn -0.0938 0.2890 0.9527
vn -0.0286 -0.9565 0.2902
vn -0.0975 0.0975 0.9904
vn -0.0096 0.9951 0.0980
vn -0.0097 -0.9951 0.0980
vn -0.0975 -0.0975 0.9904
vn -0.0286 0.9565 0.2902
vn -0.0938 -0.2890 0.9527
vn -0.0464 0.8810 0.4709
vn -0.0865 -0.4696 0.8786
vn -0.0624 0.7715 0.6332
vn -0.0759 -0.6326 0.7708
vn -0.0759 0.6326 0.7708
vn -0.0624 -0.7715 0.6332
vn -0.2779 -0.2890 0.9161
vn -0.1374 0.8810 0.4528
vn -0.2563 -0.4696 0.8448
vn -0.1847 0.7715 0.6088
vn -0.2248 -0.6326 0.7412
vn -0.2248 0.6326 0.7412
vn -0.1847 -0.7715 0.6088
vn -0.2563 0.4696 0.8448
vn -0.1374 -0.8810 0.4528
vn -0.2779 0.2890 0.9161
vn -0.0846 -0.9566 0.2790
vn -0.2889 0.0976 0.9524
vn -0.0286 0.9951 0.0942
vn -0.0286 -0.9951 0.0942
vn -0.2889 -0.0976 0.9524
vn -0.0846 0.9566 0.2790
vn -0.2231 -0.8810 0.4173
vn -0.4513 0.2890 0.8443
vn -0.1374 -0.9565 0.2571
vn -0.4692 0.0975 0.8777
vn -0.0464 0.9951 0.0869
vn -0.0464 -0.9951 0.0869
vn -0.4691 -0.0975 0.8777
vn -0.1374 0.9565 0.2571
vn -0.4513 -0.2890 0.8443
vn -0.2231 0.8810 0.4173
vn -0.4162 -0.4696 0.7786
vn -0.2999 0.7715 0.5611
vn -0.3651 -0.6326 0.6831
vn -0.3651 0.6326 0.6831
vn -0.2999 -0.7715 0.5611
vn -0.4162 0.4696 0.7786
vn -0.3002 0.8810 0.3658
vn -0.5601 -0.4696 0.6825
vn -0.4036 0.7715 0.4918
vn -0.4913 -0.6326 0.5987
vn -0.4913 0.6326 0.5987
vn -0.4036 -0.7715 0.4918
vn -0.5601 0.4696 0.6825
vn -0.3002 -0.8810 0.3658
vn -0.6073 0.2890 0.7400
vn -0.1850 -0.9565 0.2254
vn -0.6314 0.0976 0.7693
vn -0.0625 0.9951 0.0761
vn -0.0625 -0.9951 0.0761
vn -0.6314 -0.0975 0.7693
vn -0.1850 0.9565 0.2254
vn -0.6073 -0.2890 0.7400
vn -0.7400 0.2890 0.6073
vn -0.2254 -0.9565 0.1850
vn -0.7693 0.0975 0.6314
vn -0.0761 0.9951 0.0625
vn -0.0761 -0.9951 0.0625
vn -0.7693 -0.0975 0.6314
vn -0.2254 0.9565 0.1850
vn -0.7400 -0.2890 0.6073
vn -0.3658 0.8810 0.3002
vn -0.6825 -0.4696 0.5601
vn -0.4918 0.7715 0.4036
vn -0.5987 -0.6326 0.4913
vn -0.5987 0.6326 0.4913
vn -0.4918 -0.7715 0.4036
vn -0.6825 0.4696 0.5601
vn -0.3658 -0.8810 0.3002
vn -0.7786 -0.4696 0.4162
vn -0.5611 0.7715 0.2999
vn -0.6831 -0.6326 0.3651
vn -0.6831 0.6326 0.3651
vn -0.5611 -0.7715 0.2999
vn -0.7786 0.4696 0.4162
vn -0.4173 -0.8810 0.2231
vn -0.8443 0.2890 0.4513
vn -0.2571 -0.9565 0.1374
vn -0.8777 0.0975 0.4691
vn -0.0869 0.9951 0.0464
vn -0.0869 -0.9951 0.0464
vn -0.8777 -0.0975 0.4691
vn -0.2571 0.9565 0.1374
vn -0.8443 -0.2890 0.4513
vn -0.4173 0.8810 0.2231
vn -0.2790 -0.9565 0.0846
vn -0.9524 0.0975 0.2889
vn -0.0942 0.9951 0.0286
vn -0.0942 -0.9951 0.0286
vn -0.9524 -0.0975 0.2889
vn -0.2790 0.9566 0.0846
vn -0.9161 -0.2890 0.2779
vn -0.4528 0.8810 0.1374
vn -0.8448 -0.4696 0.2563
vn -0.6088 0.7715 0.1847
vn -0.7412 -0.6326 0.2248
vn -0.7412 0.6326 0.2248
vn -0.6088 -0.7715 0.1847
vn -0.8448 0.4696 0.2563
vn -0.4528 -0.8810 0.1373
vn -0.9161 0.2890 0.2779
vn -0.7708 -0.6326 0.0759
vn -0.7708 0.6326 0.0759
vn -0.6332 -0.7715 0.0624
vn -0.8786 0.4696 0.0865
vn -0.4709 -0.8810 0.0464
vn -0.9527 0.2890 0.0938
vn -0.2902 -0.9565 0.0286
vn -0.9904 0.0975 0.0975
vn -0.0980 0.9951 0.0097
vn -0.0980 -0.9951 0.0097
vn -0.9904 -0.0975 0.0975
vn -0.2902 0.9565 0.0286
vn -0.9527 -0.2890 0.0938
vn -0.4709 0.8810 0.0464
vn -0.8786 -0.4696 0.0865
vn -0.6332 0.7715 0.0624
vn -0.0980 0.9951 -0.0097
vn -0.0980 -0.9951 -0.0097
vn -0.9904 -0.0975 -0.0976
vn -0.2902 0.9565 -0.0286
vn -0.9527 -0.2890 -0.0938
vn -0.4709 0.8810 -0.0464
vn -0.8786 -0.4696 -0.0865
vn -0.6332 0.7715 -0.0624
vn -0.7708 -0.6326 -0.0759
vn -0.7708 0.6326 -0.0759
vn -0.6332 -0.7715 -0.0624
vn -0.8786 0.4696 -0.0865
vn -0.4709 -0.8810 -0.0464
vn -0.9527 0.2890 -0.0938
vn -0.2902 -0.9566 -0.0286
vn -0.9904 0.0976 -0.0975
vn -0.7412 0.6326 -0.2248
vn -0.6088 -0.7715 -0.1847
vn -0.8448 0.4696 -0.2563
vn -0.4528 -0.8810 -0.1374
vn -0.9161 0.2890 -0.2779
vn -0.2790 -0.9565 -0.0846
vn -0.9524 0.0975 -0.2889
vn -0.0942 0.9951 -0.0286
vn -0.0942 -0.9951 -0.0286
vn -0.9524 -0.0975 -0.2889
vn -0.2790 0.9565 -0.0846
vn -0.9161 -0.2890 -0.2779
vn -0.4528 0.8810 -0.1374
vn -0.8448 -0.4696 -0.2563
vn -0.6088 0.7715 -0.1847
vn -0.7412 -0.6326 -0.2248
vn -0.8777 -0.0975 -0.4692
vn -0.2571 0.9565 -0.1374
vn -0.8443 -0.2890 -0.4513
vn -0.4173 0.8810 -0.2231
vn -0.7786 -0.4696 -0.4162
vn -0.5611 0.7715 -0.2999
vn -0.6831 -0.6326 -0.3651
vn -0.6831 0.6326 -0.3651
vn -0.5611 -0.7715 -0.2999
vn -0.7786 0.4696 -0.4162
vn -0.4173 -0.8810 -0.2231
vn -0.8443 0.2890 -0.4513
vn -0.2572 -0.9565 -0.1374
vn -0.8777 0.0975 -0.4691
vn -0.0869 0.9951 -0.0464
vn -0.0869 -0.9951 -0.0464
vn -0.4918 -0.7715 -0.4036
vn -0.6825 0.4696 -0.5601
vn -0.3658 -0.8810 -0.3002
vn -0.7400 0.2890 -0.6073
vn -0.2254 -0.9565 -0.1850
vn -0.7693 0.0976 -0.6314
vn -0.0761 0.9951 -0.0625
vn -0.0761 -0.9951 -0.0625
vn -0.7693 -0.0976 -0.6314
vn -0.2254 0.9566 -0.1850
vn -0.7400 -0.2890 -0.6073
vn -0.3658 0.8810 -0.3002
vn -0.6825 -0.4696 -0.5601
vn -0.4918 0.7715 -0.4036
vn -0.5987 -0.6326 -0.4913
vn -0.5987 0.6326 -0.4913
vn -0.1850 0.9565 -0.2254
vn -0.6073 -0.2890 -0.7400
vn -0.3002 0.8810 -0.3658
vn -0.5601 -0.4696 -0.6825
vn -0.4036 0.7715 -0.4918
vn -0.4913 -0.6326 -0.5987
vn -0.4913 0.6326 -0.5987
vn -0.4036 -0.7715 -0.4918
vn -0.5601 0.4696 -0.6825
vn -0.3002 -0.8810 -0.3658
vn -0.6073 0.2890 -0.7400
vn -0.1850 -0.9565 -0.2254
vn -0.6314 0.0975 -0.7693
vn -0.0625 0.9951 -0.0761
vn -0.0625 -0.9951 -0.0761
vn -0.6314 -0.0975 -0.7693
vn -0.4162 0.4696 -0.7786
vn -0.2230 -0.8810 -0.4173
vn -0.4513 0.2890 -0.8443
vn -0.1374 -0.9565 -0.2571
vn -0.4691 0.0975 -0.8777
vn -0.0464 0.9951 -0.0869
vn -0.0464 -0.9951 -0.0869
vn -0.4691 -0.0975 -0.8777
vn -0.1374 0.9565 -0.2571
vn -0.4513 -0.2890 -0.8443
vn -0.2231 0.8810 -0.4173
vn -0.4162 -0.4696 -0.7786
vn -0.2999 0.7715 -0.5611
vn -0.3651 -0.6326 -0.6831
vn -0.3651 0.6326 -0.6831
vn -0.2999 -0.7715 -0.5611
vn -0.2779 -0.2890 -0.9161
vn -0.1374 0.8810 -0.4528
vn -0.2563 -0.4696 -0.8448
vn -0.1847 0.7715 -0.6088
vn -0.2248 -0.6326 -0.7412
vn -0.2248 0.6326 -0.7412
vn -0.1847 -0.7715 -0.6088
vn -0.2563 0.4696 -0.8449
vn -0.1374 -0.8810 -0.4528
vn -0.2779 0.2890 -0.9161
vn -0.0846 -0.9566 -0.2790
vn -0.2889 0.0975 -0.9524
vn -0.0286 0.9951 -0.0942
vn -0.0286 -0.9951 -0.0942
vn -0.2889 -0.0975 -0.9524
vn -0.0846 0.9566 -0.2790
vn -0.0464 -0.8810 -0.4709
vn -0.0938 0.2890 -0.9527
vn -0.0286 -0.9566 -0.2902
vn -0.0976 0.0975 -0.9904
vn -0.0097 0.9951 -0.0980
vn -0.0097 -0.9951 -0.0980
vn -0.0976 -0.0976 -0.9904
vn -0.0286 0.9565 -0.2902
vn -0.0938 -0.2890 -0.9527
vn -0.0464 0.8810 -0.4709
vn -0.0865 -0.4696 -0.8786
vn -0.0624 0.7715 -0.6332
vn -0.0759 -0.6326 -0.7708
vn -0.0759 0.6326 -0.7708
vn -0.0624 -0.7715 -0.6332
vn -0.0865 0.4696 -0.8786
vn 0.0976 0.0976 -0.9904
vn 0.0975 -0.0976 -0.9904
vn 0.2563 0.4696 -0.8448
vn 0.0846 -0.9565 -0.2790
vn 0.0846 0.9566 -0.2790
vn 0.4691 -0.0976 -0.8777
vn 0.1375 0.9565 -0.2571
vn 0.2230 0.8810 -0.4173
vn 0.2230 -0.8810 -0.4173
vn 0.1374 -0.9566 -0.2571
vn 0.4691 0.0975 -0.8777
vn 0.4173 -0.8810 -0.2230
vn 0.8777 0.0975 -0.4692
vn 0.8777 -0.0975 -0.4691
vn 0.4173 0.8810 -0.2231
vn 0.8448 -0.4696 -0.2563
vn 0.8449 0.4696 -0.2563
vn 0.2790 -0.9566 -0.0846
vn 0.9904 0.0975 -0.0976
vn 0.9904 -0.0976 -0.0976
vn 0.2902 0.9565 -0.0286
vn 0.4528 0.8810 0.1373
vn 0.8448 -0.4696 0.2563
vn 0.8448 0.4696 0.2563
vn 0.4528 -0.8810 0.1374
vn 0.4173 -0.8810 0.2230
vn 0.8777 0.0976 0.4691
vn 0.8777 -0.0975 0.4692
vn 0.7693 0.0976 0.6314
vn 0.2254 -0.9566 0.1850
vn 0.6314 0.0975 0.7693
vn 0.6314 -0.0976 0.7693
vn 0.4691 -0.0976 0.8777
vn 0.4692 0.0976 0.8777
vn 0.0846 -0.9566 0.2790
vn 0.2889 0.0975 0.9524
vn 0.2889 -0.0976 0.9524
vn 0.0846 0.9566 0.2790
vn 0.0975 0.0976 0.9904
vn 0.0975 -0.0975 0.9904
vn -0.0286 -0.9566 0.2902
vn -0.2563 0.4696 0.8449
vn -0.0846 -0.9565 0.2790
vn -0.0846 0.9565 0.2790
vn -0.4691 0.0975 0.8777
vn -0.4692 -0.0975 0.8777
vn -0.1375 0.9565 0.2571
vn -0.2230 0.8810 0.4173
vn -0.6314 0.0975 0.7693
vn -0.6314 -0.0976 0.7693
vn -0.2254 -0.9566 0.1850
vn -0.7693 0.0976 0.6314
vn -0.2254 0.9566 0.1850
vn -0.2790 -0.9566 0.0846
vn -0.4528 -0.8810 0.1374
vn -0.9904 -0.0976 -0.0975
vn -0.2902 0.9566 -0.0286
vn -0.2902 -0.9565 -0.0286
vn -0.9904 0.0975 -0.0976
vn -0.2790 -0.9566 -0.0846
vn -0.8777 -0.0975 -0.4691
vn -0.2572 0.9565 -0.1374
vn -0.2571 -0.9565 -0.1374
vn -0.8777 0.0975 -0.4692
vn -0.2254 -0.9566 -0.1850
vn -0.2254 0.9565 -0.1850
vn -0.2231 -0.8810 -0.4173
vn -0.1374 -0.9566 -0.2571
vn -0.2230 0.8810 -0.4173
vn -0.2563 -0.4696 -0.8449
vn -0.2563 0.4696 -0.8448
vn -0.0846 -0.9565 -0.2790
vn -0.0846 0.9565 -0.2790
vn -0.0286 -0.9565 -0.2902
vn -0.0976 0.0976 -0.9904
vn -0.0976 -0.0975 -0.9904
vt 0.750000 0.187500
vt 0.718750 0.125000
vt 0.750000 0.125000
vt 0.750000 0.625000
vt 0.718750 0.562500
vt 0.750000 0.562500
vt 0.750000 0.062500
vt 0.718750 0.062500
vt 0.750000 0.500000
vt 0.718750 0.500000
vt 0.750000 0.937500
vt 0.734375 1.000000
vt 0.718750 0.937500
vt 0.734375 0.000000
vt 0.718750 0.437500
vt 0.750000 0.437500
vt 0.718750 0.875000
vt 0.750000 0.875000
vt 0.750000 0.375000
vt 0.718750 0.375000
vt 0.750000 0.812500
vt 0.718750 0.812500
vt 0.750000 0.312500
vt 0.718750 0.312500
vt 0.750000 0.750000
vt 0.718750 0.750000
vt 0.718750 0.250000
vt 0.750000 0.250000
vt 0.750000 0.687500
vt 0.718750 0.687500
vt 0.718750 0.187500
vt 0.718750 0.625000
vt 0.687500 0.687500
vt 0.687500 0.250000
vt 0.687500 0.187500
vt 0.687500 0.625000
vt 0.687500 0.125000
vt 0.687500 0.562500
vt 0.687500 0.062500
vt 0.687500 0.500000
vt 0.703125 1.000000
vt 0.687500 0.937500
vt 0.703125 0.000000
vt 0.687500 0.437500
vt 0.687500 0.875000
vt 0.687500 0.375000
vt 0.687500 0.812500
vt 0.687500 0.312500
vt 0.687500 0.750000
vt 0.656250 0.500000
vt 0.656250 0.437500
vt 0.656250 0.875000
vt 0.656250 0.375000
vt 0.656250 0.812500
vt 0.656250 0.312500
vt 0.656250 0.750000
vt 0.656250 0.250000
vt 0.656250 0.687500
vt 0.656250 0.187500
vt 0.656250 0.625000
vt 0.656250 0.125000
vt 0.656250 0.562500
vt 0.656250 0.062500
vt 0.671875 1.000000
vt 0.656250 0.937500
vt 0.671875 0.000000
vt 0.625000 0.187500
vt 0.625000 0.625000
vt 0.625000 0.125000
vt 0.625000 0.562500
vt 0.625000 0.062500
vt 0.625000 0.500000
vt 0.640625 1.000000
vt 0.625000 0.937500
vt 0.640625 0.000000
vt 0.625000 0.437500
vt 0.625000 0.875000
vt 0.625000 0.375000
vt 0.625000 0.812500
vt 0.625000 0.312500
vt 0.625000 0.750000
vt 0.625000 0.250000
vt 0.625000 0.687500
vt 0.593750 0.375000
vt 0.593750 0.812500
vt 0.593750 0.312500
vt 0.593750 0.750000
vt 0.593750 0.250000
vt 0.593750 0.687500
vt 0.593750 0.187500
vt 0.593750 0.625000
vt 0.593750 0.125000
vt 0.593750 0.562500
vt 0.593750 0.062500
vt 0.593750 0.500000
vt 0.609375 1.000000
vt 0.593750 0.937500
vt 0.609375 0.000000
vt 0.593750 0.437500
vt 0.593750 0.875000
vt 0.562500 0.125000
vt 0.562500 0.625000
vt 0.562500 0.562500
vt 0.562500 0.062500
vt 0.562500 0.500000
vt 0.578125 1.000000
vt 0.562500 0.937500
vt 0.578125 0.000000
vt 0.562500 0.437500
vt 0.562500 0.875000
vt 0.562500 0.375000
vt 0.562500 0.812500
vt 0.562500 0.312500
vt 0.562500 0.750000
vt 0.562500 0.250000
vt 0.562500 0.687500
vt 0.562500 0.187500
vt 0.531250 0.812500
vt 0.531250 0.375000
vt 0.531250 0.312500
vt 0.531250 0.750000
vt 0.531250 0.250000
vt 0.531250 0.687500
vt 0.531250 0.187500
vt 0.531250 0.625000
vt 0.531250 0.125000
vt 0.531250 0.562500
vt 0.531250 0.062500
vt 0.531250 0.500000
vt 0.546875 1.000000
vt 0.531250 0.937500
vt 0.546875 0.000000
vt 0.531250 0.437500
vt 0.531250 0.875000
vt 0.500000 0.625000
vt 0.500000 0.562500
vt 0.500000 0.062500
vt 0.500000 0.500000
vt 0.515625 1.000000
vt 0.500000 0.937500
vt 0.515625 0.000000
vt 0.500000 0.437500
vt 0.500000 0.875000
vt 0.500000 0.375000
vt 0.500000 0.812500
vt 0.500000 0.312500
vt 0.500000 0.750000
vt 0.500000 0.250000
vt 0.500000 0.687500
vt 0.500000 0.187500
vt 0.500000 0.125000
vt 0.468750 0.375000
vt 0.468750 0.312500
vt 0.468750 0.750000
vt 0.468750 0.250000
vt 0.468750 0.687500
vt 0.468750 0.187500
vt 0.468750 0.625000
vt 0.468750 0.125000
vt 0.468750 0.562500
vt 0.468750 0.062500
vt 0.468750 0.500000
vt 0.484375 1.000000
vt 0.468750 0.937500
vt 0.484375 0.000000
vt 0.468750 0.437500
vt 0.468750 0.875000
vt 0.468750 0.812500
vt 0.437500 0.062500
vt 0.437500 0.500000
vt 0.453125 1.000000
vt 0.437500 0.937500
vt 0.453125 0.000000
vt 0.437500 0.437500
vt 0.437500 0.875000
vt 0.437500 0.375000
vt 0.437500 0.812500
vt 0.437500 0.312500
vt 0.437500 0.750000
vt 0.437500 0.250000
vt 0.437500 0.687500
vt 0.437500 0.187500
vt 0.437500 0.625000
vt 0.437500 0.125000
vt 0.437500 0.562500
vt 0.406250 0.750000
vt 0.406250 0.250000
vt 0.406250 0.687500
vt 0.406250 0.187500
vt 0.406250 0.625000
vt 0.406250 0.125000
vt 0.406250 0.562500
vt 0.406250 0.062500
vt 0.406250 0.500000
vt 0.421875 1.000000
vt 0.406250 0.937500
vt 0.421875 0.000000
vt 0.406250 0.437500
vt 0.406250 0.875000
vt 0.406250 0.375000
vt 0.406250 0.812500
vt 0.406250 0.312500
vt 0.375000 0.500000
vt 0.390625 1.000000
vt 0.375000 0.937500
vt 0.390625 0.000000
vt 0.375000 0.062500
vt 0.375000 0.437500
vt 0.375000 0.875000
vt 0.375000 0.375000
vt 0.375000 0.812500
vt 0.375000 0.312500
vt 0.375000 0.750000
vt 0.375000 0.250000
vt 0.375000 0.687500
vt 0.375000 0.187500
vt 0.375000 0.625000
vt 0.375000 0.125000
vt 0.375000 0.562500
vt 0.343750 0.250000
vt 0.343750 0.687500
vt 0.343750 0.187500
vt 0.343750 0.625000
vt 0.343750 0.125000
vt 0.343750 0.562500
vt 0.343750 0.062500
vt 0.343750 0.500000
vt 0.359375 1.000000
vt 0.343750 0.937500
vt 0.359375 0.000000
vt 0.343750 0.437500
vt 0.343750 0.875000
vt 0.343750 0.375000
vt 0.343750 0.812500
vt 0.343750 0.312500
vt 0.343750 0.750000
vt 0.328125 0.000000
vt 0.312500 0.062500
vt 0.312500 0.437500
vt 0.312500 0.937500
vt 0.312500 0.875000
vt 0.312500 0.375000
vt 0.312500 0.812500
vt 0.312500 0.312500
vt 0.312500 0.750000
vt 0.312500 0.250000
vt 0.312500 0.687500
vt 0.312500 0.187500
vt 0.312500 0.625000
vt 0.312500 0.125000
vt 0.312500 0.562500
vt 0.312500 0.500000
vt 0.328125 1.000000
vt 0.281250 0.187500
vt 0.281250 0.625000
vt 0.281250 0.125000
vt 0.281250 0.562500
vt 0.281250 0.062500
vt 0.281250 0.500000
vt 0.296875 1.000000
vt 0.281250 0.937500
vt 0.296875 0.000000
vt 0.281250 0.437500
vt 0.281250 0.875000
vt 0.281250 0.375000
vt 0.281250 0.812500
vt 0.281250 0.312500
vt 0.281250 0.750000
vt 0.281250 0.250000
vt 0.281250 0.687500
vt 0.250000 0.875000
vt 0.250000 0.375000
vt 0.250000 0.812500
vt 0.250000 0.312500
vt 0.250000 0.750000
vt 0.250000 0.250000
vt 0.250000 0.687500
vt 0.250000 0.187500
vt 0.250000 0.625000
vt 0.250000 0.125000
vt 0.250000 0.562500
vt 0.250000 0.062500
vt 0.250000 0.500000
vt 0.265625 1.000000
vt 0.250000 0.937500
vt 0.265625 0.000000
vt 0.250000 0.437500
vt 0.218750 0.625000
vt 0.218750 0.125000
vt 0.218750 0.562500
vt 0.218750 0.062500
vt 0.218750 0.500000
vt 0.234375 1.000000
vt 0.218750 0.937500
vt 0.234375 0.000000
vt 0.218750 0.437500
vt 0.218750 0.875000
vt 0.218750 0.375000
vt 0.218750 0.812500
vt 0.218750 0.312500
vt 0.218750 0.750000
vt 0.218750 0.250000
vt 0.218750 0.687500
vt 0.218750 0.187500
vt 0.187500 0.375000
vt 0.187500 0.875000
vt 0.187500 0.812500
vt 0.187500 0.312500
vt 0.187500 0.750000
vt 0.187500 0.250000
vt 0.187500 0.687500
vt 0.187500 0.187500
vt 0.187500 0.625000
vt 0.187500 0.125000
vt 0.187500 0.562500
vt 0.187500 0.062500
vt 0.187500 0.500000
vt 0.203125 1.000000
vt 0.187500 0.937500
vt 0.203125 0.000000
vt 0.187500 0.437500
vt 0.156250 0.125000
vt 0.156250 0.625000
vt 0.156250 0.562500
vt 0.156250 0.062500
vt 0.156250 0.500000
vt 0.171875 1.000000
vt 0.156250 0.937500
vt 0.171875 0.000000
vt 0.156250 0.437500
vt 0.156250 0.875000
vt 0.156250 0.375000
vt 0.156250 0.812500
vt 0.156250 0.312500
vt 0.156250 0.750000
vt 0.156250 0.250000
vt 0.156250 0.687500
vt 0.156250 0.187500
vt 0.125000 0.875000
vt 0.125000 0.812500
vt 0.125000 0.375000
vt 0.125000 0.312500
vt 0.125000 0.750000
vt 0.125000 0.250000
vt 0.125000 0.687500
vt 0.125000 0.187500
vt 0.125000 0.625000
vt 0.125000 0.125000
vt 0.125000 0.562500
vt 0.125000 0.062500
vt 0.125000 0.500000
vt 0.140625 1.000000
vt 0.125000 0.937500
vt 0.140625 0.000000
vt 0.125000 0.437500
vt 0.093750 0.562500
vt 0.093750 0.062500
vt 0.093750 0.500000
vt 0.109375 1.000000
vt 0.093750 0.937500
vt 0.109375 0.000000
vt 0.093750 0.437500
vt 0.093750 0.875000
vt 0.093750 0.375000
vt 0.093750 0.812500
vt 0.093750 0.312500
vt 0.093750 0.750000
vt 0.093750 0.250000
vt 0.093750 0.687500
vt 0.093750 0.187500
vt 0.093750 0.625000
vt 0.093750 0.125000
vt 0.062500 0.375000
vt 0.062500 0.312500
vt 0.062500 0.750000
vt 0.062500 0.250000
vt 0.062500 0.687500
vt 0.062500 0.187500
vt 0.062500 0.625000
vt 0.062500 0.125000
vt 0.062500 0.562500
vt 0.062500 0.062500
vt 0.062500 0.500000
vt 0.078125 1.000000
vt 0.062500 0.937500
vt 0.078125 0.000000
vt 0.062500 0.437500
vt 0.062500 0.875000
vt 0.062500 0.812500
vt 0.031250 0.062500
vt 0.031250 0.562500
vt 0.031250 0.500000
vt 0.046875 1.000000
vt 0.031250 0.937500
vt 0.046875 0.000000
vt 0.031250 0.437500
vt 0.031250 0.875000
vt 0.031250 0.375000
vt 0.031250 0.812500
vt 0.031250 0.312500
vt 0.031250 0.750000
vt 0.031250 0.250000
vt 0.031250 0.687500
vt 0.031250 0.187500
vt 0.031250 0.625000
vt 0.031250 0.125000
vt 0.000000 0.250000
vt 0.000000 0.750000
vt 0.000000 0.687500
vt 0.000000 0.187500
vt 0.000000 0.625000
vt 0.000000 0.125000
vt 0.000000 0.562500
vt 0.000000 0.062500
vt 0.000000 0.500000
vt 0.015625 1.000000
vt 0.000000 0.937500
vt 0.015625 0.000000
vt 0.000000 0.437500
vt 0.000000 0.875000
vt 0.000000 0.375000
vt 0.000000 0.812500
vt 0.000000 0.312500
vt 1.000000 0.937500
vt 0.984375 1.000000
vt 0.968750 0.937500
vt 0.984375 0.000000
vt 1.000000 0.062500
vt 0.968750 0.062500
vt 1.000000 0.500000
vt 0.968750 0.437500
vt 1.000000 0.437500
vt 1.000000 0.875000
vt 0.968750 0.875000
vt 0.968750 0.375000
vt 1.000000 0.375000
vt 0.968750 0.812500
vt 1.000000 0.812500
vt 1.000000 0.312500
vt 0.968750 0.312500
vt 0.968750 0.750000
vt 1.000000 0.750000
vt 1.000000 0.250000
vt 0.968750 0.250000
vt 0.968750 0.687500
vt 1.000000 0.687500
vt 1.000000 0.187500
vt 0.968750 0.187500
vt 0.968750 0.625000
vt 1.000000 0.625000
vt 0.968750 0.125000
vt 1.000000 0.125000
vt 1.000000 0.562500
vt 0.968750 0.562500
vt 0.968750 0.500000
vt 0.937500 0.687500
vt 0.937500 0.187500
vt 0.937500 0.625000
vt 0.937500 0.125000
vt 0.937500 0.562500
vt 0.937500 0.062500
vt 0.937500 0.500000
vt 0.953125 1.000000
vt 0.937500 0.937500
vt 0.953125 0.000000
vt 0.937500 0.437500
vt 0.937500 0.875000
vt 0.937500 0.375000
vt 0.937500 0.812500
vt 0.937500 0.312500
vt 0.937500 0.750000
vt 0.937500 0.250000
vt 0.906250 0.437500
vt 0.906250 0.875000
vt 0.906250 0.375000
vt 0.906250 0.812500
vt 0.906250 0.312500
vt 0.906250 0.750000
vt 0.906250 0.250000
vt 0.906250 0.687500
vt 0.906250 0.187500
vt 0.906250 0.625000
vt 0.906250 0.125000
vt 0.906250 0.562500
vt 0.906250 0.062500
vt 0.906250 0.500000
vt 0.921875 1.000000
vt 0.906250 0.937500
vt 0.921875 0.000000
vt 0.875000 0.187500
vt 0.875000 0.625000
vt 0.875000 0.125000
vt 0.875000 0.562500
vt 0.875000 0.062500
vt 0.875000 0.500000
vt 0.890625 1.000000
vt 0.875000 0.937500
vt 0.890625 0.000000
vt 0.875000 0.437500
vt 0.875000 0.875000
vt 0.875000 0.375000
vt 0.875000 0.812500
vt 0.875000 0.312500
vt 0.875000 0.750000
vt 0.875000 0.250000
vt 0.875000 0.687500
vt 0.843750 0.937500
vt 0.843750 0.875000
vt 0.843750 0.375000
vt 0.843750 0.812500
vt 0.843750 0.312500
vt 0.843750 0.750000
vt 0.843750 0.250000
vt 0.843750 0.687500
vt 0.843750 0.187500
vt 0.843750 0.625000
vt 0.843750 0.125000
vt 0.843750 0.562500
vt 0.843750 0.062500
vt 0.843750 0.500000
vt 0.859375 1.000000
vt 0.859375 0.000000
vt 0.843750 0.437500
vt 0.812500 0.625000
vt 0.812500 0.125000
vt 0.812500 0.562500
vt 0.812500 0.062500
vt 0.812500 0.500000
vt 0.828125 1.000000
vt 0.812500 0.937500
vt 0.828125 0.000000
vt 0.812500 0.437500
vt 0.812500 0.875000
vt 0.812500 0.375000
vt 0.812500 0.812500
vt 0.812500 0.312500
vt 0.812500 0.750000
vt 0.812500 0.250000
vt 0.812500 0.687500
vt 0.812500 0.187500
vt 0.781250 0.375000
vt 0.781250 0.812500
vt 0.781250 0.312500
vt 0.781250 0.750000
vt 0.781250 0.250000
vt 0.781250 0.687500
vt 0.781250 0.187500
vt 0.781250 0.625000
vt 0.781250 0.125000
vt 0.781250 0.562500
vt 0.781250 0.062500
vt 0.781250 0.500000
vt 0.796875 1.000000
vt 0.781250 0.937500
vt 0.796875 0.000000
vt 0.781250 0.437500
vt 0.781250 0.875000
vt 0.765625 1.000000
vt 0.765625 0.000000
s 0
usemtl マテリアル.002
f 480/1/1 20/2/1 481/3/1
f 477/4/2 13/5/2 3/6/2
f 482/7/3 20/2/3 21/8/3
f 4/9/4 13/5/4 14/10/4
f 474/11/5 82/12/5 7/13/5
f 308/14/6 482/7/6 21/8/6
f 4/9/7 15/15/7 5/16/7
f 474/11/8 8/17/8 475/18/8
f 478/19/9 15/15/9 16/20/9
f 1/21/10 8/17/10 9/22/10
f 6/23/11 16/20/11 17/24/11
f 476/25/12 9/22/12 10/26/12
f 6/23/13 18/27/13 479/28/13
f 2/29/14 10/26/14 11/30/14
f 479/28/15 19/31/15 480/1/15
f 2/29/16 12/32/16 477/4/16
f 10/26/17 26/33/17 11/30/17
f 19/31/18 33/34/18 34/35/18
f 12/32/19 26/33/19 27/36/19
f 19/31/20 35/37/20 20/2/20
f 13/5/21 27/36/21 28/38/21
f 20/2/22 36/39/22 21/8/22
f 13/5/23 29/40/23 14/10/23
f 7/13/24 82/41/24 22/42/24
f 308/43/25 21/8/25 36/39/25
f 15/15/26 29/40/26 30/44/26
f 8/17/27 22/42/27 23/45/27
f 16/20/28 30/44/28 31/46/28
f 8/17/29 24/47/29 9/22/29
f 17/24/30 31/46/30 32/48/30
f 9/22/31 25/49/31 10/26/31
f 17/24/32 33/34/32 18/27/32
f 30/44/33 44/50/33 45/51/33
f 22/42/34 38/52/34 23/45/34
f 30/44/35 46/53/35 31/46/35
f 24/47/36 38/52/36 39/54/36
f 31/46/37 47/55/37 32/48/37
f 24/47/38 40/56/38 25/49/38
f 32/48/39 48/57/39 33/34/39
f 25/49/40 41/58/40 26/33/40
f 34/35/41 48/57/41 49/59/41
f 26/33/42 42/60/42 27/36/42
f 35/37/43 49/59/43 50/61/43
f 28/38/44 42/60/44 43/62/44
f 36/39/45 50/61/45 51/63/45
f 28/38/46 44/50/46 29/40/46
f 22/42/47 82/64/47 37/65/47
f 308/66/48 36/39/48 51/63/48
f 48/57/49 64/67/49 49/59/49
f 41/58/50 57/68/50 42/60/50
f 49/59/51 65/69/51 50/61/51
f 42/60/52 58/70/52 43/62/52
f 51/63/53 65/69/53 66/71/53
f 44/50/54 58/70/54 59/72/54
f 37/65/55 82/73/55 52/74/55
f 308/75/56 51/63/56 66/71/56
f 44/50/57 60/76/57 45/51/57
f 37/65/58 53/77/58 38/52/58
f 45/51/59 61/78/59 46/53/59
f 39/54/60 53/77/60 54/79/60
f 47/55/61 61/78/61 62/80/61
f 40/56/62 54/79/62 55/81/62
f 48/57/63 62/80/63 63/82/63
f 40/56/64 56/83/64 41/58/64
f 60/76/65 76/84/65 61/78/65
f 53/77/66 69/85/66 54/79/66
f 62/80/67 76/84/67 77/86/67
f 54/79/68 70/87/68 55/81/68
f 63/82/69 77/86/69 78/88/69
f 55/81/70 71/89/70 56/83/70
f 63/82/71 79/90/71 64/67/71
f 56/83/72 72/91/72 57/68/72
f 65/69/73 79/90/73 80/92/73
f 57/68/74 73/93/74 58/70/74
f 66/71/75 80/92/75 81/94/75
f 58/70/76 74/95/76 59/72/76
f 52/74/77 82/96/77 67/97/77
f 308/98/78 66/71/78 81/94/78
f 59/72/79 75/99/79 60/76/79
f 52/74/80 68/100/80 53/77/80
f 79/90/81 96/101/81 80/92/81
f 73/93/82 88/102/82 89/103/82
f 81/94/83 96/101/83 97/104/83
f 73/93/84 90/105/84 74/95/84
f 67/97/85 82/106/85 83/107/85
f 308/108/86 81/94/86 97/104/86
f 74/95/87 91/109/87 75/99/87
f 67/97/88 84/110/88 68/100/88
f 75/99/89 92/111/89 76/84/89
f 68/100/90 85/112/90 69/85/90
f 77/86/91 92/111/91 93/113/91
f 69/85/92 86/114/92 70/87/92
f 77/86/93 94/115/93 78/88/93
f 71/89/94 86/114/94 87/116/94
f 78/88/95 95/117/95 79/90/95
f 71/89/96 88/102/96 72/91/96
f 84/110/97 100/118/97 85/112/97
f 93/113/98 107/119/98 108/120/98
f 85/112/99 101/121/99 86/114/99
f 93/113/100 109/122/100 94/115/100
f 87/116/101 101/121/101 102/123/101
f 95/117/102 109/122/102 110/124/102
f 87/116/103 103/125/103 88/102/103
f 96/101/104 110/124/104 111/126/104
f 88/102/105 104/127/105 89/103/105
f 96/101/106 112/128/106 97/104/106
f 89/103/107 105/129/107 90/105/107
f 83/107/108 82/130/108 98/131/108
f 308/132/109 97/104/109 112/128/109
f 91/109/110 105/129/110 106/133/110
f 83/107/111 99/134/111 84/110/111
f 91/109/112 107/119/112 92/111/112
f 104/127/113 118/135/113 119/136/113
f 111/126/114 127/137/114 112/128/114
f 104/127/115 120/138/115 105/129/115
f 98/131/116 82/139/116 113/140/116
f 308/141/117 112/128/117 127/137/117
f 106/133/118 120/138/118 121/142/118
f 99/134/119 113/140/119 114/143/119
f 106/133/120 122/144/120 107/119/120
f 99/134/121 115/145/121 100/118/121
f 108/120/122 122/144/122 123/146/122
f 101/121/123 115/145/123 116/147/123
f 109/122/124 123/146/124 124/148/124
f 102/123/125 116/147/125 117/149/125
f 110/124/126 124/148/126 125/150/126
f 102/123/127 118/135/127 103/125/127
f 110/124/128 126/151/128 111/126/128
f 123/146/129 137/152/129 138/153/129
f 115/145/130 131/154/130 116/147/130
f 123/146/131 139/155/131 124/148/131
f 116/147/132 132/156/132 117/149/132
f 124/148/133 140/157/133 125/150/133
f 117/149/134 133/158/134 118/135/134
f 126/151/135 140/157/135 141/159/135
f 119/136/136 133/158/136 134/160/136
f 127/137/137 141/159/137 142/161/137
f 119/136/138 135/162/138 120/138/138
f 113/140/139 82/163/139 128/164/139
f 308/165/140 127/137/140 142/161/140
f 121/142/141 135/162/141 136/166/141
f 113/140/142 129/167/142 114/143/142
f 121/142/143 137/152/143 122/144/143
f 114/143/144 130/168/144 115/145/144
f 141/159/145 157/169/145 142/161/145
f 134/160/146 150/170/146 135/162/146
f 128/164/147 82/171/147 143/172/147
f 308/173/148 142/161/148 157/169/148
f 135/162/149 151/174/149 136/166/149
f 129/167/150 143/172/150 144/175/150
f 137/152/151 151/174/151 152/176/151
f 130/168/152 144/175/152 145/177/152
f 137/152/153 153/178/153 138/153/153
f 130/168/154 146/179/154 131/154/154
f 138/153/155 154/180/155 139/155/155
f 131/154/156 147/181/156 132/156/156
f 140/157/157 154/180/157 155/182/157
f 132/156/158 148/183/158 133/158/158
f 140/157/159 156/184/159 141/159/159
f 134/160/160 148/183/160 149/185/160
f 145/177/161 161/186/161 146/179/161
f 153/178/162 169/187/162 154/180/162
f 147/181/163 161/186/163 162/188/163
f 155/182/164 169/187/164 170/189/164
f 147/181/165 163/190/165 148/183/165
f 156/184/166 170/189/166 171/191/166
f 148/183/167 164/192/167 149/185/167
f 156/184/168 172/193/168 157/169/168
f 149/185/169 165/194/169 150/170/169
f 143/172/170 82/195/170 158/196/170
f 308/197/171 157/169/171 172/193/171
f 151/174/172 165/194/172 166/198/172
f 144/175/173 158/196/173 159/199/173
f 152/176/174 166/198/174 167/200/174
f 144/175/175 160/201/175 145/177/175
f 153/178/176 167/200/176 168/202/176
f 164/192/177 180/203/177 165/194/177
f 158/196/178 82/204/178 173/205/178
f 308/206/179 172/193/179 187/207/179
f 165/194/180 181/208/180 166/198/180
f 158/196/181 174/209/181 159/199/181
f 166/198/182 182/210/182 167/200/182
f 159/199/183 175/211/183 160/201/183
f 168/202/184 182/210/184 183/212/184
f 161/186/185 175/211/185 176/213/185
f 169/187/186 183/212/186 184/214/186
f 161/186/187 177/215/187 162/188/187
f 169/187/188 185/216/188 170/189/188
f 162/188/189 178/217/189 163/190/189
f 170/189/190 186/218/190 171/191/190
f 164/192/191 178/217/191 179/219/191
f 172/193/192 186/218/192 187/207/192
f 183/212/193 199/220/193 184/214/193
f 176/213/194 192/221/194 177/215/194
f 184/214/195 200/222/195 185/216/195
f 178/217/196 192/221/196 193/223/196
f 185/216/197 201/224/197 186/218/197
f 179/219/198 193/223/198 194/225/198
f 186/218/199 202/226/199 187/207/199
f 180/203/200 194/225/200 195/227/200
f 173/205/201 82/228/201 188/229/201
f 308/230/202 187/207/202 202/226/202
f 180/203/203 196/231/203 181/208/203
f 173/205/204 189/232/204 174/209/204
f 181/208/205 197/233/205 182/210/205
f 175/211/206 189/232/206 190/234/206
f 182/210/207 198/235/207 183/212/207
f 175/211/208 191/236/208 176/213/208
f 308/237/209 202/226/209 217/238/209
f 195/227/210 211/239/210 196/231/210
f 189/232/211 203/240/211 204/241/211
f 196/231/212 212/242/212 197/233/212
f 190/234/213 204/241/213 205/243/213
f 197/233/214 213/244/214 198/235/214
f 190/234/215 206/245/215 191/236/215
f 198/235/216 214/246/216 199/220/216
f 191/236/217 207/247/217 192/221/217
f 200/222/218 214/246/218 215/248/218
f 193/223/219 207/247/219 208/249/219
f 201/224/220 215/248/220 216/250/220
f 194/225/221 208/249/221 209/251/221
f 201/224/222 217/238/222 202/226/222
f 195/227/223 209/251/223 210/252/223
f 188/229/224 82/253/224 203/240/224
f 214/246/225 230/254/225 215/248/225
f 207/247/226 223/255/226 208/249/226
f 215/248/227 231/256/227 216/250/227
f 208/249/228 224/257/228 209/251/228
f 217/238/229 231/256/229 232/258/229
f 210/252/230 224/257/230 225/259/230
f 203/240/231 82/260/231 218/261/231
f 308/262/232 217/238/232 232/258/232
f 210/252/233 226/263/233 211/239/233
f 204/241/234 218/261/234 219/264/234
f 211/239/235 227/265/235 212/242/235
f 205/243/236 219/264/236 220/266/236
f 213/244/237 227/265/237 228/267/237
f 205/243/238 221/268/238 206/245/238
f 213/244/239 229/269/239 214/246/239
f 207/247/240 221/268/240 222/270/240
f 218/261/241 234/271/241 219/264/241
f 226/263/242 242/272/242 227/265/242
f 219/264/243 235/273/243 220/266/243
f 227/265/244 243/274/244 228/267/244
f 220/266/245 236/275/245 221/268/245
f 228/267/246 244/276/246 229/269/246
f 222/270/247 236/275/247 237/277/247
f 230/254/248 244/276/248 245/278/248
f 223/255/249 237/277/249 238/279/249
f 230/254/250 246/280/250 231/256/250
f 223/255/251 239/281/251 224/257/251
f 232/258/252 246/280/252 247/282/252
f 225/259/253 239/281/253 240/283/253
f 218/261/254 82/284/254 233/285/254
f 308/286/255 232/258/255 247/282/255
f 225/259/256 241/287/256 226/263/256
f 237/277/257 253/288/257 238/279/257
f 245/278/258 261/289/258 246/280/258
f 239/281/259 253/288/259 254/290/259
f 247/282/260 261/289/260 262/291/260
f 240/283/261 254/290/261 255/292/261
f 233/285/262 82/293/262 248/294/262
f 308/295/263 247/282/263 262/291/263
f 240/283/264 256/296/264 241/287/264
f 233/285/265 249/297/265 234/271/265
f 241/287/266 257/298/266 242/272/266
f 235/273/267 249/297/267 250/299/267
f 243/274/268 257/298/268 258/300/268
f 236/275/269 250/299/269 251/301/269
f 243/274/270 259/302/270 244/276/270
f 237/277/271 251/301/271 252/303/271
f 244/276/272 260/304/272 245/278/272
f 256/296/273 272/305/273 257/298/273
f 250/299/274 264/306/274 265/307/274
f 257/298/275 273/308/275 258/300/275
f 250/299/276 266/309/276 251/301/276
f 258/300/277 274/310/277 259/302/277
f 251/301/278 267/311/278 252/303/278
f 260/304/279 274/310/279 275/312/279
f 252/303/280 268/313/280 253/288/280
f 261/289/281 275/312/281 276/314/281
f 254/290/282 268/313/282 269/315/282
f 262/291/283 276/314/283 277/316/283
f 255/292/284 269/315/284 270/317/284
f 248/294/285 82/318/285 263/319/285
f 308/320/286 262/291/286 277/316/286
f 256/296/287 270/317/287 271/321/287
f 249/297/288 263/319/288 264/306/288
f 275/312/289 291/322/289 276/314/289
f 269/315/290 283/323/290 284/324/290
f 276/314/291 292/325/291 277/316/291
f 270/317/292 284/324/292 285/326/292
f 263/319/293 82/327/293 278/328/293
f 308/329/294 277/316/294 292/325/294
f 270/317/295 286/330/295 271/321/295
f 263/319/296 279/331/296 264/306/296
f 271/321/297 287/332/297 272/305/297
f 265/307/298 279/331/298 280/333/298
f 273/308/299 287/332/299 288/334/299
f 265/307/300 281/335/300 266/309/300
f 274/310/301 288/334/301 289/336/301
f 266/309/302 282/337/302 267/311/302
f 275/312/303 289/336/303 290/338/303
f 267/311/304 283/323/304 268/313/304
f 280/333/305 294/339/305 295/340/305
f 288/334/306 302/341/306 303/342/306
f 281/335/307 295/340/307 296/343/307
f 289/336/308 303/342/308 304/344/308
f 282/337/309 296/343/309 297/345/309
f 290/338/310 304/344/310 305/346/310
f 282/337/311 298/347/311 283/323/311
f 291/322/312 305/346/312 306/348/312
f 283/323/313 299/349/313 284/324/313
f 292/325/314 306/348/314 307/350/314
f 285/326/315 299/349/315 300/351/315
f 278/328/316 82/352/316 293/353/316
f 308/354/317 292/325/317 307/350/317
f 285/326/318 301/355/318 286/330/318
f 279/331/319 293/353/319 294/339/319
f 287/332/320 301/355/320 302/341/320
f 298/347/321 315/356/321 299/349/321
f 306/348/322 323/357/322 307/350/322
f 299/349/323 316/358/323 300/351/323
f 293/353/324 82/359/324 309/360/324
f 308/361/325 307/350/325 323/357/325
f 300/351/326 317/362/326 301/355/326
f 293/353/327 310/363/327 294/339/327
f 302/341/328 317/362/328 318/364/328
f 294/339/329 311/365/329 295/340/329
f 303/342/330 318/364/330 319/366/330
f 295/340/331 312/367/331 296/343/331
f 303/342/332 320/368/332 304/344/332
f 297/345/333 312/367/333 313/369/333
f 305/346/334 320/368/334 321/370/334
f 298/347/335 313/369/335 314/371/335
f 306/348/336 321/370/336 322/372/336
f 319/366/337 333/373/337 334/374/337
f 311/365/338 327/375/338 312/367/338
f 320/368/339 334/374/339 335/376/339
f 312/367/340 328/377/340 313/369/340
f 320/368/341 336/378/341 321/370/341
f 313/369/342 329/379/342 314/371/342
f 321/370/343 337/380/343 322/372/343
f 314/371/344 330/381/344 315/356/344
f 323/357/345 337/380/345 338/382/345
f 316/358/346 330/381/346 331/383/346
f 309/360/347 82/384/347 324/385/347
f 308/386/348 323/357/348 338/382/348
f 316/358/349 332/387/349 317/362/349
f 309/360/350 325/388/350 310/363/350
f 317/362/351 333/373/351 318/364/351
f 311/365/352 325/388/352 326/389/352
f 337/380/353 353/390/353 338/382/353
f 331/383/354 345/391/354 346/392/354
f 324/385/355 82/393/355 339/394/355
f 308/395/356 338/382/356 353/390/356
f 331/383/357 347/396/357 332/387/357
f 324/385/358 340/397/358 325/388/358
f 333/373/359 347/396/359 348/398/359
f 325/388/360 341/399/360 326/389/360
f 334/374/361 348/398/361 349/400/361
f 326/389/362 342/401/362 327/375/362
f 334/374/363 350/402/363 335/376/363
f 328/377/364 342/401/364 343/403/364
f 335/376/365 351/404/365 336/378/365
f 328/377/366 344/405/366 329/379/366
f 336/378/367 352/406/367 337/380/367
f 329/379/368 345/391/368 330/381/368
f 349/400/369 365/407/369 350/402/369
f 343/403/370 357/408/370 358/409/370
f 351/404/371 365/407/371 366/410/371
f 343/403/372 359/411/372 344/405/372
f 351/404/373 367/412/373 352/406/373
f 345/391/374 359/411/374 360/413/374
f 352/406/375 368/414/375 353/390/375
f 346/392/376 360/413/376 361/415/376
f 339/394/377 82/416/377 354/417/377
f 308/418/378 353/390/378 368/414/378
f 346/392/379 362/419/379 347/396/379
f 339/394/380 355/420/380 340/397/380
f 347/396/381 363/421/381 348/398/381
f 340/397/382 356/422/382 341/399/382
f 349/400/383 363/421/383 364/423/383
f 341/399/384 357/408/384 342/401/384
f 354/424/385 82/425/385 369/426/385
f 308/427/386 368/428/386 383/429/386
f 361/430/387 377/431/387 362/432/387
f 355/433/388 369/426/388 370/434/388
f 362/432/389 378/435/389 363/436/389
f 355/433/390 371/437/390 356/438/390
f 364/439/391 378/435/391 379/440/391
f 356/438/392 372/441/392 357/442/392
f 365/443/393 379/440/393 380/444/393
f 357/442/394 373/445/394 358/446/394
f 366/447/395 380/444/395 381/448/395
f 358/446/396 374/449/396 359/450/396
f 366/447/397 382/451/397 367/452/397
f 360/453/398 374/449/398 375/454/398
f 367/452/399 383/429/399 368/428/399
f 361/430/400 375/454/400 376/455/400
f 372/441/401 388/456/401 373/445/401
f 380/444/402 396/457/402 381/448/402
f 373/445/403 389/458/403 374/449/403
f 381/448/404 397/459/404 382/451/404
f 375/454/405 389/458/405 390/460/405
f 383/429/406 397/459/406 398/461/406
f 375/454/407 391/462/407 376/455/407
f 369/426/408 82/463/408 384/464/408
f 308/465/409 383/429/409 398/461/409
f 376/455/410 392/466/410 377/431/410
f 369/426/411 385/467/411 370/434/411
f 377/431/412 393/468/412 378/435/412
f 370/434/413 386/469/413 371/437/413
f 379/440/414 393/468/414 394/470/414
f 372/441/415 386/469/415 387/471/415
f 380/444/416 394/470/416 395/472/416
f 391/462/417 407/473/417 392/466/417
f 384/464/418 400/474/418 385/467/418
f 392/466/419 408/475/419 393/468/419
f 385/467/420 401/476/420 386/469/420
f 393/468/421 409/477/421 394/470/421
f 387/471/422 401/476/422 402/478/422
f 394/470/423 410/479/423 395/472/423
f 387/471/424 403/480/424 388/456/424
f 395/472/425 411/481/425 396/457/425
f 389/458/426 403/480/426 404/482/426
f 397/459/427 411/481/427 412/483/427
f 390/460/428 404/482/428 405/484/428
f 398/461/429 412/483/429 413/485/429
f 391/462/430 405/484/430 406/486/430
f 384/464/431 82/487/431 399/488/431
f 308/489/432 398/461/432 413/485/432
f 410/479/433 426/490/433 411/481/433
f 403/480/434 419/491/434 404/482/434
f 411/481/435 427/492/435 412/483/435
f 405/484/436 419/491/436 420/493/436
f 412/483/437 428/494/437 413/485/437
f 406/486/438 420/493/438 421/495/438
f 399/488/439 82/496/439 414/497/439
f 308/498/440 413/485/440 428/494/440
f 406/486/441 422/499/441 407/473/441
f 400/474/442 414/497/442 415/500/442
f 407/473/443 423/501/443 408/475/443
f 401/476/444 415/500/444 416/502/444
f 409/477/445 423/501/445 424/503/445
f 402/478/446 416/502/446 417/504/446
f 410/479/447 424/503/447 425/505/447
f 402/478/448 418/506/448 403/480/448
f 415/500/449 429/507/449 430/508/449
f 422/499/450 438/509/450 423/501/450
f 415/500/451 431/510/451 416/502/451
f 424/503/452 438/509/452 439/511/452
f 416/502/453 432/512/453 417/504/453
f 424/503/454 440/513/454 425/505/454
f 417/504/455 433/514/455 418/506/455
f 425/505/456 441/515/456 426/490/456
f 418/506/457 434/516/457 419/491/457
f 426/490/458 442/517/458 427/492/458
f 420/493/459 434/516/459 435/518/459
f 427/492/460 443/519/460 428/494/460
f 421/495/461 435/518/461 436/520/461
f 414/497/462 82/521/462 429/507/462
f 308/522/463 428/494/463 443/519/463
f 421/495/464 437/523/464 422/499/464
f 433/514/465 449/524/465 434/516/465
f 441/515/466 457/525/466 442/517/466
f 435/518/467 449/524/467 450/526/467
f 443/519/468 457/525/468 458/527/468
f 436/520/469 450/526/469 451/528/469
f 429/507/470 82/529/470 444/530/470
f 308/531/471 443/519/471 458/527/471
f 436/520/472 452/532/472 437/523/472
f 429/507/473 445/533/473 430/508/473
f 437/523/474 453/534/474 438/509/474
f 431/510/475 445/533/475 446/535/475
f 439/511/476 453/534/476 454/536/476
f 432/512/477 446/535/477 447/537/477
f 439/511/478 455/538/478 440/513/478
f 433/514/479 447/537/479 448/539/479
f 440/513/480 456/540/480 441/515/480
f 452/532/481 468/541/481 453/534/481
f 445/533/482 461/542/482 446/535/482
f 454/536/483 468/541/483 469/543/483
f 447/537/484 461/542/484 462/544/484
f 454/536/485 470/545/485 455/538/485
f 447/537/486 463/546/486 448/539/486
f 456/540/487 470/545/487 471/547/487
f 448/539/488 464/548/488 449/524/488
f 456/540/489 472/549/489 457/525/489
f 450/526/490 464/548/490 465/550/490
f 458/527/491 472/549/491 473/551/491
f 451/528/492 465/550/492 466/552/492
f 444/530/493 82/553/493 459/554/493
f 308/555/494 458/527/494 473/551/494
f 451/528/495 467/556/495 452/532/495
f 445/533/496 459/554/496 460/557/496
f 472/549/497 480/1/497 481/3/497
f 464/548/498 3/6/498 465/550/498
f 473/551/499 481/3/499 482/7/499
f 466/552/500 3/6/500 4/9/500
f 459/554/501 82/558/501 474/11/501
f 308/559/502 473/551/502 482/7/502
f 466/552/503 5/16/503 467/556/503
f 460/557/504 474/11/504 475/18/504
f 467/556/505 478/19/505 468/541/505
f 461/542/506 475/18/506 1/21/506
f 468/541/507 6/23/507 469/543/507
f 461/542/508 476/25/508 462/544/508
f 469/543/509 479/28/509 470/545/509
f 463/546/510 476/25/510 2/29/510
f 470/545/511 480/1/511 471/547/511
f 464/548/512 2/29/512 477/4/512
f 480/1/1 19/31/1 20/2/1
f 477/4/2 12/32/2 13/5/2
f 482/7/3 481/3/3 20/2/3
f 4/9/513 3/6/513 13/5/513
f 4/9/514 14/10/514 15/15/514
f 474/11/8 7/13/8 8/17/8
f 478/19/9 5/16/9 15/15/9
f 1/21/10 475/18/10 8/17/10
f 6/23/11 478/19/11 16/20/11
f 476/25/12 1/21/12 9/22/12
f 6/23/13 17/24/13 18/27/13
f 2/29/14 476/25/14 10/26/14
f 479/28/15 18/27/15 19/31/15
f 2/29/16 11/30/16 12/32/16
f 10/26/17 25/49/17 26/33/17
f 19/31/18 18/27/18 33/34/18
f 12/32/515 11/30/515 26/33/515
f 19/31/20 34/35/20 35/37/20
f 13/5/21 12/32/21 27/36/21
f 20/2/516 35/37/516 36/39/516
f 13/5/23 28/38/23 29/40/23
f 15/15/26 14/10/26 29/40/26
f 8/17/517 7/13/517 22/42/517
f 16/20/28 15/15/28 30/44/28
f 8/17/29 23/45/29 24/47/29
f 17/24/30 16/20/30 31/46/30
f 9/22/31 24/47/31 25/49/31
f 17/24/32 32/48/32 33/34/32
f 30/44/518 29/40/518 44/50/518
f 22/42/519 37/65/519 38/52/519
f 30/44/35 45/51/35 46/53/35
f 24/47/520 23/45/520 38/52/520
f 31/46/37 46/53/37 47/55/37
f 24/47/38 39/54/38 40/56/38
f 32/48/39 47/55/39 48/57/39
f 25/49/40 40/56/40 41/58/40
f 34/35/41 33/34/41 48/57/41
f 26/33/42 41/58/42 42/60/42
f 35/37/521 34/35/521 49/59/521
f 28/38/44 27/36/44 42/60/44
f 36/39/522 35/37/522 50/61/522
f 28/38/523 43/62/523 44/50/523
f 48/57/49 63/82/49 64/67/49
f 41/58/50 56/83/50 57/68/50
f 49/59/51 64/67/51 65/69/51
f 42/60/52 57/68/52 58/70/52
f 51/63/53 50/61/53 65/69/53
f 44/50/54 43/62/54 58/70/54
f 44/50/57 59/72/57 60/76/57
f 37/65/58 52/74/58 53/77/58
f 45/51/59 60/76/59 61/78/59
f 39/54/60 38/52/60 53/77/60
f 47/55/61 46/53/61 61/78/61
f 40/56/62 39/54/62 54/79/62
f 48/57/63 47/55/63 62/80/63
f 40/56/64 55/81/64 56/83/64
f 60/76/65 75/99/65 76/84/65
f 53/77/66 68/100/66 69/85/66
f 62/80/67 61/78/67 76/84/67
f 54/79/68 69/85/68 70/87/68
f 63/82/69 62/80/69 77/86/69
f 55/81/70 70/87/70 71/89/70
f 63/82/71 78/88/71 79/90/71
f 56/83/72 71/89/72 72/91/72
f 65/69/73 64/67/73 79/90/73
f 57/68/74 72/91/74 73/93/74
f 66/71/75 65/69/75 80/92/75
f 58/70/76 73/93/76 74/95/76
f 59/72/79 74/95/79 75/99/79
f 52/74/80 67/97/80 68/100/80
f 79/90/524 95/117/524 96/101/524
f 73/93/82 72/91/82 88/102/82
f 81/94/83 80/92/83 96/101/83
f 73/93/525 89/103/525 90/105/525
f 74/95/526 90/105/526 91/109/526
f 67/97/88 83/107/88 84/110/88
f 75/99/89 91/109/89 92/111/89
f 68/100/527 84/110/527 85/112/527
f 77/86/91 76/84/91 92/111/91
f 69/85/92 85/112/92 86/114/92
f 77/86/93 93/113/93 94/115/93
f 71/89/94 70/87/94 86/114/94
f 78/88/95 94/115/95 95/117/95
f 71/89/96 87/116/96 88/102/96
f 84/110/97 99/134/97 100/118/97
f 93/113/528 92/111/528 107/119/528
f 85/112/99 100/118/99 101/121/99
f 93/113/100 108/120/100 109/122/100
f 87/116/101 86/114/101 101/121/101
f 95/117/102 94/115/102 109/122/102
f 87/116/529 102/123/529 103/125/529
f 96/101/104 95/117/104 110/124/104
f 88/102/105 103/125/105 104/127/105
f 96/101/530 111/126/530 112/128/530
f 89/103/107 104/127/107 105/129/107
f 91/109/110 90/105/110 105/129/110
f 83/107/111 98/131/111 99/134/111
f 91/109/112 106/133/112 107/119/112
f 104/127/113 103/125/113 118/135/113
f 111/126/114 126/151/114 127/137/114
f 104/127/531 119/136/531 120/138/531
f 106/133/532 105/129/532 120/138/532
f 99/134/533 98/131/533 113/140/533
f 106/133/120 121/142/120 122/144/120
f 99/134/121 114/143/121 115/145/121
f 108/120/122 107/119/122 122/144/122
f 101/121/123 100/118/123 115/145/123
f 109/122/124 108/120/124 123/146/124
f 102/123/125 101/121/125 116/147/125
f 110/124/126 109/122/126 124/148/126
f 102/123/127 117/149/127 118/135/127
f 110/124/128 125/150/128 126/151/128
f 123/146/129 122/144/129 137/152/129
f 115/145/130 130/168/130 131/154/130
f 123/146/131 138/153/131 139/155/131
f 116/147/132 131/154/132 132/156/132
f 124/148/133 139/155/133 140/157/133
f 117/149/134 132/156/134 133/158/134
f 126/151/135 125/150/135 140/157/135
f 119/136/136 118/135/136 133/158/136
f 127/137/137 126/151/137 141/159/137
f 119/136/138 134/160/138 135/162/138
f 121/142/141 120/138/141 135/162/141
f 113/140/142 128/164/142 129/167/142
f 121/142/143 136/166/143 137/152/143
f 114/143/144 129/167/144 130/168/144
f 141/159/145 156/184/145 157/169/145
f 134/160/146 149/185/146 150/170/146
f 135/162/149 150/170/149 151/174/149
f 129/167/150 128/164/150 143/172/150
f 137/152/151 136/166/151 151/174/151
f 130/168/534 129/167/534 144/175/534
f 137/152/535 152/176/535 153/178/535
f 130/168/154 145/177/154 146/179/154
f 138/153/155 153/178/155 154/180/155
f 131/154/156 146/179/156 147/181/156
f 140/157/157 139/155/157 154/180/157
f 132/156/536 147/181/536 148/183/536
f 140/157/537 155/182/537 156/184/537
f 134/160/160 133/158/160 148/183/160
f 145/177/161 160/201/161 161/186/161
f 153/178/162 168/202/162 169/187/162
f 147/181/163 146/179/163 161/186/163
f 155/182/164 154/180/164 169/187/164
f 147/181/165 162/188/165 163/190/165
f 156/184/538 155/182/538 170/189/538
f 148/183/167 163/190/167 164/192/167
f 156/184/168 171/191/168 172/193/168
f 149/185/539 164/192/539 165/194/539
f 151/174/540 150/170/540 165/194/540
f 144/175/173 143/172/173 158/196/173
f 152/176/174 151/174/174 166/198/174
f 144/175/175 159/199/175 160/201/175
f 153/178/176 152/176/176 167/200/176
f 164/192/541 179/219/541 180/203/541
f 165/194/180 180/203/180 181/208/180
f 158/196/181 173/205/181 174/209/181
f 166/198/182 181/208/182 182/210/182
f 159/199/183 174/209/183 175/211/183
f 168/202/184 167/200/184 182/210/184
f 161/186/185 160/201/185 175/211/185
f 169/187/186 168/202/186 183/212/186
f 161/186/187 176/213/187 177/215/187
f 169/187/188 184/214/188 185/216/188
f 162/188/189 177/215/189 178/217/189
f 170/189/190 185/216/190 186/218/190
f 164/192/191 163/190/191 178/217/191
f 172/193/542 171/191/542 186/218/542
f 183/212/193 198/235/193 199/220/193
f 176/213/194 191/236/194 192/221/194
f 184/214/195 199/220/195 200/222/195
f 178/217/196 177/215/196 192/221/196
f 185/216/197 200/222/197 201/224/197
f 179/219/198 178/217/198 193/223/198
f 186/218/199 201/224/199 202/226/199
f 180/203/543 179/219/543 194/225/543
f 180/203/544 195/227/544 196/231/544
f 173/205/204 188/229/204 189/232/204
f 181/208/205 196/231/205 197/233/205
f 175/211/206 174/209/206 189/232/206
f 182/210/207 197/233/207 198/235/207
f 175/211/208 190/234/208 191/236/208
f 195/227/545 210/252/545 211/239/545
f 189/232/211 188/229/211 203/240/211
f 196/231/212 211/239/212 212/242/212
f 190/234/213 189/232/213 204/241/213
f 197/233/214 212/242/214 213/244/214
f 190/234/215 205/243/215 206/245/215
f 198/235/216 213/244/216 214/246/216
f 191/236/217 206/245/217 207/247/217
f 200/222/218 199/220/218 214/246/218
f 193/223/219 192/221/219 207/247/219
f 201/224/220 200/222/220 215/248/220
f 194/225/221 193/223/221 208/249/221
f 201/224/222 216/250/222 217/238/222
f 195/227/546 194/225/546 209/251/546
f 214/246/225 229/269/225 230/254/225
f 207/247/226 222/270/226 223/255/226
f 215/248/227 230/254/227 231/256/227
f 208/249/228 223/255/228 224/257/228
f 217/238/547 216/250/547 231/256/547
f 210/252/548 209/251/548 224/257/548
f 210/252/549 225/259/549 226/263/549
f 204/241/550 203/240/550 218/261/550
f 211/239/235 226/263/235 227/265/235
f 205/243/236 204/241/236 219/264/236
f 213/244/237 212/242/237 227/265/237
f 205/243/238 220/266/238 221/268/238
f 213/244/239 228/267/239 229/269/239
f 207/247/240 206/245/240 221/268/240
f 218/261/241 233/285/241 234/271/241
f 226/263/242 241/287/242 242/272/242
f 219/264/243 234/271/243 235/273/243
f 227/265/244 242/272/244 243/274/244
f 220/266/245 235/273/245 236/275/245
f 228/267/246 243/274/246 244/276/246
f 222/270/247 221/268/247 236/275/247
f 230/254/248 229/269/248 244/276/248
f 223/255/249 222/270/249 237/277/249
f 230/254/250 245/278/250 246/280/250
f 223/255/251 238/279/251 239/281/251
f 232/258/252 231/256/252 246/280/252
f 225/259/551 224/257/551 239/281/551
f 225/259/552 240/283/552 241/287/552
f 237/277/257 252/303/257 253/288/257
f 245/278/258 260/304/258 261/289/258
f 239/281/259 238/279/259 253/288/259
f 247/282/553 246/280/553 261/289/553
f 240/283/261 239/281/261 254/290/261
f 240/283/264 255/292/264 256/296/264
f 233/285/265 248/294/265 249/297/265
f 241/287/266 256/296/266 257/298/266
f 235/273/267 234/271/267 249/297/267
f 243/274/268 242/272/268 257/298/268
f 236/275/269 235/273/269 250/299/269
f 243/274/270 258/300/270 259/302/270
f 237/277/271 236/275/271 251/301/271
f 244/276/272 259/302/272 260/304/272
f 256/296/273 271/321/273 272/305/273
f 250/299/274 249/297/274 264/306/274
f 257/298/275 272/305/275 273/308/275
f 250/299/276 265/307/276 266/309/276
f 258/300/277 273/308/277 274/310/277
f 251/301/278 266/309/278 267/311/278
f 260/304/279 259/302/279 274/310/279
f 252/303/554 267/311/554 268/313/554
f 261/289/281 260/304/281 275/312/281
f 254/290/282 253/288/282 268/313/282
f 262/291/555 261/289/555 276/314/555
f 255/292/284 254/290/284 269/315/284
f 256/296/287 255/292/287 270/317/287
f 249/297/556 248/294/556 263/319/556
f 275/312/289 290/338/289 291/322/289
f 269/315/290 268/313/290 283/323/290
f 276/314/291 291/322/291 292/325/291
f 270/317/557 269/315/557 284/324/557
f 270/317/558 285/326/558 286/330/558
f 263/319/559 278/328/559 279/331/559
f 271/321/297 286/330/297 287/332/297
f 265/307/560 264/306/560 279/331/560
f 273/308/299 272/305/299 287/332/299
f 265/307/300 280/333/300 281/335/300
f 274/310/301 273/308/301 288/334/301
f 266/309/302 281/335/302 282/337/302
f 275/312/303 274/310/303 289/336/303
f 267/311/304 282/337/304 283/323/304
f 280/333/305 279/331/305 294/339/305
f 288/334/306 287/332/306 302/341/306
f 281/335/307 280/333/307 295/340/307
f 289/336/308 288/334/308 303/342/308
f 282/337/309 281/335/309 296/343/309
f 290/338/310 289/336/310 304/344/310
f 282/337/311 297/345/311 298/347/311
f 291/322/312 290/338/312 305/346/312
f 283/323/313 298/347/313 299/349/313
f 292/325/314 291/322/314 306/348/314
f 285/326/561 284/324/561 299/349/561
f 285/326/562 300/351/562 301/355/562
f 279/331/319 278/328/319 293/353/319
f 287/332/320 286/330/320 301/355/320
f 298/347/321 314/371/321 315/356/321
f 306/348/563 322/372/563 323/357/563
f 299/349/564 315/356/564 316/358/564
f 300/351/326 316/358/326 317/362/326
f 293/353/565 309/360/565 310/363/565
f 302/341/328 301/355/328 317/362/328
f 294/339/329 310/363/329 311/365/329
f 303/342/330 302/341/330 318/364/330
f 295/340/331 311/365/331 312/367/331
f 303/342/332 319/366/332 320/368/332
f 297/345/333 296/343/333 312/367/333
f 305/346/334 304/344/334 320/368/334
f 298/347/335 297/345/335 313/369/335
f 306/348/336 305/346/336 321/370/336
f 319/366/337 318/364/337 333/373/337
f 311/365/338 326/389/338 327/375/338
f 320/368/339 319/366/339 334/374/339
f 312/367/340 327/375/340 328/377/340
f 320/368/341 335/376/341 336/378/341
f 313/369/342 328/377/342 329/379/342
f 321/370/343 336/378/343 337/380/343
f 314/371/344 329/379/344 330/381/344
f 323/357/345 322/372/345 337/380/345
f 316/358/346 315/356/346 330/381/346
f 316/358/349 331/383/349 332/387/349
f 309/360/350 324/385/350 325/388/350
f 317/362/351 332/387/351 333/373/351
f 311/365/352 310/363/352 325/388/352
f 337/380/566 352/406/566 353/390/566
f 331/383/354 330/381/354 345/391/354
f 331/383/357 346/392/357 347/396/357
f 324/385/358 339/394/358 340/397/358
f 333/373/359 332/387/359 347/396/359
f 325/388/360 340/397/360 341/399/360
f 334/374/361 333/373/361 348/398/361
f 326/389/362 341/399/362 342/401/362
f 334/374/363 349/400/363 350/402/363
f 328/377/364 327/375/364 342/401/364
f 335/376/365 350/402/365 351/404/365
f 328/377/366 343/403/366 344/405/366
f 336/378/567 351/404/567 352/406/567
f 329/379/368 344/405/368 345/391/368
f 349/400/369 364/423/369 365/407/369
f 343/403/370 342/401/370 357/408/370
f 351/404/371 350/402/371 365/407/371
f 343/403/372 358/409/372 359/411/372
f 351/404/373 366/410/373 367/412/373
f 345/391/374 344/405/374 359/411/374
f 352/406/375 367/412/375 368/414/375
f 346/392/376 345/391/376 360/413/376
f 346/392/379 361/415/379 362/419/379
f 339/394/380 354/417/380 355/420/380
f 347/396/381 362/419/381 363/421/381
f 340/397/382 355/420/382 356/422/382
f 349/400/383 348/398/383 363/421/383
f 341/399/384 356/422/384 357/408/384
f 361/430/568 376/455/568 377/431/568
f 355/433/569 354/424/569 369/426/569
f 362/432/389 377/431/389 378/435/389
f 355/433/390 370/434/390 371/437/390
f 364/439/391 363/436/391 378/435/391
f 356/438/392 371/437/392 372/441/392
f 365/443/393 364/439/393 379/440/393
f 357/442/394 372/441/394 373/445/394
f 366/447/395 365/443/395 380/444/395
f 358/446/396 373/445/396 374/449/396
f 366/447/397 381/448/397 382/451/397
f 360/453/398 359/450/398 374/449/398
f 367/452/570 382/451/570 383/429/570
f 361/430/571 360/453/571 375/454/571
f 372/441/401 387/471/401 388/456/401
f 380/444/402 395/472/402 396/457/402
f 373/445/403 388/456/403 389/458/403
f 381/448/404 396/457/404 397/459/404
f 375/454/405 374/449/405 389/458/405
f 383/429/572 382/451/572 397/459/572
f 375/454/407 390/460/407 391/462/407
f 376/455/410 391/462/410 392/466/410
f 369/426/411 384/464/411 385/467/411
f 377/431/412 392/466/412 393/468/412
f 370/434/413 385/467/413 386/469/413
f 379/440/414 378/435/414 393/468/414
f 372/441/415 371/437/415 386/469/415
f 380/444/416 379/440/416 394/470/416
f 391/462/573 406/486/573 407/473/573
f 384/464/574 399/488/574 400/474/574
f 392/466/419 407/473/419 408/475/419
f 385/467/420 400/474/420 401/476/420
f 393/468/421 408/475/421 409/477/421
f 387/471/422 386/469/422 401/476/422
f 394/470/423 409/477/423 410/479/423
f 387/471/424 402/478/424 403/480/424
f 395/472/425 410/479/425 411/481/425
f 389/458/426 388/456/426 403/480/426
f 397/459/427 396/457/427 411/481/427
f 390/460/428 389/458/428 404/482/428
f 398/461/575 397/459/575 412/483/575
f 391/462/576 390/460/576 405/484/576
f 410/479/433 425/505/433 426/490/433
f 403/480/434 418/506/434 419/491/434
f 411/481/435 426/490/435 427/492/435
f 405/484/436 404/482/436 419/491/436
f 412/483/577 427/492/577 428/494/577
f 406/486/438 405/484/438 420/493/438
f 406/486/441 421/495/441 422/499/441
f 400/474/578 399/488/578 414/497/578
f 407/473/443 422/499/443 423/501/443
f 401/476/444 400/474/444 415/500/444
f 409/477/445 408/475/445 423/501/445
f 402/478/446 401/476/446 416/502/446
f 410/479/447 409/477/447 424/503/447
f 402/478/448 417/504/448 418/506/448
f 415/500/449 414/497/449 429/507/449
f 422/499/450 437/523/450 438/509/450
f 415/500/451 430/508/451 431/510/451
f 424/503/452 423/501/452 438/509/452
f 416/502/453 431/510/453 432/512/453
f 424/503/454 439/511/454 440/513/454
f 417/504/455 432/512/455 433/514/455
f 425/505/456 440/513/456 441/515/456
f 418/506/457 433/514/457 434/516/457
f 426/490/458 441/515/458 442/517/458
f 420/493/459 419/491/459 434/516/459
f 427/492/460 442/517/460 443/519/460
f 421/495/461 420/493/461 435/518/461
f 421/495/464 436/520/464 437/523/464
f 433/514/465 448/539/465 449/524/465
f 441/515/579 456/540/579 457/525/579
f 435/518/467 434/516/467 449/524/467
f 443/519/580 442/517/580 457/525/580
f 436/520/469 435/518/469 450/526/469
f 436/520/472 451/528/472 452/532/472
f 429/507/473 444/530/473 445/533/473
f 437/523/474 452/532/474 453/534/474
f 431/510/581 430/508/581 445/533/581
f 439/511/476 438/509/476 453/534/476
f 432/512/477 431/510/477 446/535/477
f 439/511/478 454/536/478 455/538/478
f 433/514/479 432/512/479 447/537/479
f 440/513/480 455/538/480 456/540/480
f 452/532/481 467/556/481 468/541/481
f 445/533/482 460/557/482 461/542/482
f 454/536/582 453/534/582 468/541/582
f 447/537/484 446/535/484 461/542/484
f 454/536/485 469/543/485 470/545/485
f 447/537/486 462/544/486 463/546/486
f 456/540/487 455/538/487 470/545/487
f 448/539/583 463/546/583 464/548/583
f 456/540/489 471/547/489 472/549/489
f 450/526/490 449/524/490 464/548/490
f 458/527/584 457/525/584 472/549/584
f 451/528/492 450/526/492 465/550/492
f 451/528/495 466/552/495 467/556/495
f 445/533/585 444/530/585 459/554/585
f 472/549/497 471/547/497 480/1/497
f 464/548/498 477/4/498 3/6/498
f 473/551/586 472/549/586 481/3/586
f 466/552/587 465/550/587 3/6/587
f 466/552/588 4/9/588 5/16/588
f 460/557/504 459/554/504 474/11/504
f 467/556/505 5/16/505 478/19/505
f 461/542/506 460/557/506 475/18/506
f 468/541/507 478/19/507 6/23/507
f 461/542/508 1/21/508 476/25/508
f 469/543/509 6/23/509 479/28/509
f 463/546/510 462/544/510 476/25/510
f 470/545/511 479/28/511 480/1/511
f 464/548/512 463/546/512 2/29/512
