# Blender 4.4.0
# www.blender.org
mtllib Z_bullet.mtl
o tama
v 0.000000 0.414752 -0.277128
v 0.000000 0.277128 -0.414751
v 0.000000 0.097315 -0.489233
v 0.000000 -0.000000 -0.498817
v 0.000000 -0.097314 -0.489233
v 0.000000 -0.277128 -0.414751
v 0.018985 0.489233 -0.095445
v 0.037241 0.460847 -0.187221
v 0.054065 0.414752 -0.271803
v 0.068812 0.352717 -0.345940
v 0.080914 0.277128 -0.406782
v 0.089907 0.190889 -0.451992
v 0.095445 0.097315 -0.479832
v 0.097314 -0.000000 -0.489233
v 0.095445 -0.097314 -0.479832
v 0.089907 -0.190889 -0.451992
v 0.080914 -0.277128 -0.406782
v 0.068812 -0.352717 -0.345940
v 0.054065 -0.414751 -0.271803
v 0.037241 -0.460847 -0.187221
v 0.018985 -0.489233 -0.095445
v 0.037241 0.489233 -0.089907
v 0.073050 0.460847 -0.176359
v 0.106052 0.414752 -0.256033
v 0.134979 0.352717 -0.325868
v 0.158719 0.277128 -0.383180
v 0.176359 0.190889 -0.425767
v 0.187221 0.097315 -0.451992
v 0.190889 -0.000000 -0.460847
v 0.187221 -0.097314 -0.451992
v 0.176359 -0.190889 -0.425767
v 0.158719 -0.277128 -0.383180
v 0.134979 -0.352717 -0.325868
v 0.106052 -0.414751 -0.256033
v 0.073050 -0.460847 -0.176359
v 0.037241 -0.489233 -0.089907
v 0.054065 0.489233 -0.080914
v 0.106052 0.460847 -0.158719
v 0.153964 0.414752 -0.230424
v 0.195959 0.352717 -0.293274
v 0.230424 0.277128 -0.344853
v 0.256033 0.190889 -0.383180
v 0.271803 0.097315 -0.406782
v 0.277128 -0.000000 -0.414751
v 0.271803 -0.097314 -0.406782
v 0.256033 -0.190889 -0.383180
v 0.230424 -0.277128 -0.344853
v 0.195959 -0.352717 -0.293274
v 0.153964 -0.414751 -0.230424
v 0.106052 -0.460847 -0.158719
v 0.054065 -0.489233 -0.080914
v 0.068812 0.489233 -0.068812
v 0.134979 0.460847 -0.134979
v 0.195959 0.414752 -0.195959
v 0.249409 0.352717 -0.249409
v 0.293274 0.277128 -0.293274
v 0.325868 0.190889 -0.325868
v 0.345940 0.097315 -0.345940
v 0.352717 -0.000000 -0.352717
v 0.345940 -0.097314 -0.345940
v 0.325868 -0.190889 -0.325868
v 0.293274 -0.277128 -0.293274
v 0.249409 -0.352717 -0.249409
v 0.195959 -0.414751 -0.195959
v 0.134979 -0.460847 -0.134979
v 0.068812 -0.489233 -0.068812
v 0.080914 0.489233 -0.054065
v 0.158719 0.460847 -0.106052
v 0.230424 0.414752 -0.153964
v 0.293274 0.352717 -0.195959
v 0.344853 0.277128 -0.230424
v 0.383180 0.190889 -0.256033
v 0.406782 0.097315 -0.271803
v 0.414751 -0.000000 -0.277128
v 0.406782 -0.097314 -0.271803
v 0.383180 -0.190889 -0.256033
v 0.344853 -0.277128 -0.230424
v 0.293274 -0.352717 -0.195959
v 0.230424 -0.414751 -0.153964
v 0.158719 -0.460847 -0.106052
v 0.080914 -0.489233 -0.054065
v 0.000000 0.498817 -0.000000
v 0.089907 0.489233 -0.037241
v 0.176359 0.460847 -0.073050
v 0.256033 0.414752 -0.106052
v 0.325868 0.352717 -0.134979
v 0.383180 0.277128 -0.158718
v 0.425767 0.190889 -0.176359
v 0.451992 0.097315 -0.187221
v 0.460847 -0.000000 -0.190889
v 0.451992 -0.097314 -0.187221
v 0.425767 -0.190889 -0.176359
v 0.383180 -0.277128 -0.158718
v 0.325868 -0.352717 -0.134979
v 0.256033 -0.414751 -0.106052
v 0.176359 -0.460847 -0.073050
v 0.089907 -0.489233 -0.037241
v 0.095445 0.489233 -0.018985
v 0.187221 0.460847 -0.037241
v 0.271803 0.414752 -0.054065
v 0.345940 0.352717 -0.068812
v 0.406782 0.277128 -0.080914
v 0.451992 0.190889 -0.089907
v 0.479832 0.097315 -0.095445
v 0.489233 -0.000000 -0.097314
v 0.479832 -0.097314 -0.095445
v 0.451992 -0.190889 -0.089907
v 0.406782 -0.277128 -0.080914
v 0.345940 -0.352717 -0.068812
v 0.271803 -0.414751 -0.054065
v 0.187221 -0.460847 -0.037241
v 0.095445 -0.489233 -0.018985
v 0.097314 0.489233 -0.000000
v 0.190889 0.460847 -0.000000
v 0.277128 0.414752 -0.000000
v 0.352717 0.352717 -0.000000
v 0.414751 0.277128 -0.000000
v 0.460847 0.190889 -0.000000
v 0.489233 0.097315 -0.000000
v 0.498817 -0.000000 -0.000000
v 0.489233 -0.097314 -0.000000
v 0.460847 -0.190889 -0.000000
v 0.414751 -0.277128 -0.000000
v 0.352717 -0.352717 -0.000000
v 0.277128 -0.414751 -0.000000
v 0.190889 -0.460847 -0.000000
v 0.097314 -0.489233 -0.000000
v 0.095445 0.489233 0.018985
v 0.187221 0.460847 0.037241
v 0.271803 0.414752 0.054065
v 0.345940 0.352717 0.068812
v 0.406782 0.277128 0.080914
v 0.451992 0.190889 0.089907
v 0.479832 0.097315 0.095445
v 0.489233 -0.000000 0.097314
v 0.479832 -0.097314 0.095445
v 0.451992 -0.190889 0.089907
v 0.406782 -0.277128 0.080914
v 0.345940 -0.352717 0.068812
v 0.271803 -0.414751 0.054065
v 0.187221 -0.460847 0.037241
v 0.095445 -0.489233 0.018985
v 0.089907 0.489233 0.037241
v 0.176359 0.460847 0.073050
v 0.256033 0.414752 0.106052
v 0.325868 0.352717 0.134979
v 0.383180 0.277128 0.158719
v 0.425767 0.190889 0.176359
v 0.451992 0.097315 0.187221
v 0.460847 -0.000000 0.190889
v 0.451992 -0.097314 0.187221
v 0.425767 -0.190889 0.176359
v 0.383180 -0.277128 0.158719
v 0.325868 -0.352717 0.134979
v 0.256033 -0.414751 0.106052
v 0.176359 -0.460847 0.073050
v 0.089907 -0.489233 0.037241
v 0.080914 0.489233 0.054065
v 0.158718 0.460847 0.106052
v 0.230423 0.414752 0.153964
v 0.293274 0.352717 0.195959
v 0.344853 0.277128 0.230424
v 0.383180 0.190889 0.256033
v 0.406782 0.097315 0.271803
v 0.414751 -0.000000 0.277128
v 0.406782 -0.097314 0.271803
v 0.383180 -0.190889 0.256033
v 0.344853 -0.277128 0.230424
v 0.293274 -0.352717 0.195959
v 0.230423 -0.414751 0.153964
v 0.158718 -0.460847 0.106052
v 0.080914 -0.489233 0.054065
v 0.068812 0.489233 0.068812
v 0.134979 0.460847 0.134979
v 0.195959 0.414752 0.195959
v 0.249409 0.352717 0.249409
v 0.293273 0.277128 0.293274
v 0.325868 0.190889 0.325868
v 0.345940 0.097315 0.345940
v 0.352717 -0.000000 0.352717
v 0.345940 -0.097314 0.345940
v 0.325868 -0.190889 0.325868
v 0.293273 -0.277128 0.293274
v 0.249409 -0.352717 0.249409
v 0.195959 -0.414751 0.195959
v 0.134979 -0.460847 0.134979
v 0.068812 -0.489233 0.068812
v 0.054065 0.489233 0.080914
v 0.106052 0.460847 0.158719
v 0.153964 0.414752 0.230424
v 0.195959 0.352717 0.293274
v 0.230423 0.277128 0.344853
v 0.256033 0.190889 0.383180
v 0.271803 0.097315 0.406782
v 0.277128 -0.000000 0.414751
v 0.271803 -0.097314 0.406782
v 0.256033 -0.190889 0.383180
v 0.230423 -0.277128 0.344853
v 0.195959 -0.352717 0.293274
v 0.153964 -0.414751 0.230424
v 0.106052 -0.460847 0.158719
v 0.054065 -0.489233 0.080914
v 0.037241 0.489233 0.089907
v 0.073050 0.460847 0.176359
v 0.106052 0.414752 0.256033
v 0.134979 0.352717 0.325868
v 0.158718 0.277128 0.383180
v 0.176359 0.190889 0.425767
v 0.187221 0.097315 0.451992
v 0.190889 -0.000000 0.460847
v 0.187221 -0.097314 0.451992
v 0.176359 -0.190889 0.425767
v 0.158718 -0.277128 0.383180
v 0.134979 -0.352717 0.325868
v 0.106052 -0.414751 0.256033
v 0.073050 -0.460847 0.176359
v 0.037241 -0.489233 0.089907
v 0.018985 0.489233 0.095445
v 0.037241 0.460847 0.187221
v 0.054065 0.414752 0.271803
v 0.068812 0.352717 0.345940
v 0.080914 0.277128 0.406782
v 0.089907 0.190889 0.451992
v 0.095444 0.097315 0.479832
v 0.097314 -0.000000 0.489232
v 0.095444 -0.097314 0.479832
v 0.089907 -0.190889 0.451992
v 0.080914 -0.277128 0.406782
v 0.068812 -0.352717 0.345940
v 0.054065 -0.414751 0.271803
v 0.037241 -0.460847 0.187221
v 0.018985 -0.489233 0.095445
v 0.000000 0.489233 0.097314
v 0.000000 0.460847 0.190889
v 0.000000 0.414752 0.277128
v 0.000000 0.352717 0.352717
v 0.000000 0.277128 0.414751
v 0.000000 0.190889 0.460847
v 0.000000 0.097315 0.489233
v 0.000000 -0.000000 0.498817
v 0.000000 -0.097314 0.489233
v 0.000000 -0.190889 0.460847
v 0.000000 -0.277128 0.414751
v 0.000000 -0.352717 0.352717
v 0.000000 -0.414751 0.277128
v 0.000000 -0.460847 0.190889
v 0.000000 -0.489233 0.097314
v -0.018985 0.489233 0.095445
v -0.037241 0.460847 0.187221
v -0.054065 0.414752 0.271803
v -0.068812 0.352717 0.345940
v -0.080914 0.277128 0.406782
v -0.089907 0.190889 0.451992
v -0.095445 0.097315 0.479832
v -0.097315 -0.000000 0.489232
v -0.095445 -0.097314 0.479832
v -0.089907 -0.190889 0.451992
v -0.080914 -0.277128 0.406782
v -0.068812 -0.352717 0.345940
v -0.054065 -0.414751 0.271803
v -0.037241 -0.460847 0.187221
v -0.018985 -0.489233 0.095445
v -0.037241 0.489233 0.089907
v -0.073050 0.460847 0.176359
v -0.106052 0.414752 0.256033
v -0.134979 0.352717 0.325868
v -0.158719 0.277128 0.383180
v -0.176358 0.190889 0.425767
v -0.187221 0.097315 0.451992
v -0.190889 -0.000000 0.460847
v -0.187221 -0.097314 0.451992
v -0.176358 -0.190889 0.425767
v -0.158719 -0.277128 0.383180
v -0.134979 -0.352717 0.325868
v -0.106052 -0.414751 0.256033
v -0.073050 -0.460847 0.176359
v -0.037241 -0.489233 0.089907
v -0.054065 0.489233 0.080914
v -0.106052 0.460847 0.158718
v -0.153964 0.414752 0.230423
v -0.195959 0.352717 0.293274
v -0.230424 0.277128 0.344853
v -0.256033 0.190889 0.383180
v -0.271803 0.097315 0.406782
v -0.277128 -0.000000 0.414751
v -0.271803 -0.097314 0.406782
v -0.256033 -0.190889 0.383180
v -0.230424 -0.277128 0.344853
v -0.195959 -0.352717 0.293274
v -0.153964 -0.414751 0.230423
v -0.106052 -0.460847 0.158718
v -0.054065 -0.489233 0.080914
v -0.068812 0.489233 0.068812
v -0.134979 0.460847 0.134979
v -0.195959 0.414752 0.195959
v -0.249409 0.352717 0.249409
v -0.293273 0.277128 0.293273
v -0.325868 0.190889 0.325868
v -0.345940 0.097315 0.345940
v -0.352717 -0.000000 0.352717
v -0.345940 -0.097314 0.345940
v -0.325868 -0.190889 0.325868
v -0.293273 -0.277128 0.293273
v -0.249409 -0.352717 0.249409
v -0.195959 -0.414751 0.195959
v -0.134979 -0.460847 0.134979
v -0.068812 -0.489233 0.068812
v 0.000000 -0.498817 -0.000000
v -0.080914 0.489233 0.054065
v -0.158718 0.460847 0.106052
v -0.230423 0.414752 0.153964
v -0.293274 0.352717 0.195959
v -0.344853 0.277128 0.230423
v -0.383180 0.190889 0.256033
v -0.406782 0.097315 0.271803
v -0.414751 -0.000000 0.277128
v -0.406782 -0.097314 0.271803
v -0.383180 -0.190889 0.256033
v -0.344853 -0.277128 0.230423
v -0.293274 -0.352717 0.195959
v -0.230423 -0.414751 0.153964
v -0.158718 -0.460847 0.106052
v -0.080914 -0.489233 0.054065
v -0.089907 0.489233 0.037241
v -0.176359 0.460847 0.073050
v -0.256033 0.414752 0.106052
v -0.325868 0.352717 0.134979
v -0.383180 0.277128 0.158718
v -0.425767 0.190889 0.176359
v -0.451992 0.097315 0.187221
v -0.460847 -0.000000 0.190889
v -0.451992 -0.097314 0.187221
v -0.425767 -0.190889 0.176359
v -0.383180 -0.277128 0.158718
v -0.325868 -0.352717 0.134979
v -0.256033 -0.414751 0.106052
v -0.176359 -0.460847 0.073050
v -0.089907 -0.489233 0.037241
v -0.095444 0.489233 0.018985
v -0.187221 0.460847 0.037241
v -0.271803 0.414752 0.054065
v -0.345940 0.352717 0.068812
v -0.406782 0.277128 0.080914
v -0.451992 0.190889 0.089907
v -0.479832 0.097315 0.095444
v -0.489232 -0.000000 0.097314
v -0.479832 -0.097314 0.095444
v -0.451992 -0.190889 0.089907
v -0.406782 -0.277128 0.080914
v -0.345940 -0.352717 0.068812
v -0.271803 -0.414751 0.054065
v -0.187221 -0.460847 0.037241
v -0.095444 -0.489233 0.018985
v -0.097314 0.489233 -0.000000
v -0.190889 0.460847 -0.000000
v -0.277128 0.414752 -0.000000
v -0.352717 0.352717 -0.000000
v -0.414751 0.277128 -0.000000
v -0.460847 0.190889 -0.000000
v -0.489233 0.097315 -0.000000
v -0.498817 -0.000000 -0.000000
v -0.489233 -0.097314 -0.000000
v -0.460847 -0.190889 -0.000000
v -0.414751 -0.277128 -0.000000
v -0.352717 -0.352717 -0.000000
v -0.277128 -0.414751 -0.000000
v -0.190889 -0.460847 -0.000000
v -0.097314 -0.489233 -0.000000
v -0.095444 0.489233 -0.018985
v -0.187221 0.460847 -0.037241
v -0.271803 0.414752 -0.054065
v -0.345940 0.352717 -0.068812
v -0.406782 0.277128 -0.080914
v -0.451992 0.190889 -0.089907
v -0.479832 0.097315 -0.095445
v -0.489232 -0.000000 -0.097315
v -0.479832 -0.097314 -0.095445
v -0.451992 -0.190889 -0.089907
v -0.406782 -0.277128 -0.080914
v -0.345940 -0.352717 -0.068812
v -0.271803 -0.414751 -0.054065
v -0.187221 -0.460847 -0.037241
v -0.095444 -0.489233 -0.018985
v -0.089907 0.489233 -0.037241
v -0.176358 0.460847 -0.073050
v -0.256033 0.414752 -0.106052
v -0.325868 0.352717 -0.134979
v -0.383180 0.277128 -0.158719
v -0.425767 0.190889 -0.176358
v -0.451992 0.097315 -0.187221
v -0.460847 -0.000000 -0.190889
v -0.451992 -0.097314 -0.187221
v -0.425767 -0.190889 -0.176358
v -0.383180 -0.277128 -0.158719
v -0.325868 -0.352717 -0.134979
v -0.256033 -0.414751 -0.106052
v -0.176358 -0.460847 -0.073050
v -0.089907 -0.489233 -0.037241
v -0.080914 0.489233 -0.054065
v -0.158718 0.460847 -0.106052
v -0.230423 0.414752 -0.153964
v -0.293273 0.352717 -0.195959
v -0.344853 0.277128 -0.230424
v -0.383180 0.190889 -0.256033
v -0.406782 0.097315 -0.271803
v -0.414751 -0.000000 -0.277128
v -0.406782 -0.097314 -0.271803
v -0.383180 -0.190889 -0.256033
v -0.344853 -0.277128 -0.230424
v -0.293273 -0.352717 -0.195959
v -0.230423 -0.414751 -0.153964
v -0.158718 -0.460847 -0.106052
v -0.080914 -0.489233 -0.054065
v -0.068812 0.489233 -0.068812
v -0.134979 0.460847 -0.134979
v -0.195959 0.414752 -0.195959
v -0.249409 0.352717 -0.249409
v -0.293273 0.277128 -0.293273
v -0.325868 0.190889 -0.325868
v -0.345939 0.097315 -0.345940
v -0.352717 -0.000000 -0.352717
v -0.345939 -0.097314 -0.345940
v -0.325868 -0.190889 -0.325868
v -0.293273 -0.277128 -0.293273
v -0.249409 -0.352717 -0.249409
v -0.195959 -0.414751 -0.195959
v -0.134979 -0.460847 -0.134979
v -0.068812 -0.489233 -0.068812
v -0.054065 0.489233 -0.080914
v -0.106052 0.460847 -0.158718
v -0.153964 0.414752 -0.230423
v -0.195959 0.352717 -0.293274
v -0.230423 0.277128 -0.344853
v -0.256033 0.190889 -0.383180
v -0.271803 0.097315 -0.406782
v -0.277128 -0.000000 -0.414751
v -0.271803 -0.097314 -0.406782
v -0.256033 -0.190889 -0.383180
v -0.230423 -0.277128 -0.344853
v -0.195959 -0.352717 -0.293274
v -0.153964 -0.414751 -0.230423
v -0.106052 -0.460847 -0.158718
v -0.054065 -0.489233 -0.080914
v -0.037241 0.489233 -0.089907
v -0.073050 0.460847 -0.176358
v -0.106052 0.414752 -0.256033
v -0.134979 0.352717 -0.325868
v -0.158718 0.277128 -0.383180
v -0.176358 0.190889 -0.425767
v -0.187221 0.097315 -0.451992
v -0.190889 -0.000000 -0.460847
v -0.187221 -0.097314 -0.451992
v -0.176358 -0.190889 -0.425767
v -0.158718 -0.277128 -0.383180
v -0.134979 -0.352717 -0.325868
v -0.106052 -0.414751 -0.256033
v -0.073050 -0.460847 -0.176358
v -0.037241 -0.489233 -0.089907
v -0.018985 0.489233 -0.095444
v -0.037241 0.460847 -0.187221
v -0.054065 0.414752 -0.271803
v -0.068812 0.352717 -0.345940
v -0.080914 0.277128 -0.406782
v -0.089907 0.190889 -0.451992
v -0.095444 0.097315 -0.479832
v -0.097314 -0.000000 -0.489232
v -0.095444 -0.097314 -0.479832
v -0.089907 -0.190889 -0.451992
v -0.080914 -0.277128 -0.406782
v -0.068812 -0.352717 -0.345940
v -0.054065 -0.414751 -0.271803
v -0.037241 -0.460847 -0.187221
v -0.018985 -0.489233 -0.095444
v 0.000000 0.489233 -0.097314
v 0.000000 0.460847 -0.190889
v 0.000000 0.352717 -0.352717
v 0.000000 0.190889 -0.460847
v 0.000000 -0.190889 -0.460847
v 0.000000 -0.352717 -0.352717
v 0.000000 -0.414751 -0.277128
v 0.000000 -0.460847 -0.190889
v 0.000000 -0.489233 -0.097314
vn 0.0938 0.2890 -0.9527
vn 0.0286 -0.9565 -0.2902
vn 0.0975 0.0975 -0.9904
vn 0.0096 0.9951 -0.0980
vn 0.0096 -0.9951 -0.0980
vn 0.0975 -0.0975 -0.9904
vn 0.0976 -0.0975 -0.9904
vn 0.0286 0.9565 -0.2902
vn 0.0938 -0.2890 -0.9527
vn 0.0464 0.8810 -0.4709
vn 0.0865 -0.4696 -0.8786
vn 0.0624 0.7715 -0.6332
vn 0.0759 -0.6326 -0.7708
vn 0.0759 0.6326 -0.7708
vn 0.0624 -0.7715 -0.6332
vn 0.0865 0.4696 -0.8786
vn 0.0464 -0.8810 -0.4709
vn 0.1847 -0.7715 -0.6088
vn 0.2563 0.4696 -0.8448
vn 0.1374 -0.8810 -0.4528
vn 0.1373 -0.8810 -0.4528
vn 0.2779 0.2890 -0.9161
vn 0.0846 -0.9565 -0.2790
vn 0.2889 0.0976 -0.9524
vn 0.0286 0.9951 -0.0942
vn 0.0286 -0.9951 -0.0942
vn 0.2889 -0.0976 -0.9524
vn 0.0846 0.9565 -0.2790
vn 0.2779 -0.2890 -0.9161
vn 0.1373 0.8810 -0.4528
vn 0.1374 0.8810 -0.4528
vn 0.2563 -0.4696 -0.8448
vn 0.1847 0.7715 -0.6088
vn 0.2248 -0.6326 -0.7412
vn 0.2248 0.6326 -0.7412
vn 0.4513 -0.2890 -0.8443
vn 0.2230 0.8810 -0.4173
vn 0.4162 -0.4696 -0.7786
vn 0.2999 0.7715 -0.5611
vn 0.3651 -0.6326 -0.6831
vn 0.3651 0.6326 -0.6831
vn 0.2999 -0.7715 -0.5611
vn 0.4162 0.4696 -0.7786
vn 0.2231 -0.8810 -0.4173
vn 0.2230 -0.8810 -0.4173
vn 0.4513 0.2890 -0.8443
vn 0.1375 -0.9565 -0.2571
vn 0.1374 -0.9565 -0.2571
vn 0.4691 0.0975 -0.8777
vn 0.4692 0.0975 -0.8777
vn 0.0464 0.9951 -0.0868
vn 0.0464 -0.9951 -0.0869
vn 0.4691 -0.0975 -0.8777
vn 0.1375 0.9565 -0.2571
vn 0.1374 0.9565 -0.2571
vn 0.3002 -0.8810 -0.3658
vn 0.6073 0.2890 -0.7400
vn 0.1850 -0.9565 -0.2254
vn 0.6314 0.0975 -0.7693
vn 0.0625 0.9951 -0.0761
vn 0.0625 -0.9951 -0.0761
vn 0.6314 -0.0975 -0.7693
vn 0.1850 0.9565 -0.2254
vn 0.6073 -0.2890 -0.7400
vn 0.3002 0.8810 -0.3658
vn 0.5601 -0.4696 -0.6825
vn 0.4036 0.7715 -0.4918
vn 0.4913 -0.6326 -0.5987
vn 0.4913 0.6326 -0.5987
vn 0.4036 -0.7715 -0.4918
vn 0.5601 0.4696 -0.6825
vn 0.3658 0.8810 -0.3002
vn 0.6825 -0.4696 -0.5601
vn 0.4918 0.7715 -0.4036
vn 0.5987 -0.6326 -0.4913
vn 0.5987 0.6326 -0.4913
vn 0.4918 -0.7715 -0.4036
vn 0.6825 0.4696 -0.5601
vn 0.3658 -0.8810 -0.3002
vn 0.7400 0.2890 -0.6073
vn 0.2254 -0.9565 -0.1850
vn 0.7693 0.0975 -0.6314
vn 0.0761 0.9951 -0.0625
vn 0.0761 -0.9951 -0.0625
vn 0.7693 -0.0975 -0.6314
vn 0.2254 0.9565 -0.1850
vn 0.7400 -0.2890 -0.6073
vn 0.8443 0.2890 -0.4513
vn 0.2571 -0.9565 -0.1374
vn 0.2571 -0.9565 -0.1375
vn 0.8777 0.0975 -0.4691
vn 0.8777 0.0975 -0.4692
vn 0.0869 0.9951 -0.0464
vn 0.0869 -0.9951 -0.0464
vn 0.8777 -0.0975 -0.4691
vn 0.2571 0.9565 -0.1374
vn 0.8443 -0.2890 -0.4513
vn 0.4173 0.8810 -0.2230
vn 0.7786 -0.4696 -0.4162
vn 0.5611 0.7715 -0.2999
vn 0.6831 -0.6326 -0.3651
vn 0.6831 0.6326 -0.3651
vn 0.5611 -0.7715 -0.2999
vn 0.7786 0.4696 -0.4162
vn 0.4173 -0.8810 -0.2230
vn 0.4173 -0.8810 -0.2231
vn 0.8448 -0.4696 -0.2563
vn 0.6088 0.7715 -0.1847
vn 0.7412 -0.6326 -0.2248
vn 0.7412 0.6326 -0.2248
vn 0.6088 -0.7715 -0.1847
vn 0.8448 0.4696 -0.2563
vn 0.4528 -0.8810 -0.1374
vn 0.4528 -0.8810 -0.1373
vn 0.9161 0.2890 -0.2779
vn 0.2790 -0.9565 -0.0846
vn 0.9524 0.0975 -0.2889
vn 0.9524 0.0976 -0.2889
vn 0.0942 0.9951 -0.0286
vn 0.0942 -0.9951 -0.0286
vn 0.9524 -0.0976 -0.2889
vn 0.9524 -0.0975 -0.2889
vn 0.2790 0.9565 -0.0846
vn 0.9161 -0.2890 -0.2779
vn 0.4528 0.8810 -0.1373
vn 0.4528 0.8810 -0.1374
vn 0.2902 -0.9565 -0.0286
vn 0.9904 0.0975 -0.0975
vn 0.0980 0.9951 -0.0097
vn 0.0980 -0.9951 -0.0097
vn 0.9904 -0.0975 -0.0975
vn 0.9904 -0.0976 -0.0976
vn 0.2902 0.9565 -0.0286
vn 0.9527 -0.2890 -0.0938
vn 0.4709 0.8810 -0.0464
vn 0.8786 -0.4696 -0.0865
vn 0.6332 0.7715 -0.0624
vn 0.7708 -0.6326 -0.0759
vn 0.7708 0.6326 -0.0759
vn 0.6332 -0.7715 -0.0624
vn 0.8786 0.4696 -0.0865
vn 0.4709 -0.8810 -0.0464
vn 0.9527 0.2890 -0.0938
vn 0.6332 0.7715 0.0624
vn 0.7708 -0.6326 0.0759
vn 0.7708 0.6326 0.0759
vn 0.6332 -0.7715 0.0624
vn 0.8786 0.4696 0.0865
vn 0.4709 -0.8810 0.0464
vn 0.9527 0.2890 0.0938
vn 0.2902 -0.9565 0.0286
vn 0.9904 0.0975 0.0975
vn 0.9904 0.0976 0.0975
vn 0.0980 0.9951 0.0097
vn 0.0980 -0.9951 0.0097
vn 0.9904 -0.0975 0.0975
vn 0.9904 -0.0975 0.0976
vn 0.2902 0.9565 0.0286
vn 0.9527 -0.2890 0.0938
vn 0.4709 0.8810 0.0464
vn 0.8786 -0.4696 0.0865
vn 0.9524 0.0976 0.2889
vn 0.9524 0.0975 0.2889
vn 0.0942 0.9951 0.0286
vn 0.0942 -0.9951 0.0286
vn 0.9524 -0.0976 0.2889
vn 0.2790 0.9565 0.0846
vn 0.9161 -0.2890 0.2779
vn 0.4528 0.8810 0.1373
vn 0.4528 0.8810 0.1374
vn 0.8448 -0.4696 0.2563
vn 0.6088 0.7715 0.1847
vn 0.7412 -0.6326 0.2248
vn 0.7412 0.6326 0.2248
vn 0.6088 -0.7715 0.1847
vn 0.8448 0.4696 0.2563
vn 0.4528 -0.8810 0.1374
vn 0.4528 -0.8810 0.1373
vn 0.9161 0.2890 0.2779
vn 0.2790 -0.9565 0.0846
vn 0.6831 -0.6326 0.3651
vn 0.6831 0.6326 0.3651
vn 0.5611 -0.7715 0.2999
vn 0.7786 0.4696 0.4162
vn 0.4173 -0.8810 0.2231
vn 0.8443 0.2890 0.4513
vn 0.2571 -0.9565 0.1375
vn 0.8777 0.0975 0.4691
vn 0.8777 0.0975 0.4692
vn 0.0869 0.9951 0.0464
vn 0.0869 -0.9951 0.0464
vn 0.8777 -0.0975 0.4691
vn 0.8777 -0.0976 0.4691
vn 0.2571 0.9565 0.1375
vn 0.8443 -0.2890 0.4513
vn 0.4173 0.8810 0.2231
vn 0.7786 -0.4696 0.4162
vn 0.5611 0.7715 0.2999
vn 0.0761 -0.9951 0.0625
vn 0.7693 -0.0975 0.6314
vn 0.2254 0.9565 0.1850
vn 0.7400 -0.2890 0.6073
vn 0.3658 0.8810 0.3002
vn 0.6825 -0.4696 0.5601
vn 0.4918 0.7715 0.4036
vn 0.5987 -0.6326 0.4913
vn 0.5987 0.6326 0.4913
vn 0.4918 -0.7715 0.4036
vn 0.6825 0.4696 0.5601
vn 0.3658 -0.8810 0.3002
vn 0.7400 0.2890 0.6073
vn 0.2254 -0.9565 0.1850
vn 0.7693 0.0975 0.6314
vn 0.0761 0.9951 0.0625
vn 0.4036 -0.7715 0.4918
vn 0.5601 0.4696 0.6825
vn 0.3002 -0.8810 0.3658
vn 0.6073 0.2890 0.7400
vn 0.1850 -0.9565 0.2254
vn 0.6314 0.0975 0.7693
vn 0.0625 0.9951 0.0761
vn 0.0625 -0.9951 0.0761
vn 0.6314 -0.0975 0.7693
vn 0.1850 0.9565 0.2254
vn 0.6073 -0.2890 0.7400
vn 0.3002 0.8810 0.3658
vn 0.5601 -0.4696 0.6825
vn 0.4036 0.7715 0.4918
vn 0.4913 -0.6326 0.5987
vn 0.4913 0.6326 0.5987
vn 0.1375 0.9565 0.2571
vn 0.1374 0.9565 0.2571
vn 0.4513 -0.2890 0.8443
vn 0.2230 0.8810 0.4173
vn 0.4162 -0.4696 0.7786
vn 0.2999 0.7715 0.5611
vn 0.3651 -0.6326 0.6831
vn 0.3651 0.6326 0.6831
vn 0.2999 -0.7715 0.5611
vn 0.4162 0.4696 0.7786
vn 0.2231 -0.8810 0.4173
vn 0.2230 -0.8810 0.4173
vn 0.4513 0.2890 0.8443
vn 0.1375 -0.9565 0.2571
vn 0.1374 -0.9565 0.2571
vn 0.4691 0.0975 0.8777
vn 0.4692 0.0975 0.8777
vn 0.0464 0.9951 0.0868
vn 0.0464 -0.9951 0.0869
vn 0.4691 -0.0975 0.8777
vn 0.2563 0.4696 0.8448
vn 0.1373 -0.8810 0.4528
vn 0.1374 -0.8810 0.4528
vn 0.2779 0.2890 0.9161
vn 0.0846 -0.9565 0.2790
vn 0.2889 0.0975 0.9524
vn 0.0286 0.9951 0.0942
vn 0.0286 -0.9951 0.0942
vn 0.2889 -0.0975 0.9524
vn 0.0846 0.9565 0.2790
vn 0.2779 -0.2890 0.9161
vn 0.1373 0.8810 0.4528
vn 0.1374 0.8810 0.4528
vn 0.2563 -0.4696 0.8448
vn 0.1847 0.7715 0.6088
vn 0.2248 -0.6326 0.7412
vn 0.2248 0.6326 0.7412
vn 0.1847 -0.7715 0.6088
vn 0.0938 -0.2890 0.9527
vn 0.0464 0.8810 0.4709
vn 0.0865 -0.4696 0.8786
vn 0.0624 0.7715 0.6332
vn 0.0759 -0.6326 0.7708
vn 0.0759 0.6326 0.7708
vn 0.0624 -0.7715 0.6332
vn 0.0865 0.4696 0.8786
vn 0.0464 -0.8810 0.4709
vn 0.0938 0.2890 0.9527
vn 0.0286 -0.9565 0.2902
vn 0.0976 0.0975 0.9904
vn 0.0096 0.9951 0.0980
vn 0.0096 -0.9951 0.0980
vn 0.0976 -0.0975 0.9904
vn 0.0286 0.9565 0.2902
vn -0.0464 -0.8810 0.4709
vn -0.0938 0.2890 0.9527
vn -0.0286 -0.9565 0.2902
vn -0.0976 0.0975 0.9904
vn -0.0096 0.9951 0.0980
vn -0.0096 -0.9951 0.0980
vn -0.0976 -0.0975 0.9904
vn -0.0286 0.9565 0.2902
vn -0.0938 -0.2890 0.9527
vn -0.0464 0.8810 0.4709
vn -0.0865 -0.4696 0.8786
vn -0.0624 0.7715 0.6332
vn -0.0759 -0.6326 0.7708
vn -0.0759 0.6326 0.7708
vn -0.0624 -0.7715 0.6332
vn -0.0865 0.4696 0.8786
vn -0.1373 0.8810 0.4528
vn -0.1374 0.8810 0.4528
vn -0.2563 -0.4696 0.8448
vn -0.1847 0.7715 0.6088
vn -0.2248 -0.6326 0.7412
vn -0.2248 0.6326 0.7412
vn -0.1847 -0.7715 0.6088
vn -0.2563 0.4696 0.8448
vn -0.1374 -0.8810 0.4528
vn -0.1373 -0.8810 0.4528
vn -0.2779 0.2890 0.9161
vn -0.0846 -0.9565 0.2790
vn -0.2889 0.0975 0.9524
vn -0.0286 0.9951 0.0942
vn -0.0286 -0.9951 0.0942
vn -0.2889 -0.0975 0.9524
vn -0.0846 0.9565 0.2790
vn -0.2779 -0.2890 0.9161
vn -0.4513 0.2890 0.8443
vn -0.1375 -0.9565 0.2571
vn -0.4691 0.0975 0.8777
vn -0.4692 0.0975 0.8777
vn -0.0464 0.9951 0.0868
vn -0.0464 -0.9951 0.0869
vn -0.4691 -0.0975 0.8777
vn -0.1375 0.9565 0.2571
vn -0.4513 -0.2890 0.8443
vn -0.2231 0.8810 0.4173
vn -0.4162 -0.4696 0.7786
vn -0.2999 0.7715 0.5611
vn -0.3651 -0.6326 0.6831
vn -0.3651 0.6326 0.6831
vn -0.2999 -0.7715 0.5611
vn -0.4162 0.4696 0.7786
vn -0.2231 -0.8810 0.4173
vn -0.5601 -0.4696 0.6825
vn -0.4036 0.7715 0.4918
vn -0.4913 -0.6326 0.5987
vn -0.4913 0.6326 0.5987
vn -0.4914 0.6326 0.5987
vn -0.4036 -0.7715 0.4918
vn -0.5601 0.4696 0.6825
vn -0.3002 -0.8810 0.3658
vn -0.6073 0.2890 0.7400
vn -0.1850 -0.9565 0.2254
vn -0.6314 0.0975 0.7693
vn -0.0625 0.9951 0.0761
vn -0.0625 -0.9951 0.0761
vn -0.6314 -0.0975 0.7693
vn -0.1850 0.9565 0.2254
vn -0.6073 -0.2890 0.7400
vn -0.3002 0.8810 0.3658
vn -0.2254 -0.9565 0.1850
vn -0.7693 0.0975 0.6314
vn -0.0761 0.9951 0.0625
vn -0.0761 -0.9951 0.0625
vn -0.7693 -0.0975 0.6314
vn -0.2254 0.9565 0.1850
vn -0.7400 -0.2890 0.6073
vn -0.3658 0.8810 0.3002
vn -0.6825 -0.4696 0.5601
vn -0.4918 0.7715 0.4036
vn -0.5987 -0.6326 0.4913
vn -0.5987 0.6326 0.4913
vn -0.4918 -0.7715 0.4036
vn -0.6825 0.4696 0.5601
vn -0.3658 -0.8810 0.3002
vn -0.7400 0.2890 0.6073
vn -0.6831 -0.6326 0.3651
vn -0.6831 0.6326 0.3651
vn -0.5611 -0.7715 0.2999
vn -0.7786 0.4696 0.4162
vn -0.4173 -0.8810 0.2231
vn -0.8443 0.2890 0.4513
vn -0.2571 -0.9565 0.1375
vn -0.8777 0.0975 0.4691
vn -0.8777 0.0975 0.4692
vn -0.0869 0.9951 0.0464
vn -0.0869 -0.9951 0.0464
vn -0.8777 -0.0975 0.4691
vn -0.2571 0.9565 0.1375
vn -0.8443 -0.2890 0.4513
vn -0.4173 0.8810 0.2231
vn -0.4173 0.8810 0.2230
vn -0.7786 -0.4696 0.4162
vn -0.5611 0.7715 0.2999
vn -0.0942 0.9951 0.0286
vn -0.0942 -0.9951 0.0286
vn -0.9524 -0.0975 0.2889
vn -0.9524 -0.0976 0.2889
vn -0.2790 0.9565 0.0846
vn -0.9161 -0.2890 0.2779
vn -0.4528 0.8810 0.1373
vn -0.4528 0.8810 0.1374
vn -0.8448 -0.4696 0.2563
vn -0.6088 0.7715 0.1847
vn -0.7412 -0.6326 0.2248
vn -0.7412 0.6326 0.2248
vn -0.6088 -0.7715 0.1847
vn -0.8448 0.4696 0.2563
vn -0.4528 -0.8810 0.1374
vn -0.4528 -0.8810 0.1373
vn -0.9161 0.2890 0.2779
vn -0.2790 -0.9565 0.0846
vn -0.9524 0.0975 0.2889
vn -0.7708 0.6326 0.0759
vn -0.6332 -0.7715 0.0624
vn -0.8786 0.4696 0.0865
vn -0.4709 -0.8810 0.0464
vn -0.9527 0.2890 0.0938
vn -0.2902 -0.9565 0.0286
vn -0.9904 0.0975 0.0976
vn -0.0980 0.9951 0.0097
vn -0.0980 -0.9951 0.0097
vn -0.9904 -0.0975 0.0976
vn -0.2902 0.9565 0.0286
vn -0.9527 -0.2890 0.0938
vn -0.4709 0.8810 0.0464
vn -0.8786 -0.4696 0.0865
vn -0.6332 0.7715 0.0624
vn -0.7708 -0.6326 0.0759
vn -0.9904 -0.0975 -0.0976
vn -0.2902 0.9565 -0.0286
vn -0.9527 -0.2890 -0.0938
vn -0.4709 0.8810 -0.0464
vn -0.8786 -0.4696 -0.0865
vn -0.6332 0.7715 -0.0624
vn -0.7708 -0.6326 -0.0759
vn -0.7708 0.6326 -0.0759
vn -0.6332 -0.7715 -0.0624
vn -0.8786 0.4696 -0.0865
vn -0.4709 -0.8810 -0.0464
vn -0.9527 0.2890 -0.0938
vn -0.2902 -0.9565 -0.0286
vn -0.9904 0.0975 -0.0976
vn -0.0980 0.9951 -0.0097
vn -0.0980 -0.9951 -0.0097
vn -0.6088 -0.7715 -0.1847
vn -0.8448 0.4696 -0.2563
vn -0.4528 -0.8810 -0.1374
vn -0.9161 0.2890 -0.2779
vn -0.2790 -0.9565 -0.0846
vn -0.9524 0.0975 -0.2889
vn -0.0942 0.9951 -0.0286
vn -0.0942 -0.9951 -0.0286
vn -0.9524 -0.0975 -0.2889
vn -0.2790 0.9565 -0.0846
vn -0.9161 -0.2890 -0.2779
vn -0.4528 0.8810 -0.1374
vn -0.4528 0.8810 -0.1373
vn -0.8448 -0.4696 -0.2563
vn -0.6088 0.7715 -0.1847
vn -0.7412 -0.6326 -0.2248
vn -0.7412 0.6326 -0.2248
vn -0.2571 0.9565 -0.1375
vn -0.2571 0.9565 -0.1374
vn -0.8443 -0.2890 -0.4513
vn -0.4173 0.8810 -0.2230
vn -0.4173 0.8810 -0.2231
vn -0.7786 -0.4696 -0.4162
vn -0.5611 0.7715 -0.2999
vn -0.6831 -0.6326 -0.3651
vn -0.6831 0.6326 -0.3651
vn -0.5611 -0.7715 -0.2999
vn -0.7786 0.4696 -0.4162
vn -0.4173 -0.8810 -0.2231
vn -0.4173 -0.8810 -0.2230
vn -0.8443 0.2890 -0.4513
vn -0.2571 -0.9565 -0.1375
vn -0.8777 0.0975 -0.4691
vn -0.8777 0.0975 -0.4692
vn -0.0869 0.9951 -0.0464
vn -0.0869 -0.9951 -0.0464
vn -0.8777 -0.0975 -0.4691
vn -0.8777 -0.0976 -0.4691
vn -0.6825 0.4696 -0.5601
vn -0.3658 -0.8810 -0.3002
vn -0.7400 0.2890 -0.6073
vn -0.2254 -0.9565 -0.1850
vn -0.7693 0.0975 -0.6314
vn -0.7693 0.0976 -0.6314
vn -0.0761 0.9951 -0.0625
vn -0.0761 -0.9951 -0.0625
vn -0.7693 -0.0976 -0.6314
vn -0.7693 -0.0975 -0.6314
vn -0.2254 0.9565 -0.1850
vn -0.7400 -0.2890 -0.6073
vn -0.3658 0.8810 -0.3002
vn -0.6825 -0.4696 -0.5601
vn -0.4918 0.7715 -0.4036
vn -0.5987 -0.6326 -0.4913
vn -0.5987 0.6326 -0.4913
vn -0.5987 0.6326 -0.4914
vn -0.4918 -0.7715 -0.4036
vn -0.6073 -0.2890 -0.7400
vn -0.3002 0.8810 -0.3658
vn -0.5601 -0.4696 -0.6825
vn -0.4036 0.7715 -0.4918
vn -0.4913 -0.6326 -0.5987
vn -0.4913 0.6326 -0.5987
vn -0.4036 -0.7715 -0.4918
vn -0.5601 0.4696 -0.6825
vn -0.3002 -0.8810 -0.3658
vn -0.6073 0.2890 -0.7400
vn -0.1850 -0.9565 -0.2254
vn -0.6314 0.0975 -0.7693
vn -0.0625 0.9951 -0.0761
vn -0.0625 -0.9951 -0.0761
vn -0.6314 -0.0975 -0.7693
vn -0.6314 -0.0976 -0.7693
vn -0.1850 0.9565 -0.2254
vn -0.2231 -0.8810 -0.4173
vn -0.4513 0.2890 -0.8443
vn -0.1374 -0.9565 -0.2571
vn -0.1375 -0.9565 -0.2571
vn -0.4691 0.0975 -0.8777
vn -0.4692 0.0975 -0.8777
vn -0.0464 0.9951 -0.0868
vn -0.0464 -0.9951 -0.0869
vn -0.4691 -0.0975 -0.8777
vn -0.1374 0.9565 -0.2571
vn -0.1375 0.9565 -0.2571
vn -0.4513 -0.2890 -0.8443
vn -0.2230 0.8810 -0.4173
vn -0.4162 -0.4696 -0.7786
vn -0.2999 0.7715 -0.5611
vn -0.3651 -0.6326 -0.6831
vn -0.3651 0.6326 -0.6831
vn -0.2999 -0.7715 -0.5611
vn -0.4162 0.4696 -0.7786
vn -0.2563 -0.4696 -0.8448
vn -0.1847 0.7715 -0.6088
vn -0.2248 -0.6326 -0.7412
vn -0.2248 0.6326 -0.7412
vn -0.1847 -0.7715 -0.6088
vn -0.2563 0.4696 -0.8448
vn -0.1374 -0.8810 -0.4528
vn -0.2779 0.2890 -0.9161
vn -0.0846 -0.9565 -0.2790
vn -0.2889 0.0975 -0.9524
vn -0.0286 0.9951 -0.0942
vn -0.0286 -0.9951 -0.0942
vn -0.2889 -0.0975 -0.9524
vn -0.0846 0.9565 -0.2790
vn -0.2779 -0.2890 -0.9161
vn -0.1374 0.8810 -0.4528
vn -0.0286 -0.9565 -0.2902
vn -0.0976 0.0975 -0.9904
vn -0.0097 0.9951 -0.0980
vn -0.0097 -0.9951 -0.0980
vn -0.0976 -0.0975 -0.9904
vn -0.0286 0.9565 -0.2902
vn -0.0938 -0.2890 -0.9527
vn -0.0464 0.8810 -0.4709
vn -0.0865 -0.4696 -0.8786
vn -0.0624 0.7715 -0.6332
vn -0.0759 -0.6326 -0.7708
vn -0.0759 0.6326 -0.7708
vn -0.0624 -0.7715 -0.6332
vn -0.0865 0.4696 -0.8786
vn -0.0464 -0.8810 -0.4709
vn -0.0938 0.2890 -0.9527
vn 0.0976 0.0976 -0.9904
vn 0.0975 -0.0976 -0.9904
vn 0.2889 0.0975 -0.9524
vn 0.2889 -0.0975 -0.9524
vn 0.4692 -0.0975 -0.8777
vn 0.8777 -0.0976 -0.4692
vn 0.2571 0.9565 -0.1375
vn 0.9904 0.0976 -0.0976
vn 0.9904 0.0975 0.0976
vn 0.9904 -0.0976 0.0975
vn 0.9524 -0.0975 0.2889
vn 0.8777 -0.0975 0.4692
vn 0.4692 -0.0975 0.8777
vn -0.4692 -0.0975 0.8777
vn -0.4914 -0.6326 0.5987
vn -0.8777 -0.0975 0.4692
vn -0.2571 0.9565 0.1374
vn -0.9524 -0.0976 -0.2889
vn -0.8777 -0.0975 -0.4692
vn -0.5987 -0.6326 -0.4914
vn -0.6314 0.0976 -0.7693
vn -0.4692 -0.0976 -0.8777
vt 0.561881 0.252475
vt 0.623762 0.283416
vt 0.561881 0.283416
vt 0.128713 0.252475
vt 0.066832 0.283416
vt 0.066832 0.252475
vt 0.500000 0.283416
vt 0.500000 0.252475
vt 0.933168 0.252475
vt 0.995049 0.267946
vt 0.933168 0.283416
vt 0.004951 0.267946
vt 0.438119 0.283416
vt 0.438119 0.252475
vt 0.871287 0.252475
vt 0.871287 0.283416
vt 0.376238 0.283416
vt 0.376238 0.252475
vt 0.809406 0.252475
vt 0.809406 0.283416
vt 0.314356 0.283416
vt 0.314356 0.252475
vt 0.747525 0.252475
vt 0.747525 0.283416
vt 0.252475 0.252475
vt 0.252475 0.283416
vt 0.685643 0.283416
vt 0.685643 0.252475
vt 0.190594 0.283416
vt 0.190594 0.252475
vt 0.623762 0.252475
vt 0.128713 0.283416
vt 0.252475 0.314356
vt 0.190594 0.314356
vt 0.623762 0.314356
vt 0.128713 0.314356
vt 0.561881 0.314356
vt 0.066832 0.314356
vt 0.500000 0.314356
vt 0.995049 0.298886
vt 0.933168 0.314356
vt 0.004951 0.298886
vt 0.438119 0.314356
vt 0.871287 0.314356
vt 0.376238 0.314356
vt 0.809406 0.314356
vt 0.314356 0.314356
vt 0.747525 0.314356
vt 0.685643 0.314356
vt 0.376238 0.345297
vt 0.809406 0.345297
vt 0.314356 0.345297
vt 0.747525 0.345297
vt 0.252475 0.345297
vt 0.685643 0.345297
vt 0.190594 0.345297
vt 0.623762 0.345297
vt 0.128713 0.345297
vt 0.561881 0.345297
vt 0.066832 0.345297
vt 0.500000 0.345297
vt 0.995049 0.329827
vt 0.933168 0.345297
vt 0.004951 0.329827
vt 0.438119 0.345297
vt 0.871287 0.345297
vt 0.190594 0.376238
vt 0.128713 0.376238
vt 0.623762 0.376238
vt 0.561881 0.376238
vt 0.066832 0.376238
vt 0.500000 0.376238
vt 0.995049 0.360767
vt 0.933168 0.376238
vt 0.004951 0.360767
vt 0.438119 0.376238
vt 0.871287 0.376238
vt 0.376238 0.376238
vt 0.809406 0.376238
vt 0.314356 0.376238
vt 0.747525 0.376238
vt 0.252475 0.376238
vt 0.685644 0.376238
vt 0.871287 0.407178
vt 0.809406 0.407178
vt 0.376238 0.407178
vt 0.314356 0.407178
vt 0.747525 0.407178
vt 0.252475 0.407178
vt 0.685643 0.407178
vt 0.190594 0.407178
vt 0.623762 0.407178
vt 0.128713 0.407178
vt 0.561881 0.407178
vt 0.066832 0.407178
vt 0.500000 0.407178
vt 0.995049 0.391708
vt 0.933168 0.407178
vt 0.004951 0.391708
vt 0.438119 0.407178
vt 0.623762 0.438119
vt 0.561881 0.438119
vt 0.128713 0.438119
vt 0.066832 0.438119
vt 0.500000 0.438119
vt 0.995049 0.422648
vt 0.933168 0.438119
vt 0.004951 0.422649
vt 0.438119 0.438119
vt 0.871287 0.438119
vt 0.376238 0.438119
vt 0.809406 0.438119
vt 0.314356 0.438119
vt 0.747525 0.438119
vt 0.252475 0.438119
vt 0.685643 0.438119
vt 0.190594 0.438119
vt 0.376238 0.469059
vt 0.314356 0.469059
vt 0.747525 0.469059
vt 0.252475 0.469059
vt 0.685644 0.469059
vt 0.190594 0.469059
vt 0.623762 0.469059
vt 0.128713 0.469059
vt 0.561881 0.469059
vt 0.066832 0.469059
vt 0.500000 0.469059
vt 0.995049 0.453589
vt 0.933168 0.469059
vt 0.004951 0.453589
vt 0.438119 0.469059
vt 0.871287 0.469059
vt 0.809406 0.469059
vt 0.066832 0.500000
vt 0.561881 0.500000
vt 0.500000 0.500000
vt 0.995049 0.484530
vt 0.933168 0.500000
vt 0.004951 0.484530
vt 0.438119 0.500000
vt 0.871287 0.500000
vt 0.376238 0.500000
vt 0.809406 0.500000
vt 0.314356 0.500000
vt 0.747525 0.500000
vt 0.252475 0.500000
vt 0.685644 0.500000
vt 0.190594 0.500000
vt 0.623762 0.500000
vt 0.128713 0.500000
vt 0.747525 0.530941
vt 0.252475 0.530941
vt 0.685644 0.530941
vt 0.190594 0.530941
vt 0.623762 0.530941
vt 0.128713 0.530941
vt 0.561881 0.530941
vt 0.066832 0.530941
vt 0.500000 0.530941
vt 0.995049 0.515470
vt 0.933168 0.530941
vt 0.004951 0.515470
vt 0.438119 0.530941
vt 0.871287 0.530941
vt 0.376238 0.530941
vt 0.809406 0.530941
vt 0.314356 0.530941
vt 0.561881 0.561881
vt 0.500000 0.561881
vt 0.995049 0.546411
vt 0.933168 0.561881
vt 0.004951 0.546411
vt 0.066832 0.561881
vt 0.438119 0.561881
vt 0.871287 0.561881
vt 0.376238 0.561881
vt 0.809406 0.561881
vt 0.314356 0.561881
vt 0.747525 0.561881
vt 0.252475 0.561881
vt 0.685644 0.561881
vt 0.190594 0.561881
vt 0.623762 0.561881
vt 0.128713 0.561881
vt 0.252475 0.592822
vt 0.747525 0.592822
vt 0.685644 0.592822
vt 0.190594 0.592822
vt 0.623762 0.592822
vt 0.128713 0.592822
vt 0.561881 0.592822
vt 0.066832 0.592822
vt 0.500000 0.592822
vt 0.995049 0.577351
vt 0.933168 0.592822
vt 0.004951 0.577352
vt 0.438119 0.592822
vt 0.871287 0.592822
vt 0.376238 0.592822
vt 0.809406 0.592822
vt 0.314356 0.592822
vt 0.004951 0.608292
vt 0.066832 0.623762
vt 0.438119 0.623762
vt 0.871287 0.623762
vt 0.376238 0.623762
vt 0.809406 0.623762
vt 0.314356 0.623762
vt 0.747525 0.623762
vt 0.252475 0.623762
vt 0.685644 0.623762
vt 0.190594 0.623762
vt 0.623762 0.623762
vt 0.128713 0.623762
vt 0.561881 0.623762
vt 0.500000 0.623762
vt 0.995049 0.608292
vt 0.933168 0.623762
vt 0.252475 0.654703
vt 0.190594 0.654703
vt 0.623762 0.654703
vt 0.128713 0.654703
vt 0.561881 0.654703
vt 0.066832 0.654703
vt 0.500000 0.654703
vt 0.995049 0.639233
vt 0.933168 0.654703
vt 0.004951 0.639233
vt 0.438119 0.654703
vt 0.871287 0.654703
vt 0.376238 0.654703
vt 0.809406 0.654703
vt 0.314356 0.654703
vt 0.747525 0.654703
vt 0.685644 0.654703
vt 0.871287 0.685643
vt 0.376238 0.685644
vt 0.809406 0.685644
vt 0.314356 0.685644
vt 0.747525 0.685644
vt 0.252475 0.685644
vt 0.685644 0.685644
vt 0.190594 0.685644
vt 0.623762 0.685644
vt 0.128713 0.685644
vt 0.561881 0.685644
vt 0.066832 0.685644
vt 0.500000 0.685644
vt 0.995049 0.670173
vt 0.933168 0.685643
vt 0.004951 0.670173
vt 0.438119 0.685644
vt 0.623762 0.716584
vt 0.190594 0.716584
vt 0.128713 0.716584
vt 0.561881 0.716584
vt 0.066832 0.716584
vt 0.500000 0.716584
vt 0.995049 0.701114
vt 0.933168 0.716584
vt 0.004951 0.701114
vt 0.438119 0.716584
vt 0.871287 0.716584
vt 0.376238 0.716584
vt 0.809406 0.716584
vt 0.314356 0.716584
vt 0.747525 0.716584
vt 0.252475 0.716584
vt 0.685644 0.716584
vt 0.376238 0.747525
vt 0.809406 0.747525
vt 0.314356 0.747525
vt 0.747525 0.747525
vt 0.252475 0.747525
vt 0.685644 0.747525
vt 0.190594 0.747525
vt 0.623762 0.747525
vt 0.128713 0.747525
vt 0.561881 0.747525
vt 0.066832 0.747525
vt 0.500000 0.747525
vt 0.995049 0.732054
vt 0.933168 0.747525
vt 0.004951 0.732054
vt 0.438119 0.747525
vt 0.871287 0.747525
vt 0.128713 0.778465
vt 0.623762 0.778465
vt 0.561881 0.778465
vt 0.066832 0.778465
vt 0.500000 0.778465
vt 0.995049 0.762995
vt 0.933168 0.778465
vt 0.004951 0.762995
vt 0.438119 0.778465
vt 0.871287 0.778465
vt 0.376238 0.778465
vt 0.809406 0.778465
vt 0.314356 0.778465
vt 0.747525 0.778465
vt 0.252475 0.778465
vt 0.685644 0.778465
vt 0.190594 0.778465
vt 0.809406 0.809406
vt 0.376238 0.809406
vt 0.314356 0.809406
vt 0.747525 0.809406
vt 0.252475 0.809406
vt 0.685644 0.809406
vt 0.190594 0.809406
vt 0.623762 0.809406
vt 0.128713 0.809406
vt 0.561881 0.809406
vt 0.066832 0.809406
vt 0.500000 0.809406
vt 0.995049 0.793936
vt 0.933168 0.809406
vt 0.004951 0.793936
vt 0.438119 0.809406
vt 0.871287 0.809406
vt 0.623762 0.840346
vt 0.561881 0.840346
vt 0.066832 0.840346
vt 0.500000 0.840347
vt 0.995049 0.824876
vt 0.933168 0.840346
vt 0.004951 0.824876
vt 0.438119 0.840346
vt 0.871287 0.840346
vt 0.376238 0.840346
vt 0.809406 0.840346
vt 0.314356 0.840346
vt 0.747525 0.840346
vt 0.252475 0.840346
vt 0.685644 0.840346
vt 0.190594 0.840346
vt 0.128713 0.840346
vt 0.376238 0.871287
vt 0.314356 0.871287
vt 0.747525 0.871287
vt 0.252475 0.871287
vt 0.685644 0.871287
vt 0.190594 0.871287
vt 0.623762 0.871287
vt 0.128713 0.871287
vt 0.561881 0.871287
vt 0.066832 0.871287
vt 0.500000 0.871287
vt 0.995049 0.855817
vt 0.933168 0.871287
vt 0.004951 0.855817
vt 0.438119 0.871287
vt 0.871287 0.871287
vt 0.809406 0.871287
vt 0.066832 0.902228
vt 0.561881 0.902228
vt 0.500000 0.902228
vt 0.995049 0.886757
vt 0.933168 0.902228
vt 0.004951 0.886757
vt 0.438119 0.902228
vt 0.871287 0.902228
vt 0.376238 0.902228
vt 0.809406 0.902228
vt 0.314356 0.902228
vt 0.747525 0.902228
vt 0.252475 0.902228
vt 0.685644 0.902228
vt 0.190594 0.902228
vt 0.623762 0.902228
vt 0.128713 0.902228
vt 0.252475 0.933168
vt 0.747525 0.933168
vt 0.685644 0.933168
vt 0.190594 0.933168
vt 0.623762 0.933168
vt 0.128713 0.933168
vt 0.561881 0.933168
vt 0.066832 0.933168
vt 0.500000 0.933168
vt 0.995049 0.917698
vt 0.933168 0.933168
vt 0.004951 0.917698
vt 0.438119 0.933168
vt 0.871287 0.933168
vt 0.376238 0.933168
vt 0.809406 0.933168
vt 0.314356 0.933168
vt 0.995049 0.948639
vt 0.933168 0.964109
vt 0.004951 0.948639
vt 0.066832 0.964109
vt 0.438119 0.964109
vt 0.871287 0.964109
vt 0.376238 0.964109
vt 0.809406 0.964109
vt 0.314356 0.964109
vt 0.747525 0.964109
vt 0.252475 0.964109
vt 0.685644 0.964109
vt 0.190594 0.964109
vt 0.623762 0.964109
vt 0.128713 0.964109
vt 0.561881 0.964109
vt 0.500000 0.964109
vt 0.747525 0.995049
vt 0.685644 0.995049
vt 0.252475 0.995049
vt 0.190594 0.995049
vt 0.623762 0.995049
vt 0.128713 0.995049
vt 0.561881 0.995049
vt 0.066832 0.995049
vt 0.500000 0.995049
vt 0.995049 0.979579
vt 0.933168 0.995049
vt 0.004951 0.979579
vt 0.438119 0.995049
vt 0.871287 0.995049
vt 0.376238 0.995049
vt 0.809406 0.995049
vt 0.314356 0.995049
vt 0.500000 0.004951
vt 0.438119 0.035891
vt 0.438119 0.004951
vt 0.871287 0.004951
vt 0.933168 0.035891
vt 0.871287 0.035891
vt 0.376238 0.035891
vt 0.376238 0.004951
vt 0.809406 0.004951
vt 0.809406 0.035891
vt 0.314356 0.004951
vt 0.314356 0.035891
vt 0.747525 0.035891
vt 0.747525 0.004951
vt 0.252475 0.035891
vt 0.252475 0.004951
vt 0.685644 0.004951
vt 0.685644 0.035891
vt 0.190594 0.004951
vt 0.190594 0.035891
vt 0.623762 0.035891
vt 0.623762 0.004951
vt 0.128713 0.035891
vt 0.128713 0.004951
vt 0.561881 0.004951
vt 0.561881 0.035891
vt 0.066832 0.035891
vt 0.066832 0.004951
vt 0.500000 0.035891
vt 0.933168 0.004951
vt 0.995049 0.020421
vt 0.004951 0.020421
vt 0.252475 0.066832
vt 0.190594 0.066832
vt 0.623762 0.066832
vt 0.128713 0.066832
vt 0.561881 0.066832
vt 0.066832 0.066832
vt 0.500000 0.066832
vt 0.995049 0.051361
vt 0.933168 0.066832
vt 0.004951 0.051361
vt 0.438119 0.066832
vt 0.871287 0.066832
vt 0.376238 0.066832
vt 0.809406 0.066832
vt 0.314356 0.066832
vt 0.747525 0.066832
vt 0.685644 0.066832
vt 0.871287 0.097772
vt 0.376238 0.097772
vt 0.809406 0.097772
vt 0.314356 0.097772
vt 0.747525 0.097772
vt 0.252475 0.097772
vt 0.685644 0.097772
vt 0.190594 0.097772
vt 0.623762 0.097772
vt 0.128713 0.097772
vt 0.561881 0.097772
vt 0.066832 0.097772
vt 0.500000 0.097772
vt 0.995049 0.082302
vt 0.933168 0.097772
vt 0.004951 0.082302
vt 0.438119 0.097772
vt 0.623762 0.128713
vt 0.128713 0.128713
vt 0.561881 0.128713
vt 0.066832 0.128713
vt 0.500000 0.128713
vt 0.995049 0.113243
vt 0.933168 0.128713
vt 0.004951 0.113243
vt 0.438119 0.128713
vt 0.871287 0.128713
vt 0.376238 0.128713
vt 0.809406 0.128713
vt 0.314356 0.128713
vt 0.747525 0.128713
vt 0.252475 0.128713
vt 0.685644 0.128713
vt 0.190594 0.128713
vt 0.376238 0.159654
vt 0.871287 0.159653
vt 0.809406 0.159654
vt 0.314356 0.159654
vt 0.747525 0.159653
vt 0.252475 0.159654
vt 0.685644 0.159654
vt 0.190594 0.159654
vt 0.623762 0.159653
vt 0.128713 0.159654
vt 0.561881 0.159654
vt 0.066832 0.159654
vt 0.500000 0.159654
vt 0.995049 0.144183
vt 0.933168 0.159653
vt 0.004951 0.144183
vt 0.438119 0.159654
vt 0.128713 0.190594
vt 0.623762 0.190594
vt 0.561881 0.190594
vt 0.066832 0.190594
vt 0.500000 0.190594
vt 0.995049 0.175124
vt 0.933168 0.190594
vt 0.004951 0.175124
vt 0.438119 0.190594
vt 0.871287 0.190594
vt 0.376238 0.190594
vt 0.809406 0.190594
vt 0.314356 0.190594
vt 0.747525 0.190594
vt 0.252475 0.190594
vt 0.685644 0.190594
vt 0.190594 0.190594
vt 0.376238 0.221535
vt 0.314356 0.221535
vt 0.747525 0.221535
vt 0.252475 0.221535
vt 0.685644 0.221535
vt 0.190594 0.221535
vt 0.623762 0.221535
vt 0.128713 0.221535
vt 0.561881 0.221535
vt 0.066832 0.221535
vt 0.500000 0.221535
vt 0.995049 0.206064
vt 0.933168 0.221535
vt 0.004951 0.206064
vt 0.438119 0.221535
vt 0.871287 0.221535
vt 0.809406 0.221535
vt 0.995049 0.237005
vt 0.004951 0.237005
s 1
usemtl マテリアル.001
f 3/1/1 12/2/1 13/3/1
f 481/4/2 21/5/2 482/6/2
f 3/1/3 14/7/3 4/8/3
f 474/9/4 82/10/4 7/11/4
f 308/12/5 482/6/5 21/5/5
f 4/8/6 15/13/6 5/14/7
f 475/15/8 7/11/8 8/16/8
f 5/14/9 16/17/9 478/18/9
f 1/19/10 8/16/10 9/20/10
f 478/18/11 17/21/11 6/22/11
f 476/23/12 9/20/12 10/24/12
f 479/25/13 17/21/13 18/26/13
f 476/23/14 11/27/14 2/28/14
f 479/25/15 19/29/15 480/30/15
f 477/31/16 11/27/16 12/2/16
f 480/30/17 20/32/17 481/4/17
f 19/29/18 33/33/18 34/34/18
f 11/27/19 27/35/19 12/2/19
f 20/32/20 34/34/20 35/36/21
f 13/3/22 27/35/22 28/37/22
f 20/32/23 36/38/23 21/5/23
f 13/3/24 29/39/24 14/7/24
f 7/11/25 82/40/25 22/41/25
f 308/42/26 21/5/26 36/38/26
f 14/7/27 30/43/27 15/13/27
f 7/11/28 23/44/28 8/16/28
f 15/13/29 31/45/29 16/17/29
f 8/16/30 24/46/31 9/20/31
f 17/21/32 31/45/32 32/47/32
f 9/20/33 25/48/33 10/24/33
f 18/26/34 32/47/34 33/33/34
f 10/24/35 26/49/35 11/27/35
f 30/43/36 46/50/36 31/45/36
f 23/44/37 39/51/37 24/46/37
f 32/47/38 46/50/38 47/52/38
f 24/46/39 40/53/39 25/48/39
f 33/33/40 47/52/40 48/54/40
f 25/48/41 41/55/41 26/49/41
f 34/34/42 48/54/42 49/56/42
f 26/49/43 42/57/43 27/35/43
f 35/36/44 49/56/45 50/58/44
f 28/37/46 42/57/46 43/59/46
f 36/38/47 50/58/48 51/60/47
f 29/39/49 43/59/49 44/61/50
f 22/41/51 82/62/51 37/63/51
f 308/64/52 36/38/52 51/60/52
f 29/39/53 45/65/53 30/43/53
f 22/41/54 38/66/55 23/44/55
f 50/58/56 64/67/56 65/68/56
f 43/59/57 57/69/57 58/70/57
f 51/60/58 65/68/58 66/71/58
f 44/61/59 58/70/59 59/72/59
f 37/63/60 82/73/60 52/74/60
f 308/75/61 51/60/61 66/71/61
f 44/61/62 60/76/62 45/65/62
f 37/63/63 53/77/63 38/66/63
f 45/65/64 61/78/64 46/50/64
f 38/66/65 54/79/65 39/51/65
f 47/52/66 61/78/66 62/80/66
f 39/51/67 55/81/67 40/53/67
f 47/52/68 63/82/68 48/54/68
f 41/55/69 55/81/69 56/83/69
f 49/56/70 63/82/70 64/67/70
f 41/55/71 57/69/71 42/57/71
f 54/79/72 68/84/72 69/85/72
f 62/80/73 76/86/73 77/87/73
f 54/79/74 70/88/74 55/81/74
f 62/80/75 78/89/75 63/82/75
f 56/83/76 70/88/76 71/90/76
f 64/67/77 78/89/77 79/91/77
f 56/83/78 72/92/78 57/69/78
f 64/67/79 80/93/79 65/68/79
f 58/70/80 72/92/80 73/94/80
f 65/68/81 81/95/81 66/71/81
f 59/72/82 73/94/82 74/96/82
f 52/74/83 82/97/83 67/98/83
f 308/99/84 66/71/84 81/95/84
f 59/72/85 75/100/85 60/76/85
f 53/77/86 67/98/86 68/84/86
f 60/76/87 76/86/87 61/78/87
f 73/94/88 88/101/88 89/102/88
f 81/95/89 96/103/89 97/104/90
f 74/96/91 89/102/91 90/105/92
f 67/98/93 82/106/93 83/107/93
f 308/108/94 81/95/94 97/104/94
f 74/96/95 91/109/95 75/100/95
f 67/98/96 84/110/96 68/84/96
f 75/100/97 92/111/97 76/86/97
f 68/84/98 85/112/98 69/85/98
f 77/87/99 92/111/99 93/113/99
f 69/85/100 86/114/100 70/88/100
f 77/87/101 94/115/101 78/89/101
f 71/90/102 86/114/102 87/116/102
f 79/91/103 94/115/103 95/117/103
f 71/90/104 88/101/104 72/92/104
f 80/93/105 95/117/105 96/103/106
f 93/113/107 107/118/107 108/119/107
f 85/112/108 101/120/108 86/114/108
f 93/113/109 109/121/109 94/115/109
f 87/116/110 101/120/110 102/122/110
f 95/117/111 109/121/111 110/123/111
f 87/116/112 103/124/112 88/101/112
f 95/117/113 111/125/114 96/103/114
f 89/102/115 103/124/115 104/126/115
f 96/103/116 112/127/116 97/104/116
f 90/105/117 104/126/117 105/128/118
f 83/107/119 82/129/119 98/130/119
f 308/131/120 97/104/120 112/127/120
f 90/105/121 106/132/121 91/109/122
f 83/107/123 99/133/123 84/110/123
f 91/109/124 107/118/124 92/111/124
f 85/112/125 99/133/125 100/134/126
f 111/125/127 127/135/127 112/127/127
f 105/128/128 119/136/128 120/137/128
f 98/130/129 82/138/129 113/139/129
f 308/140/130 112/127/130 127/135/130
f 105/128/131 121/141/131 106/132/132
f 98/130/133 114/142/133 99/133/133
f 106/132/134 122/143/134 107/118/134
f 99/133/135 115/144/135 100/134/135
f 108/119/136 122/143/136 123/145/136
f 100/134/137 116/146/137 101/120/137
f 108/119/138 124/147/138 109/121/138
f 102/122/139 116/146/139 117/148/139
f 110/123/140 124/147/140 125/149/140
f 102/122/141 118/150/141 103/124/141
f 111/125/142 125/149/142 126/151/142
f 104/126/143 118/150/143 119/136/143
f 115/144/144 131/152/144 116/146/144
f 123/145/145 139/153/145 124/147/145
f 117/148/146 131/152/146 132/154/146
f 125/149/147 139/153/147 140/155/147
f 117/148/148 133/156/148 118/150/148
f 125/149/149 141/157/149 126/151/149
f 119/136/150 133/156/150 134/158/150
f 126/151/151 142/159/151 127/135/151
f 120/137/152 134/158/152 135/160/153
f 113/139/154 82/161/154 128/162/154
f 308/163/155 127/135/155 142/159/155
f 120/137/156 136/164/156 121/141/157
f 114/142/158 128/162/158 129/165/158
f 121/141/159 137/166/159 122/143/159
f 115/144/160 129/165/160 130/167/160
f 123/145/161 137/166/161 138/168/161
f 135/160/162 149/169/162 150/170/163
f 128/162/164 82/171/164 143/172/164
f 308/173/165 142/159/165 157/174/165
f 135/160/166 151/175/166 136/164/166
f 128/162/167 144/176/167 129/165/167
f 136/164/168 152/177/168 137/166/168
f 129/165/169 145/178/169 130/167/170
f 138/168/171 152/177/171 153/179/171
f 130/167/172 146/180/172 131/152/172
f 138/168/173 154/181/173 139/153/173
f 132/154/174 146/180/174 147/182/174
f 140/155/175 154/181/175 155/183/175
f 132/154/176 148/184/176 133/156/176
f 141/157/177 155/183/177 156/185/178
f 134/158/179 148/184/179 149/169/179
f 141/157/180 157/174/180 142/159/180
f 153/179/181 169/186/181 154/181/181
f 147/182/182 161/187/182 162/188/182
f 155/183/183 169/186/183 170/189/183
f 147/182/184 163/190/184 148/184/184
f 156/185/185 170/189/185 171/191/185
f 149/169/186 163/190/186 164/192/186
f 157/174/187 171/191/187 172/193/187
f 150/170/188 164/192/188 165/194/189
f 143/172/190 82/195/190 158/196/190
f 308/197/191 157/174/191 172/193/191
f 150/170/192 166/198/192 151/175/193
f 143/172/194 159/199/194 144/176/194
f 151/175/195 167/200/195 152/177/195
f 144/176/196 160/201/196 145/178/196
f 153/179/197 167/200/197 168/202/197
f 145/178/198 161/187/198 146/180/198
f 308/203/199 172/193/199 187/204/199
f 165/194/200 181/205/200 166/198/200
f 158/196/201 174/206/201 159/199/201
f 166/198/202 182/207/202 167/200/202
f 159/199/203 175/208/203 160/201/203
f 168/202/204 182/207/204 183/209/204
f 160/201/205 176/210/205 161/187/205
f 168/202/206 184/211/206 169/186/206
f 162/188/207 176/210/207 177/212/207
f 170/189/208 184/211/208 185/213/208
f 162/188/209 178/214/209 163/190/209
f 171/191/210 185/213/210 186/215/210
f 164/192/211 178/214/211 179/216/211
f 172/193/212 186/215/212 187/204/212
f 165/194/213 179/216/213 180/217/213
f 158/196/214 82/218/214 173/219/214
f 185/213/215 199/220/215 200/221/215
f 177/212/216 193/222/216 178/214/216
f 185/213/217 201/223/217 186/215/217
f 179/216/218 193/222/218 194/224/218
f 186/215/219 202/225/219 187/204/219
f 180/217/220 194/224/220 195/226/220
f 173/219/221 82/227/221 188/228/221
f 308/229/222 187/204/222 202/225/222
f 180/217/223 196/230/223 181/205/223
f 174/206/224 188/228/224 189/231/224
f 181/205/225 197/232/225 182/207/225
f 175/208/226 189/231/226 190/233/226
f 183/209/227 197/232/227 198/234/227
f 175/208/228 191/235/228 176/210/228
f 183/209/229 199/220/229 184/211/229
f 177/212/230 191/235/230 192/236/230
f 188/228/231 204/237/232 189/231/232
f 196/230/233 212/238/233 197/232/233
f 189/231/234 205/239/234 190/233/234
f 198/234/235 212/238/235 213/240/235
f 190/233/236 206/241/236 191/235/236
f 198/234/237 214/242/237 199/220/237
f 192/236/238 206/241/238 207/243/238
f 200/221/239 214/242/239 215/244/239
f 192/236/240 208/245/240 193/222/240
f 201/223/241 215/244/242 216/246/241
f 194/224/243 208/245/243 209/247/243
f 202/225/244 216/246/245 217/248/244
f 195/226/246 209/247/246 210/249/247
f 188/228/248 82/250/248 203/251/248
f 308/252/249 202/225/249 217/248/249
f 195/226/250 211/253/250 196/230/250
f 207/243/251 223/254/251 208/245/251
f 216/246/252 230/255/253 231/256/252
f 209/247/254 223/254/254 224/257/254
f 217/248/255 231/256/255 232/258/255
f 210/249/256 224/257/256 225/259/256
f 203/251/257 82/260/257 218/261/257
f 308/262/258 217/248/258 232/258/258
f 210/249/259 226/263/259 211/253/259
f 203/251/260 219/264/260 204/237/260
f 211/253/261 227/265/261 212/238/261
f 204/237/262 220/266/263 205/239/263
f 213/240/264 227/265/264 228/267/264
f 205/239/265 221/268/265 206/241/265
f 213/240/266 229/269/266 214/242/266
f 207/243/267 221/268/267 222/270/267
f 215/244/268 229/269/268 230/255/268
f 226/263/269 242/271/269 227/265/269
f 219/264/270 235/272/270 220/266/270
f 228/267/271 242/271/271 243/273/271
f 220/266/272 236/274/272 221/268/272
f 228/267/273 244/275/273 229/269/273
f 222/270/274 236/274/274 237/276/274
f 230/255/275 244/275/275 245/277/275
f 222/270/276 238/278/276 223/254/276
f 231/256/277 245/277/277 246/279/277
f 224/257/278 238/278/278 239/280/278
f 231/256/279 247/281/279 232/258/279
f 225/259/280 239/280/280 240/282/280
f 218/261/281 82/283/281 233/284/281
f 308/285/282 232/258/282 247/281/282
f 225/259/283 241/286/283 226/263/283
f 219/264/284 233/284/284 234/287/284
f 245/277/285 261/288/285 246/279/285
f 239/280/286 253/289/286 254/290/286
f 246/279/287 262/291/287 247/281/287
f 240/282/288 254/290/288 255/292/288
f 233/284/289 82/293/289 248/294/289
f 308/295/290 247/281/290 262/291/290
f 240/282/291 256/296/291 241/286/291
f 234/287/292 248/294/292 249/297/292
f 241/286/293 257/298/293 242/271/293
f 235/272/294 249/297/294 250/299/294
f 243/273/295 257/298/295 258/300/295
f 235/272/296 251/301/296 236/274/296
f 243/273/297 259/302/297 244/275/297
f 237/276/298 251/301/298 252/303/298
f 245/277/299 259/302/299 260/304/299
f 237/276/300 253/289/300 238/278/300
f 249/297/301 265/305/301 250/299/302
f 258/300/303 272/306/303 273/307/303
f 250/299/304 266/308/304 251/301/304
f 258/300/305 274/309/305 259/302/305
f 252/303/306 266/308/306 267/310/306
f 260/304/307 274/309/307 275/311/307
f 252/303/308 268/312/308 253/289/308
f 261/288/309 275/311/309 276/313/310
f 254/290/311 268/312/311 269/314/311
f 261/288/312 277/315/312 262/291/312
f 255/292/313 269/314/313 270/316/313
f 248/294/314 82/317/314 263/318/314
f 308/319/315 262/291/315 277/315/315
f 255/292/316 271/320/316 256/296/316
f 249/297/317 263/318/317 264/321/317
f 256/296/318 272/306/318 257/298/318
f 269/314/319 283/322/319 284/323/319
f 276/313/320 292/324/320 277/315/320
f 270/316/321 284/323/321 285/325/322
f 263/318/323 82/326/323 278/327/323
f 308/328/324 277/315/324 292/324/324
f 270/316/325 286/329/325 271/320/325
f 263/318/326 279/330/326 264/321/326
f 271/320/327 287/331/327 272/306/327
f 264/321/328 280/332/328 265/305/328
f 273/307/329 287/331/329 288/333/329
f 265/305/330 281/334/330 266/308/330
f 273/307/331 289/335/331 274/309/331
f 267/310/332 281/334/332 282/336/332
f 275/311/333 289/335/333 290/337/333
f 267/310/334 283/322/334 268/312/334
f 275/311/335 291/338/335 276/313/335
f 288/333/336 302/339/336 303/340/336
f 280/332/337 296/341/337 281/334/337
f 288/333/338 304/342/338 289/335/338
f 282/336/339 296/341/339 297/343/340
f 290/337/341 304/342/341 305/344/341
f 282/336/342 298/345/342 283/322/342
f 290/337/343 306/346/343 291/338/343
f 284/323/344 298/345/344 299/347/344
f 292/324/345 306/346/345 307/348/345
f 285/325/346 299/347/346 300/349/346
f 278/327/347 82/350/347 293/351/347
f 308/352/348 292/324/348 307/348/348
f 285/325/349 301/353/349 286/329/349
f 278/327/350 294/354/350 279/330/350
f 286/329/351 302/339/351 287/331/351
f 280/332/352 294/354/352 295/355/352
f 306/346/353 323/356/353 307/348/353
f 300/349/354 315/357/354 316/358/354
f 293/351/355 82/359/355 309/360/355
f 308/361/356 307/348/356 323/356/356
f 300/349/357 317/362/357 301/353/357
f 294/354/358 309/360/358 310/363/358
f 301/353/359 318/364/359 302/339/359
f 295/355/360 310/363/360 311/365/360
f 303/340/361 318/364/361 319/366/361
f 295/355/362 312/367/362 296/341/362
f 303/340/363 320/368/363 304/342/363
f 297/343/364 312/367/364 313/369/364
f 305/344/365 320/368/365 321/370/365
f 297/343/366 314/371/366 298/345/366
f 305/344/367 322/372/367 306/346/367
f 299/347/368 314/371/368 315/357/368
f 319/366/369 335/373/369 320/368/369
f 313/369/370 327/374/370 328/375/370
f 321/370/371 335/373/371 336/376/371
f 313/369/372 329/377/372 314/371/372
f 321/370/373 337/378/373 322/372/373
f 315/357/374 329/377/374 330/379/374
f 323/356/375 337/378/375 338/380/375
f 316/358/376 330/379/376 331/381/377
f 309/360/378 82/382/378 324/383/378
f 308/384/379 323/356/379 338/380/379
f 316/358/380 332/385/380 317/362/380
f 309/360/381 325/386/381 310/363/381
f 317/362/382 333/387/382 318/364/382
f 310/363/383 326/388/383 311/365/384
f 319/366/385 333/387/385 334/389/385
f 311/365/386 327/374/386 312/367/386
f 324/383/387 82/390/387 339/391/387
f 308/392/388 338/380/388 353/393/388
f 331/381/389 347/394/389 332/385/390
f 324/383/391 340/395/391 325/386/391
f 332/385/392 348/396/392 333/387/392
f 326/388/393 340/395/393 341/397/394
f 334/389/395 348/396/395 349/398/395
f 326/388/396 342/399/396 327/374/396
f 334/389/397 350/400/397 335/373/397
f 328/375/398 342/399/398 343/401/398
f 336/376/399 350/400/399 351/402/399
f 328/375/400 344/403/400 329/377/400
f 336/376/401 352/404/402 337/378/402
f 330/379/403 344/403/403 345/405/403
f 338/380/404 352/404/404 353/393/404
f 331/381/405 345/405/405 346/406/405
f 343/401/406 357/407/406 358/408/406
f 351/402/407 365/409/407 366/410/407
f 343/401/408 359/411/408 344/403/408
f 351/402/409 367/412/409 352/404/409
f 345/405/410 359/411/410 360/413/410
f 353/393/411 367/412/411 368/414/411
f 346/406/412 360/413/412 361/415/412
f 339/391/413 82/416/413 354/417/413
f 308/418/414 353/393/414 368/414/414
f 346/406/415 362/419/415 347/394/415
f 339/391/416 355/420/416 340/395/416
f 347/394/417 363/421/417 348/396/417
f 341/397/418 355/420/418 356/422/418
f 349/398/419 363/421/419 364/423/419
f 341/397/420 357/407/420 342/399/420
f 349/398/421 365/409/421 350/400/421
f 361/424/422 377/425/422 362/426/422
f 355/427/423 369/428/423 370/429/423
f 362/426/424 378/430/424 363/431/424
f 356/432/425 370/429/425 371/433/425
f 364/434/426 378/430/426 379/435/426
f 356/432/427 372/436/427 357/437/427
f 364/434/428 380/438/428 365/439/428
f 358/440/429 372/436/429 373/441/429
f 366/442/430 380/438/430 381/443/430
f 358/440/431 374/444/431 359/445/431
f 366/442/432 382/446/432 367/447/432
f 360/448/433 374/444/433 375/449/433
f 367/447/434 383/450/434 368/451/434
f 361/424/435 375/449/435 376/452/435
f 354/453/436 82/454/436 369/428/436
f 308/455/437 368/451/437 383/450/437
f 381/443/438 395/456/438 396/457/438
f 373/441/439 389/458/439 374/444/439
f 381/443/440 397/459/440 382/446/440
f 375/449/441 389/458/441 390/460/441
f 382/446/442 398/461/442 383/450/442
f 376/452/443 390/460/443 391/462/443
f 369/428/444 82/463/444 384/464/444
f 308/465/445 383/450/445 398/461/445
f 376/452/446 392/466/446 377/425/446
f 370/429/447 384/464/447 385/467/447
f 377/425/448 393/468/448 378/430/448
f 371/433/449 385/467/449 386/469/450
f 379/435/451 393/468/451 394/470/451
f 371/433/452 387/471/452 372/436/452
f 379/435/453 395/456/453 380/438/453
f 373/441/454 387/471/454 388/472/454
f 384/464/455 400/473/456 385/467/456
f 392/466/457 408/474/457 393/468/457
f 386/469/458 400/473/458 401/475/459
f 394/470/460 408/474/460 409/476/460
f 386/469/461 402/477/461 387/471/461
f 394/470/462 410/478/462 395/456/462
f 388/472/463 402/477/463 403/479/463
f 396/457/464 410/478/464 411/480/464
f 388/472/465 404/481/465 389/458/465
f 396/457/466 412/482/466 397/459/467
f 390/460/468 404/481/468 405/483/468
f 398/461/469 412/482/469 413/484/469
f 391/462/470 405/483/470 406/485/471
f 384/464/472 82/486/472 399/487/472
f 308/488/473 398/461/473 413/484/473
f 391/462/474 407/489/474 392/466/475
f 403/479/476 419/490/476 404/481/476
f 411/480/477 427/491/477 412/482/477
f 405/483/478 419/490/478 420/492/478
f 412/482/479 428/493/479 413/484/479
f 406/485/480 420/492/480 421/494/481
f 399/487/482 82/495/482 414/496/482
f 308/497/483 413/484/483 428/493/483
f 406/485/484 422/498/484 407/489/485
f 399/487/486 415/499/486 400/473/486
f 407/489/487 423/500/487 408/474/487
f 401/475/488 415/499/488 416/501/488
f 409/476/489 423/500/489 424/502/489
f 401/475/490 417/503/490 402/477/490
f 409/476/491 425/504/491 410/478/491
f 403/479/492 417/503/492 418/505/493
f 411/480/494 425/504/494 426/506/494
f 422/498/495 438/507/495 423/500/495
f 416/501/496 430/508/496 431/509/496
f 424/502/497 438/507/497 439/510/497
f 416/501/498 432/511/498 417/503/498
f 424/502/499 440/512/499 425/504/499
f 418/505/500 432/511/500 433/513/500
f 426/506/501 440/512/501 441/514/501
f 418/505/502 434/515/502 419/490/502
f 426/506/503 442/516/503 427/491/503
f 420/492/504 434/515/504 435/517/504
f 428/493/505 442/516/505 443/518/505
f 421/494/506 435/517/506 436/519/506
f 414/496/507 82/520/507 429/521/507
f 308/522/508 428/493/508 443/518/508
f 421/494/509 437/523/509 422/498/510
f 414/496/511 430/508/511 415/499/511
f 441/514/512 457/524/512 442/516/512
f 435/517/513 449/525/513 450/526/513
f 442/516/514 458/527/515 443/518/515
f 436/519/516 450/526/516 451/528/517
f 429/521/518 82/529/518 444/530/518
f 308/531/519 443/518/519 458/527/519
f 436/519/520 452/532/520 437/523/520
f 430/508/521 444/530/522 445/533/521
f 437/523/523 453/534/523 438/507/523
f 431/509/524 445/533/524 446/535/524
f 439/510/525 453/534/525 454/536/525
f 431/509/526 447/537/526 432/511/526
f 439/510/527 455/538/527 440/512/527
f 433/513/528 447/537/528 448/539/528
f 441/514/529 455/538/529 456/540/529
f 433/513/530 449/525/530 434/515/530
f 454/536/531 468/541/531 469/542/531
f 446/535/532 462/543/532 447/537/532
f 454/536/533 470/544/533 455/538/533
f 448/539/534 462/543/534 463/545/534
f 456/540/535 470/544/535 471/546/535
f 448/539/536 464/547/536 449/525/536
f 456/540/537 472/548/537 457/524/537
f 450/526/538 464/547/538 465/549/538
f 458/527/539 472/548/539 473/550/539
f 451/528/540 465/549/540 466/551/540
f 444/530/541 82/552/541 459/553/541
f 308/554/542 458/527/542 473/550/542
f 451/528/543 467/555/543 452/532/543
f 444/530/544 460/556/544 445/533/544
f 452/532/545 468/541/545 453/534/545
f 446/535/546 460/556/546 461/557/546
f 472/548/547 482/6/547 473/550/547
f 466/551/548 3/1/548 4/8/548
f 459/553/549 82/558/549 474/9/549
f 308/559/550 473/550/550 482/6/550
f 466/551/551 5/14/551 467/555/551
f 459/553/552 475/15/552 460/556/552
f 467/555/553 478/18/553 468/541/553
f 461/557/554 475/15/554 1/19/554
f 468/541/555 6/22/555 469/542/555
f 462/543/556 1/19/556 476/23/556
f 469/542/557 479/25/557 470/544/557
f 463/545/558 476/23/558 2/28/558
f 471/546/559 479/25/559 480/30/559
f 464/547/560 2/28/560 477/31/560
f 471/546/561 481/4/561 472/548/561
f 465/549/562 477/31/562 3/1/562
f 3/1/1 477/31/1 12/2/1
f 481/4/2 20/32/2 21/5/2
f 3/1/3 13/3/563 14/7/3
f 4/8/6 14/7/564 15/13/6
f 475/15/8 474/9/8 7/11/8
f 5/14/9 15/13/9 16/17/9
f 1/19/10 475/15/10 8/16/10
f 478/18/11 16/17/11 17/21/11
f 476/23/12 1/19/12 9/20/12
f 479/25/13 6/22/13 17/21/13
f 476/23/14 10/24/14 11/27/14
f 479/25/15 18/26/15 19/29/15
f 477/31/16 2/28/16 11/27/16
f 480/30/17 19/29/17 20/32/17
f 19/29/18 18/26/18 33/33/18
f 11/27/19 26/49/19 27/35/19
f 20/32/20 19/29/20 34/34/20
f 13/3/22 12/2/22 27/35/22
f 20/32/23 35/36/23 36/38/23
f 13/3/24 28/37/565 29/39/24
f 14/7/27 29/39/566 30/43/27
f 7/11/28 22/41/28 23/44/28
f 15/13/29 30/43/29 31/45/29
f 8/16/30 23/44/30 24/46/31
f 17/21/32 16/17/32 31/45/32
f 9/20/33 24/46/33 25/48/33
f 18/26/34 17/21/34 32/47/34
f 10/24/35 25/48/35 26/49/35
f 30/43/36 45/65/36 46/50/36
f 23/44/37 38/66/37 39/51/37
f 32/47/38 31/45/38 46/50/38
f 24/46/39 39/51/39 40/53/39
f 33/33/40 32/47/40 47/52/40
f 25/48/41 40/53/41 41/55/41
f 34/34/42 33/33/42 48/54/42
f 26/49/43 41/55/43 42/57/43
f 35/36/44 34/34/45 49/56/45
f 28/37/46 27/35/46 42/57/46
f 36/38/47 35/36/48 50/58/48
f 29/39/49 28/37/49 43/59/49
f 29/39/53 44/61/567 45/65/53
f 22/41/54 37/63/54 38/66/55
f 50/58/56 49/56/56 64/67/56
f 43/59/57 42/57/57 57/69/57
f 51/60/58 50/58/58 65/68/58
f 44/61/59 43/59/59 58/70/59
f 44/61/62 59/72/62 60/76/62
f 37/63/63 52/74/63 53/77/63
f 45/65/64 60/76/64 61/78/64
f 38/66/65 53/77/65 54/79/65
f 47/52/66 46/50/66 61/78/66
f 39/51/67 54/79/67 55/81/67
f 47/52/68 62/80/68 63/82/68
f 41/55/69 40/53/69 55/81/69
f 49/56/70 48/54/70 63/82/70
f 41/55/71 56/83/71 57/69/71
f 54/79/72 53/77/72 68/84/72
f 62/80/73 61/78/73 76/86/73
f 54/79/74 69/85/74 70/88/74
f 62/80/75 77/87/75 78/89/75
f 56/83/76 55/81/76 70/88/76
f 64/67/77 63/82/77 78/89/77
f 56/83/78 71/90/78 72/92/78
f 64/67/79 79/91/79 80/93/79
f 58/70/80 57/69/80 72/92/80
f 65/68/81 80/93/81 81/95/81
f 59/72/82 58/70/82 73/94/82
f 59/72/85 74/96/85 75/100/85
f 53/77/86 52/74/86 67/98/86
f 60/76/87 75/100/87 76/86/87
f 73/94/88 72/92/88 88/101/88
f 81/95/89 80/93/89 96/103/89
f 74/96/91 73/94/91 89/102/91
f 74/96/95 90/105/568 91/109/95
f 67/98/96 83/107/569 84/110/96
f 75/100/97 91/109/97 92/111/97
f 68/84/98 84/110/98 85/112/98
f 77/87/99 76/86/99 92/111/99
f 69/85/100 85/112/100 86/114/100
f 77/87/101 93/113/101 94/115/101
f 71/90/102 70/88/102 86/114/102
f 79/91/103 78/89/103 94/115/103
f 71/90/104 87/116/104 88/101/104
f 80/93/105 79/91/105 95/117/105
f 93/113/107 92/111/107 107/118/107
f 85/112/108 100/134/108 101/120/108
f 93/113/109 108/119/109 109/121/109
f 87/116/110 86/114/110 101/120/110
f 95/117/111 94/115/111 109/121/111
f 87/116/112 102/122/112 103/124/112
f 95/117/113 110/123/113 111/125/114
f 89/102/115 88/101/115 103/124/115
f 96/103/116 111/125/116 112/127/116
f 90/105/117 89/102/117 104/126/117
f 90/105/121 105/128/121 106/132/121
f 83/107/123 98/130/123 99/133/123
f 91/109/124 106/132/124 107/118/124
f 85/112/125 84/110/125 99/133/125
f 111/125/127 126/151/127 127/135/127
f 105/128/128 104/126/570 119/136/128
f 105/128/131 120/137/131 121/141/131
f 98/130/133 113/139/133 114/142/133
f 106/132/134 121/141/134 122/143/134
f 99/133/135 114/142/135 115/144/135
f 108/119/136 107/118/136 122/143/136
f 100/134/137 115/144/137 116/146/137
f 108/119/138 123/145/138 124/147/138
f 102/122/139 101/120/139 116/146/139
f 110/123/140 109/121/140 124/147/140
f 102/122/141 117/148/141 118/150/141
f 111/125/142 110/123/142 125/149/142
f 104/126/143 103/124/143 118/150/143
f 115/144/144 130/167/144 131/152/144
f 123/145/145 138/168/145 139/153/145
f 117/148/146 116/146/146 131/152/146
f 125/149/147 124/147/147 139/153/147
f 117/148/148 132/154/148 133/156/148
f 125/149/149 140/155/149 141/157/149
f 119/136/150 118/150/150 133/156/150
f 126/151/151 141/157/151 142/159/151
f 120/137/152 119/136/571 134/158/152
f 120/137/156 135/160/572 136/164/156
f 114/142/158 113/139/158 128/162/158
f 121/141/159 136/164/159 137/166/159
f 115/144/160 114/142/160 129/165/160
f 123/145/161 122/143/161 137/166/161
f 135/160/162 134/158/162 149/169/162
f 135/160/166 150/170/573 151/175/166
f 128/162/167 143/172/167 144/176/167
f 136/164/168 151/175/168 152/177/168
f 129/165/169 144/176/169 145/178/169
f 138/168/171 137/166/171 152/177/171
f 130/167/172 145/178/172 146/180/172
f 138/168/173 153/179/173 154/181/173
f 132/154/174 131/152/174 146/180/174
f 140/155/175 139/153/175 154/181/175
f 132/154/176 147/182/176 148/184/176
f 141/157/177 140/155/177 155/183/177
f 134/158/179 133/156/179 148/184/179
f 141/157/180 156/185/180 157/174/180
f 153/179/181 168/202/181 169/186/181
f 147/182/182 146/180/182 161/187/182
f 155/183/183 154/181/183 169/186/183
f 147/182/184 162/188/184 163/190/184
f 156/185/185 155/183/185 170/189/185
f 149/169/186 148/184/186 163/190/186
f 157/174/187 156/185/187 171/191/187
f 150/170/188 149/169/188 164/192/188
f 150/170/192 165/194/574 166/198/192
f 143/172/194 158/196/194 159/199/194
f 151/175/195 166/198/195 167/200/195
f 144/176/196 159/199/196 160/201/196
f 153/179/197 152/177/197 167/200/197
f 145/178/198 160/201/198 161/187/198
f 165/194/200 180/217/200 181/205/200
f 158/196/201 173/219/201 174/206/201
f 166/198/202 181/205/202 182/207/202
f 159/199/203 174/206/203 175/208/203
f 168/202/204 167/200/204 182/207/204
f 160/201/205 175/208/205 176/210/205
f 168/202/206 183/209/206 184/211/206
f 162/188/207 161/187/207 176/210/207
f 170/189/208 169/186/208 184/211/208
f 162/188/209 177/212/209 178/214/209
f 171/191/210 170/189/210 185/213/210
f 164/192/211 163/190/211 178/214/211
f 172/193/212 171/191/212 186/215/212
f 165/194/213 164/192/213 179/216/213
f 185/213/215 184/211/215 199/220/215
f 177/212/216 192/236/216 193/222/216
f 185/213/217 200/221/217 201/223/217
f 179/216/218 178/214/218 193/222/218
f 186/215/219 201/223/219 202/225/219
f 180/217/220 179/216/220 194/224/220
f 180/217/223 195/226/223 196/230/223
f 174/206/224 173/219/224 188/228/224
f 181/205/225 196/230/225 197/232/225
f 175/208/226 174/206/226 189/231/226
f 183/209/227 182/207/227 197/232/227
f 175/208/228 190/233/228 191/235/228
f 183/209/229 198/234/229 199/220/229
f 177/212/230 176/210/230 191/235/230
f 188/228/231 203/251/231 204/237/232
f 196/230/233 211/253/233 212/238/233
f 189/231/234 204/237/234 205/239/234
f 198/234/235 197/232/235 212/238/235
f 190/233/236 205/239/236 206/241/236
f 198/234/237 213/240/237 214/242/237
f 192/236/238 191/235/238 206/241/238
f 200/221/239 199/220/239 214/242/239
f 192/236/240 207/243/240 208/245/240
f 201/223/241 200/221/242 215/244/242
f 194/224/243 193/222/243 208/245/243
f 202/225/244 201/223/245 216/246/245
f 195/226/246 194/224/246 209/247/246
f 195/226/250 210/249/575 211/253/250
f 207/243/251 222/270/251 223/254/251
f 216/246/252 215/244/253 230/255/253
f 209/247/254 208/245/254 223/254/254
f 217/248/255 216/246/255 231/256/255
f 210/249/256 209/247/256 224/257/256
f 210/249/259 225/259/259 226/263/259
f 203/251/260 218/261/260 219/264/260
f 211/253/261 226/263/261 227/265/261
f 204/237/262 219/264/262 220/266/263
f 213/240/264 212/238/264 227/265/264
f 205/239/265 220/266/265 221/268/265
f 213/240/266 228/267/266 229/269/266
f 207/243/267 206/241/267 221/268/267
f 215/244/268 214/242/268 229/269/268
f 226/263/269 241/286/269 242/271/269
f 219/264/270 234/287/270 235/272/270
f 228/267/271 227/265/271 242/271/271
f 220/266/272 235/272/272 236/274/272
f 228/267/273 243/273/273 244/275/273
f 222/270/274 221/268/274 236/274/274
f 230/255/275 229/269/275 244/275/275
f 222/270/276 237/276/276 238/278/276
f 231/256/277 230/255/277 245/277/277
f 224/257/278 223/254/278 238/278/278
f 231/256/279 246/279/279 247/281/279
f 225/259/280 224/257/280 239/280/280
f 225/259/283 240/282/283 241/286/283
f 219/264/284 218/261/284 233/284/284
f 245/277/285 260/304/285 261/288/285
f 239/280/286 238/278/286 253/289/286
f 246/279/287 261/288/287 262/291/287
f 240/282/288 239/280/288 254/290/288
f 240/282/291 255/292/291 256/296/291
f 234/287/292 233/284/292 248/294/292
f 241/286/293 256/296/293 257/298/293
f 235/272/294 234/287/294 249/297/294
f 243/273/295 242/271/295 257/298/295
f 235/272/296 250/299/296 251/301/296
f 243/273/297 258/300/297 259/302/297
f 237/276/298 236/274/298 251/301/298
f 245/277/299 244/275/299 259/302/299
f 237/276/300 252/303/300 253/289/300
f 249/297/301 264/321/301 265/305/301
f 258/300/303 257/298/303 272/306/303
f 250/299/304 265/305/304 266/308/304
f 258/300/305 273/307/305 274/309/305
f 252/303/306 251/301/306 266/308/306
f 260/304/307 259/302/307 274/309/307
f 252/303/308 267/310/308 268/312/308
f 261/288/309 260/304/309 275/311/309
f 254/290/311 253/289/311 268/312/311
f 261/288/312 276/313/312 277/315/312
f 255/292/313 254/290/313 269/314/313
f 255/292/316 270/316/316 271/320/316
f 249/297/317 248/294/317 263/318/317
f 256/296/318 271/320/318 272/306/318
f 269/314/319 268/312/319 283/322/319
f 276/313/320 291/338/320 292/324/320
f 270/316/321 269/314/321 284/323/321
f 270/316/325 285/325/576 286/329/325
f 263/318/326 278/327/326 279/330/326
f 271/320/327 286/329/327 287/331/327
f 264/321/328 279/330/328 280/332/328
f 273/307/329 272/306/329 287/331/329
f 265/305/330 280/332/330 281/334/330
f 273/307/331 288/333/331 289/335/331
f 267/310/332 266/308/332 281/334/332
f 275/311/333 274/309/333 289/335/333
f 267/310/334 282/336/334 283/322/334
f 275/311/335 290/337/335 291/338/335
f 288/333/336 287/331/336 302/339/336
f 280/332/337 295/355/337 296/341/337
f 288/333/338 303/340/577 304/342/338
f 282/336/339 281/334/339 296/341/339
f 290/337/341 289/335/341 304/342/341
f 282/336/342 297/343/342 298/345/342
f 290/337/343 305/344/343 306/346/343
f 284/323/344 283/322/344 298/345/344
f 292/324/345 291/338/345 306/346/345
f 285/325/346 284/323/346 299/347/346
f 285/325/349 300/349/349 301/353/349
f 278/327/350 293/351/350 294/354/350
f 286/329/351 301/353/351 302/339/351
f 280/332/352 279/330/352 294/354/352
f 306/346/353 322/372/353 323/356/353
f 300/349/354 299/347/354 315/357/354
f 300/349/357 316/358/357 317/362/357
f 294/354/358 293/351/358 309/360/358
f 301/353/359 317/362/359 318/364/359
f 295/355/360 294/354/360 310/363/360
f 303/340/361 302/339/361 318/364/361
f 295/355/362 311/365/362 312/367/362
f 303/340/363 319/366/363 320/368/363
f 297/343/364 296/341/364 312/367/364
f 305/344/365 304/342/365 320/368/365
f 297/343/366 313/369/366 314/371/366
f 305/344/367 321/370/367 322/372/367
f 299/347/368 298/345/368 314/371/368
f 319/366/369 334/389/369 335/373/369
f 313/369/370 312/367/370 327/374/370
f 321/370/371 320/368/371 335/373/371
f 313/369/372 328/375/372 329/377/372
f 321/370/373 336/376/373 337/378/373
f 315/357/374 314/371/374 329/377/374
f 323/356/375 322/372/375 337/378/375
f 316/358/376 315/357/376 330/379/376
f 316/358/380 331/381/578 332/385/380
f 309/360/381 324/383/579 325/386/381
f 317/362/382 332/385/382 333/387/382
f 310/363/383 325/386/383 326/388/383
f 319/366/385 318/364/385 333/387/385
f 311/365/386 326/388/386 327/374/386
f 331/381/389 346/406/389 347/394/389
f 324/383/391 339/391/391 340/395/391
f 332/385/392 347/394/392 348/396/392
f 326/388/393 325/386/393 340/395/393
f 334/389/395 333/387/395 348/396/395
f 326/388/396 341/397/396 342/399/396
f 334/389/397 349/398/397 350/400/397
f 328/375/398 327/374/398 342/399/398
f 336/376/399 335/373/399 350/400/399
f 328/375/400 343/401/400 344/403/400
f 336/376/401 351/402/401 352/404/402
f 330/379/403 329/377/403 344/403/403
f 338/380/404 337/378/404 352/404/404
f 331/381/405 330/379/405 345/405/405
f 343/401/406 342/399/406 357/407/406
f 351/402/407 350/400/407 365/409/407
f 343/401/408 358/408/408 359/411/408
f 351/402/409 366/410/409 367/412/409
f 345/405/410 344/403/410 359/411/410
f 353/393/411 352/404/411 367/412/411
f 346/406/412 345/405/412 360/413/412
f 346/406/415 361/415/415 362/419/415
f 339/391/416 354/417/416 355/420/416
f 347/394/417 362/419/417 363/421/417
f 341/397/418 340/395/418 355/420/418
f 349/398/419 348/396/419 363/421/419
f 341/397/420 356/422/420 357/407/420
f 349/398/421 364/423/421 365/409/421
f 361/424/422 376/452/422 377/425/422
f 355/427/423 354/453/423 369/428/423
f 362/426/424 377/425/424 378/430/424
f 356/432/425 355/427/425 370/429/425
f 364/434/426 363/431/426 378/430/426
f 356/432/427 371/433/427 372/436/427
f 364/434/428 379/435/428 380/438/428
f 358/440/429 357/437/429 372/436/429
f 366/442/430 365/439/430 380/438/430
f 358/440/431 373/441/431 374/444/431
f 366/442/432 381/443/432 382/446/432
f 360/448/433 359/445/433 374/444/433
f 367/447/434 382/446/434 383/450/434
f 361/424/435 360/448/435 375/449/435
f 381/443/438 380/438/438 395/456/438
f 373/441/439 388/472/439 389/458/439
f 381/443/440 396/457/440 397/459/440
f 375/449/441 374/444/441 389/458/441
f 382/446/442 397/459/442 398/461/442
f 376/452/443 375/449/443 390/460/443
f 376/452/446 391/462/580 392/466/446
f 370/429/447 369/428/447 384/464/447
f 377/425/448 392/466/448 393/468/448
f 371/433/449 370/429/449 385/467/449
f 379/435/451 378/430/451 393/468/451
f 371/433/452 386/469/452 387/471/452
f 379/435/453 394/470/453 395/456/453
f 373/441/454 372/436/454 387/471/454
f 384/464/455 399/487/455 400/473/456
f 392/466/457 407/489/457 408/474/457
f 386/469/458 385/467/458 400/473/458
f 394/470/460 393/468/460 408/474/460
f 386/469/461 401/475/461 402/477/461
f 394/470/462 409/476/462 410/478/462
f 388/472/463 387/471/463 402/477/463
f 396/457/464 395/456/464 410/478/464
f 388/472/465 403/479/465 404/481/465
f 396/457/466 411/480/466 412/482/466
f 390/460/468 389/458/468 404/481/468
f 398/461/469 397/459/469 412/482/469
f 391/462/470 390/460/470 405/483/470
f 391/462/474 406/485/581 407/489/474
f 403/479/476 418/505/476 419/490/476
f 411/480/477 426/506/477 427/491/477
f 405/483/478 404/481/478 419/490/478
f 412/482/479 427/491/479 428/493/479
f 406/485/480 405/483/480 420/492/480
f 406/485/484 421/494/484 422/498/484
f 399/487/486 414/496/486 415/499/486
f 407/489/487 422/498/487 423/500/487
f 401/475/488 400/473/488 415/499/488
f 409/476/489 408/474/489 423/500/489
f 401/475/490 416/501/490 417/503/490
f 409/476/491 424/502/582 425/504/491
f 403/479/492 402/477/492 417/503/492
f 411/480/494 410/478/494 425/504/494
f 422/498/495 437/523/495 438/507/495
f 416/501/496 415/499/496 430/508/496
f 424/502/497 423/500/497 438/507/497
f 416/501/498 431/509/498 432/511/498
f 424/502/499 439/510/499 440/512/499
f 418/505/500 417/503/500 432/511/500
f 426/506/501 425/504/501 440/512/501
f 418/505/502 433/513/502 434/515/502
f 426/506/503 441/514/503 442/516/503
f 420/492/504 419/490/504 434/515/504
f 428/493/505 427/491/505 442/516/505
f 421/494/506 420/492/583 435/517/506
f 421/494/509 436/519/509 437/523/509
f 414/496/511 429/521/511 430/508/511
f 441/514/512 456/540/512 457/524/512
f 435/517/513 434/515/513 449/525/513
f 442/516/514 457/524/514 458/527/515
f 436/519/516 435/517/516 450/526/516
f 436/519/520 451/528/584 452/532/520
f 430/508/521 429/521/522 444/530/522
f 437/523/523 452/532/523 453/534/523
f 431/509/524 430/508/524 445/533/524
f 439/510/525 438/507/525 453/534/525
f 431/509/526 446/535/526 447/537/526
f 439/510/527 454/536/527 455/538/527
f 433/513/528 432/511/528 447/537/528
f 441/514/529 440/512/529 455/538/529
f 433/513/530 448/539/530 449/525/530
f 454/536/531 453/534/531 468/541/531
f 446/535/532 461/557/532 462/543/532
f 454/536/533 469/542/533 470/544/533
f 448/539/534 447/537/534 462/543/534
f 456/540/535 455/538/535 470/544/535
f 448/539/536 463/545/536 464/547/536
f 456/540/537 471/546/537 472/548/537
f 450/526/538 449/525/538 464/547/538
f 458/527/539 457/524/539 472/548/539
f 451/528/540 450/526/540 465/549/540
f 451/528/543 466/551/543 467/555/543
f 444/530/544 459/553/544 460/556/544
f 452/532/545 467/555/545 468/541/545
f 446/535/546 445/533/546 460/556/546
f 472/548/547 481/4/547 482/6/547
f 466/551/548 465/549/548 3/1/548
f 466/551/551 4/8/551 5/14/551
f 459/553/552 474/9/552 475/15/552
f 467/555/553 5/14/553 478/18/553
f 461/557/554 460/556/554 475/15/554
f 468/541/555 478/18/555 6/22/555
f 462/543/556 461/557/556 1/19/556
f 469/542/557 6/22/557 479/25/557
f 463/545/558 462/543/558 476/23/558
f 471/546/559 470/544/559 479/25/559
f 464/547/560 463/545/560 2/28/560
f 471/546/561 480/30/561 481/4/561
f 465/549/562 464/547/562 477/31/562
