# Blender 4.4.0
# www.blender.org
mtllib earth.mtl
o 球.001
v -0.000047 -440.229095 1350.794922
v -0.000047 -215.865036 1126.430786
v -0.000047 -94.439995 833.284912
v -0.000047 -78.814392 674.635437
v -0.000047 -94.440018 515.986084
v -0.000047 -215.865051 222.840164
v 30.950916 -736.423462 1472.219849
v 60.712460 -586.802063 1425.943481
v 88.140839 -448.910217 1350.794800
v 112.182030 -328.046997 1249.661743
v 131.912109 -228.857224 1126.430786
v 146.572876 -155.152527 985.837524
v 155.600952 -109.765434 833.284912
v 158.649368 -94.440002 674.635437
v 155.600952 -109.765457 515.986084
v 146.572876 -155.152634 363.433411
v 131.912109 -228.857239 222.840164
v 112.182030 -328.047150 99.609192
v 88.140839 -448.910187 -1.523854
v 60.712460 -586.802185 -76.672516
v 30.950916 -736.423523 -122.948875
v 60.712448 -745.451538 1472.219849
v 119.091820 -604.511292 1425.943481
v 172.894531 -474.620056 1350.794800
v 220.053009 -360.769348 1249.661743
v 258.754944 -267.334625 1126.430786
v 287.513123 -197.906250 985.837524
v 305.222321 -155.152542 833.284912
v 311.201965 -140.716461 674.635437
v 305.222321 -155.152557 515.986084
v 287.513123 -197.906296 363.433411
v 258.754944 -267.334747 222.840164
v 220.053009 -360.769440 99.609200
v 172.894531 -474.620148 -1.523852
v 119.091820 -604.511292 -76.672516
v 60.712448 -745.451599 -122.948875
v 88.140831 -760.112305 1472.219849
v 172.894531 -633.269470 1425.943481
v 251.003983 -516.370483 1350.794800
v 319.467468 -413.907532 1249.661743
v 375.653961 -329.818481 1126.430786
v 417.404297 -267.334595 985.837524
v 443.114105 -228.857254 833.284912
v 451.795227 -215.865143 674.635437
v 443.114105 -228.857269 515.986023
v 417.404297 -267.334625 363.433441
v 375.653961 -329.818542 222.840179
v 319.467468 -413.907501 99.609200
v 251.003983 -516.370544 -1.523849
v 172.894531 -633.269531 -76.672516
v 88.140831 -760.112366 -122.948807
v 112.182014 -779.842407 1472.219849
v 220.053009 -671.971436 1425.943481
v 319.467468 -572.557007 1350.794800
v 406.604950 -485.419434 1249.661743
v 478.116760 -413.907623 1126.430786
v 531.254883 -360.769379 985.837524
v 563.977234 -328.047089 833.284851
v 575.026245 -316.998230 674.635376
v 563.977234 -328.047119 515.986023
v 531.254883 -360.769409 363.433441
v 478.116760 -413.907593 222.840179
v 406.604950 -485.419464 99.609207
v 319.467468 -572.557068 -1.523844
v 220.053009 -671.971497 -76.672447
v 112.182014 -779.842468 -122.948807
v 131.912094 -803.883606 1472.219849
v 258.754974 -719.129883 1425.943481
v 375.653992 -641.020508 1350.794800
v 478.116821 -572.556946 1249.661743
v 562.205872 -516.370605 1126.430786
v 624.689636 -474.619995 985.837524
v 663.167053 -448.910339 833.284912
v 676.159241 -440.229309 674.635498
v 663.167053 -448.910400 515.986084
v 624.689636 -474.619995 363.433441
v 562.205872 -516.370605 222.840195
v 478.116821 -572.557068 99.609215
v 375.653992 -641.020569 -1.523839
v 258.754974 -719.129944 -76.672447
v 131.912094 -803.883606 -122.948868
v -0.000047 -892.024475 1487.845581
v 146.572861 -831.311951 1472.219971
v 287.513123 -772.932617 1425.943481
v 417.404297 -719.129944 1350.794800
v 531.254883 -671.971436 1249.661743
v 624.689636 -633.269653 1126.430786
v 694.117981 -604.511353 985.837524
v 736.871704 -586.802246 833.284912
v 751.307861 -580.822632 674.635498
v 736.871704 -586.802246 515.986084
v 694.117981 -604.511414 363.433441
v 624.689636 -633.269653 222.840164
v 531.254883 -671.971497 99.609222
v 417.404297 -719.130005 -1.523833
v 287.513123 -772.932678 -76.672440
v 146.572861 -831.312012 -122.948868
v 155.600922 -861.073486 1472.219971
v 305.222290 -831.311951 1425.943604
v 443.114075 -803.883606 1350.794800
v 563.977234 -779.842346 1249.661743
v 663.166992 -760.112427 1126.430786
v 736.871704 -745.451538 985.837524
v 782.258850 -736.423584 833.284912
v 797.584167 -733.375244 674.635437
v 782.258850 -736.423584 515.986084
v 736.871704 -745.451538 363.433472
v 663.166992 -760.112427 222.840179
v 563.977234 -779.842407 99.609230
v 443.114075 -803.883667 -1.523827
v 305.222290 -831.312012 -76.672501
v 155.600922 -861.073547 -122.948860
v 158.649323 -892.024475 1472.219971
v 311.201965 -892.024475 1425.943604
v 451.795135 -892.024475 1350.794922
v 575.026184 -892.024414 1249.661865
v 676.159119 -892.024597 1126.430908
v 751.307922 -892.024475 985.837524
v 797.584167 -892.024597 833.284912
v 813.209717 -892.024597 674.635437
v 797.584167 -892.024536 515.986084
v 751.307922 -892.024475 363.433472
v 676.159119 -892.024597 222.840179
v 575.026184 -892.024536 99.609238
v 451.795135 -892.024536 -1.523820
v 311.201965 -892.024536 -76.672493
v 158.649323 -892.024536 -122.948860
v 155.600906 -922.975403 1472.219971
v 305.222290 -952.737000 1425.943604
v 443.114014 -980.165344 1350.794922
v 563.977173 -1004.206482 1249.661865
v 663.166931 -1023.936707 1126.430908
v 736.871704 -1038.597412 985.837524
v 782.258789 -1047.625488 833.284912
v 797.583984 -1050.674072 674.635437
v 782.258789 -1047.625610 515.986084
v 736.871704 -1038.597412 363.433502
v 663.166931 -1023.936707 222.840195
v 563.977173 -1004.206604 99.609245
v 443.114014 -980.165466 -1.523814
v 305.222290 -952.737061 -76.672493
v 155.600906 -922.975464 -122.948860
v 146.572830 -952.736938 1472.219971
v 287.513123 -1011.116333 1425.943604
v 417.404205 -1064.919067 1350.794922
v 531.254883 -1112.077393 1249.661865
v 624.689575 -1150.779419 1126.430908
v 694.117981 -1179.537476 985.837524
v 736.871643 -1197.246826 833.284912
v 751.307617 -1203.226562 674.635437
v 736.871643 -1197.246948 515.986023
v 694.117981 -1179.537598 363.433502
v 624.689575 -1150.779541 222.840210
v 531.254883 -1112.077515 99.609253
v 417.404205 -1064.919189 -1.523807
v 287.513123 -1011.116394 -76.672424
v 146.572830 -952.737000 -122.948860
v 131.912048 -980.165344 1472.219971
v 258.754944 -1064.919067 1425.943604
v 375.653870 -1143.028442 1350.794922
v 478.116760 -1211.491943 1249.661865
v 562.205688 -1267.678467 1126.430786
v 624.689636 -1309.428711 985.837585
v 663.166931 -1335.138550 833.284973
v 676.158936 -1343.819702 674.635498
v 663.166931 -1335.138672 515.986084
v 624.689636 -1309.428833 363.433502
v 562.205688 -1267.678467 222.840149
v 478.116760 -1211.491943 99.609261
v 375.653870 -1143.028442 -1.523801
v 258.754944 -1064.919189 -76.672478
v 131.912048 -980.165344 -122.948853
v 112.181969 -1004.206482 1472.219971
v 220.052933 -1112.077393 1425.943604
v 319.467316 -1211.491943 1350.794922
v 406.604889 -1298.629395 1249.661865
v 478.116638 -1370.141235 1126.430786
v 531.254883 -1423.279297 985.837585
v 563.977112 -1456.001709 833.284973
v 575.025818 -1467.050781 674.635498
v 563.977112 -1456.001831 515.986145
v 531.254883 -1423.279419 363.433533
v 478.116638 -1370.141235 222.840164
v 406.604889 -1298.629517 99.609207
v 319.467316 -1211.491943 -1.523796
v 220.052933 -1112.077515 -76.672417
v 112.181969 -1004.206543 -122.948853
v 88.140785 -1023.936584 1472.219971
v 172.894455 -1150.779419 1425.943604
v 251.003830 -1267.678467 1350.794922
v 319.467438 -1370.141235 1249.661865
v 375.653839 -1454.230225 1126.430786
v 417.404297 -1516.714111 985.837585
v 443.113922 -1555.191406 833.284973
v 451.794800 -1568.183716 674.635498
v 443.113922 -1555.191528 515.986084
v 417.404297 -1516.714233 363.433533
v 375.653839 -1454.230347 222.840164
v 319.467438 -1370.141357 99.609276
v 251.003830 -1267.678467 -1.523731
v 172.894455 -1150.779541 -76.672478
v 88.140785 -1023.936584 -122.948853
v 60.712410 -1038.597412 1472.219971
v 119.091743 -1179.537598 1425.943604
v 172.894379 -1309.428711 1350.794922
v 220.052963 -1423.279297 1249.661865
v 258.754822 -1516.714111 1126.430786
v 287.513123 -1586.142334 985.837585
v 305.222137 -1628.896118 833.284973
v 311.201599 -1643.332275 674.635498
v 305.222137 -1628.896240 515.986145
v 287.513123 -1586.142456 363.433472
v 258.754822 -1516.714233 222.840179
v 220.052963 -1423.279419 99.609337
v 172.894379 -1309.428711 -1.523850
v 119.091743 -1179.537598 -76.672531
v 60.712410 -1038.597412 -122.948853
v 30.950893 -1047.625366 1472.219971
v 60.712395 -1197.246704 1425.943604
v 88.140717 -1335.138428 1350.794922
v 112.182007 -1456.001709 1249.661865
v 131.911987 -1555.191406 1126.430786
v 146.572876 -1628.896118 985.837585
v 155.600800 -1674.283203 833.284973
v 158.649017 -1689.608521 674.635498
v 155.600800 -1674.283325 515.986145
v 146.572876 -1628.896240 363.433533
v 131.911987 -1555.191528 222.840240
v 112.182007 -1456.001831 99.609276
v 88.140717 -1335.138428 -1.523848
v 60.712395 -1197.246826 -76.672470
v 30.950893 -1047.625488 -122.948792
v -0.000053 -1050.673828 1472.219971
v -0.000089 -1203.226318 1425.943604
v -0.000125 -1343.819580 1350.794922
v -0.000059 -1467.050659 1249.661865
v -0.000131 -1568.183594 1126.430786
v -0.000022 -1643.332275 985.837585
v -0.000156 -1689.608643 833.284912
v -0.000313 -1705.234009 674.635437
v -0.000156 -1689.608765 515.986084
v -0.000022 -1643.332397 363.433533
v -0.000131 -1568.183716 222.840179
v -0.000059 -1467.050781 99.609283
v -0.000125 -1343.819580 -1.523786
v -0.000089 -1203.226440 -76.672409
v -0.000053 -1050.673828 -122.948914
v -30.950994 -1047.625366 1472.219971
v -60.712574 -1197.246704 1425.943604
v -88.140976 -1335.138428 1350.794922
v -112.182106 -1456.001709 1249.661865
v -131.912231 -1555.191406 1126.430786
v -146.572906 -1628.895996 985.837585
v -155.601105 -1674.283203 833.284912
v -158.649612 -1689.608276 674.635498
v -155.601105 -1674.283325 515.986084
v -146.572906 -1628.896118 363.433472
v -131.912231 -1555.191528 222.840179
v -112.182106 -1456.001831 99.609215
v -88.140976 -1335.138428 -1.523726
v -60.712574 -1197.246826 -76.672470
v -30.950994 -1047.625488 -122.948853
v -60.712505 -1038.597290 1472.219971
v -119.091911 -1179.537598 1425.943604
v -172.894592 -1309.428467 1350.794922
v -220.053024 -1423.279297 1249.661865
v -258.755005 -1516.713867 1126.430786
v -287.513062 -1586.142334 985.837585
v -305.222351 -1628.895996 833.284973
v -311.202057 -1643.331909 674.635498
v -305.222351 -1628.896118 515.986145
v -287.513062 -1586.142456 363.433472
v -258.755005 -1516.714111 222.840240
v -220.053024 -1423.279419 99.609276
v -172.894592 -1309.428589 -1.523728
v -119.091911 -1179.537598 -76.672409
v -60.712505 -1038.597412 -122.948792
v -88.140877 -1023.936523 1472.219971
v -172.894592 -1150.779297 1425.943604
v -251.003967 -1267.678223 1350.794922
v -319.467468 -1370.141235 1249.661865
v -375.653961 -1454.230103 1126.430786
v -417.404297 -1516.714111 985.837585
v -443.114197 -1555.191284 833.284973
v -451.795288 -1568.183228 674.635498
v -443.114197 -1555.191406 515.986145
v -417.404297 -1516.714233 363.433472
v -375.653961 -1454.230225 222.840225
v -319.467468 -1370.141235 99.609337
v -251.003967 -1267.678223 -1.523853
v -172.894592 -1150.779419 -76.672417
v -88.140877 -1023.936584 -122.948792
v -112.182030 -1004.206421 1472.219971
v -220.053024 -1112.077393 1425.943604
v -319.467377 -1211.491699 1350.794922
v -406.604980 -1298.629395 1249.661865
v -478.116821 -1370.140991 1126.430786
v -531.254883 -1423.279297 985.837585
v -563.977356 -1456.001465 833.284973
v -575.026184 -1467.050171 674.635498
v -563.977356 -1456.001587 515.986145
v -531.254883 -1423.279419 363.433533
v -478.116821 -1370.141113 222.840225
v -406.604980 -1298.629395 99.609329
v -319.467377 -1211.491699 -1.523796
v -220.053024 -1112.077393 -76.672478
v -112.182030 -1004.206482 -122.948853
v -0.000047 -892.024536 -138.574600
v -131.912094 -980.165283 1472.219971
v -258.754944 -1064.918945 1425.943604
v -375.653839 -1143.028198 1350.794922
v -478.116852 -1211.491821 1249.661865
v -562.205872 -1267.678223 1126.430786
v -624.689697 -1309.428711 985.837585
v -663.167114 -1335.138184 833.284973
v -676.159119 -1343.819214 674.635498
v -663.167114 -1335.138306 515.986084
v -624.689697 -1309.428833 363.433441
v -562.205872 -1267.678345 222.840179
v -478.116852 -1211.491943 99.609261
v -375.653839 -1143.028198 -1.523801
v -258.754944 -1064.919067 -76.672417
v -131.912094 -980.165344 -122.948792
v -146.572861 -952.736877 1472.219971
v -287.513092 -1011.116272 1425.943604
v -417.404205 -1064.918823 1350.794922
v -531.255005 -1112.077393 1249.661865
v -624.689636 -1150.779175 1126.430908
v -694.117981 -1179.537476 985.837524
v -736.871765 -1197.246460 833.284912
v -751.307617 -1203.225952 674.635437
v -736.871765 -1197.246582 515.986084
v -694.117981 -1179.537598 363.433502
v -624.689636 -1150.779297 222.840210
v -531.255005 -1112.077515 99.609253
v -417.404205 -1064.918945 -1.523807
v -287.513092 -1011.116272 -76.672485
v -146.572861 -952.736938 -122.948860
v -155.600906 -922.975403 1472.219971
v -305.222229 -952.736877 1425.943604
v -443.113922 -980.165161 1350.794922
v -563.977356 -1004.206482 1249.661865
v -663.166992 -1023.936462 1126.430908
v -736.871704 -1038.597412 985.837524
v -782.258850 -1047.625244 833.284912
v -797.583801 -1050.673462 674.635437
v -782.258850 -1047.625366 515.986084
v -736.871704 -1038.597412 363.433502
v -663.166992 -1023.936523 222.840195
v -563.977356 -1004.206543 99.609245
v -443.113922 -980.165222 -1.523814
v -305.222229 -952.736938 -76.672493
v -155.600906 -922.975464 -122.948860
v -158.649307 -892.024475 1472.219971
v -311.201874 -892.024414 1425.943604
v -451.794983 -892.024353 1350.794922
v -575.026245 -892.024414 1249.661865
v -676.159119 -892.024353 1126.430908
v -751.307861 -892.024475 985.837524
v -797.584167 -892.024292 833.284912
v -813.209290 -892.024109 674.635437
v -797.584167 -892.024292 515.986084
v -751.307861 -892.024536 363.433472
v -676.159119 -892.024414 222.840179
v -575.026245 -892.024475 99.609238
v -451.794983 -892.024414 -1.523820
v -311.201874 -892.024475 -76.672493
v -158.649307 -892.024475 -122.948860
v -155.600891 -861.073486 1472.219971
v -305.222198 -831.311951 1425.943604
v -443.113861 -803.883484 1350.794800
v -563.977295 -779.842346 1249.661743
v -663.166870 -760.112244 1126.430786
v -736.871643 -745.451599 985.837585
v -782.258728 -736.423340 833.284912
v -797.583679 -733.374878 674.635437
v -782.258728 -736.423340 515.986084
v -736.871643 -745.451599 363.433472
v -663.166870 -760.112305 222.840179
v -563.977295 -779.842468 99.609230
v -443.113861 -803.883606 -1.523827
v -305.222198 -831.312012 -76.672562
v -155.600891 -861.073547 -122.948860
v -146.572830 -831.312012 1472.219971
v -287.513031 -772.932617 1425.943481
v -417.404053 -719.129883 1350.794800
v -531.254944 -671.971497 1249.661743
v -624.689514 -633.269531 1126.430786
v -694.117981 -604.511475 985.837524
v -736.871521 -586.802124 833.284912
v -751.307312 -580.822449 674.635498
v -736.871521 -586.802124 515.986084
v -694.117981 -604.511536 363.433441
v -624.689514 -633.269592 222.840164
v -531.254944 -671.971497 99.609222
v -417.404053 -719.129944 -1.523833
v -287.513031 -772.932678 -76.672440
v -146.572830 -831.312073 -122.948868
v -131.912064 -803.883667 1472.219849
v -258.754852 -719.129944 1425.943481
v -375.653625 -641.020569 1350.794800
v -478.116821 -572.557007 1249.661743
v -562.205627 -516.370605 1126.430786
v -624.689636 -474.620178 985.837646
v -663.166809 -448.910278 833.284912
v -676.158569 -440.229248 674.635498
v -663.166809 -448.910278 515.986084
v -624.689636 -474.620239 363.433441
v -562.205627 -516.370605 222.840195
v -478.116821 -572.557068 99.609215
v -375.653625 -641.020630 -1.523839
v -258.754852 -719.130005 -76.672508
v -131.912064 -803.883667 -122.948868
v -112.181999 -779.842468 1472.219849
v -220.052933 -671.971497 1425.943481
v -319.467072 -572.557129 1350.794800
v -406.604889 -485.419556 1249.661743
v -478.116516 -413.907715 1126.430786
v -531.254883 -360.769623 985.837524
v -563.976990 -328.047211 833.284851
v -575.025574 -316.998413 674.635376
v -563.976990 -328.047241 515.986023
v -531.254883 -360.769653 363.433441
v -478.116516 -413.907715 222.840179
v -406.604889 -485.419586 99.609207
v -319.467072 -572.557190 -1.523844
v -220.052933 -671.971558 -76.672508
v -112.181999 -779.842529 -122.948868
v -88.140831 -760.112427 1472.219849
v -172.894485 -633.269592 1425.943481
v -251.003662 -516.370667 1350.794922
v -319.467377 -413.907623 1249.661743
v -375.653656 -329.818665 1126.430786
v -417.404236 -267.334839 985.837524
v -443.113800 -228.857498 833.284912
v -451.794556 -215.865570 674.635437
v -443.113800 -228.857513 515.986023
v -417.404236 -267.334869 363.433441
v -375.653656 -329.818726 222.840179
v -319.467377 -413.907623 99.609200
v -251.003662 -516.370789 -1.523849
v -172.894485 -633.269653 -76.672516
v -88.140831 -760.112488 -122.948868
v -60.712471 -745.451660 1472.219849
v -119.091797 -604.511414 1425.943481
v -172.894272 -474.620392 1350.794800
v -220.052963 -360.769470 1249.661743
v -258.754669 -267.334930 1126.430786
v -287.513000 -197.906555 985.837524
v -305.221954 -155.152908 833.284912
v -311.201324 -140.717133 674.635437
v -305.221954 -155.152924 515.986084
v -287.513000 -197.906601 363.433411
v -258.754669 -267.334991 222.840164
v -220.052963 -360.769562 99.609200
v -172.894272 -474.620392 -1.523852
v -119.091797 -604.511536 -76.672516
v -60.712471 -745.451721 -122.948814
v -30.950964 -736.423645 1472.219849
v -60.712463 -586.802307 1425.943481
v -88.140663 -448.910706 1350.794800
v -112.182022 -328.047119 1249.661743
v -131.911911 -228.857651 1126.430786
v -146.572861 -155.152893 985.837524
v -155.600723 -109.765800 833.284912
v -158.648880 -94.440918 674.635437
v -155.600723 -109.765823 515.986084
v -146.572861 -155.152878 363.433411
v -131.911911 -228.857727 222.840164
v -112.182022 -328.047150 99.609192
v -88.140663 -448.910675 -1.523854
v -60.712463 -586.802307 -76.672516
v -30.950964 -736.423645 -122.948875
v -0.000034 -733.375183 1472.219849
v 0.000008 -580.822632 1425.943481
v 0.000026 -316.998199 1249.661743
v 0.000002 -140.716736 985.837524
v 0.000002 -140.716843 363.433411
v 0.000026 -316.998352 99.609192
v 0.000129 -440.229767 -1.523854
v 0.000008 -580.822693 -76.672516
v -0.000034 -733.375305 -122.948875
vn -0.0000 0.9248 -0.3805
vn 0.1626 0.8173 -0.5528
vn -0.0000 0.8333 -0.5528
vn -0.0000 0.7101 0.7041
vn 0.1092 0.5490 0.8286
vn 0.1385 0.6965 0.7041
vn -0.0000 0.7101 -0.7041
vn 0.1385 0.6965 -0.7041
vn 0.1626 0.8173 0.5528
vn -0.0000 0.8333 0.5528
vn 0.1092 0.5490 -0.8286
vn -0.0000 0.5598 -0.8286
vn -0.0000 0.9248 0.3805
vn 0.1804 0.9070 0.3805
vn 0.0757 0.3804 -0.9217
vn -0.0000 0.3879 -0.9217
vn 0.1914 0.9622 0.1939
vn -0.0000 0.9810 0.1939
vn 0.0392 0.1971 -0.9796
vn -0.0000 0.2010 -0.9796
vn 0.1951 0.9808 -0.0000
vn -0.0000 1.0000 -0.0000
vn -0.0000 0.2010 0.9796
vn -0.0000 -0.0000 1.0000
vn 0.0392 0.1971 0.9796
vn -0.0000 -0.0000 -1.0000
vn 0.1914 0.9622 -0.1939
vn -0.0000 0.9810 -0.1939
vn -0.0000 0.3879 0.9217
vn 0.0757 0.3804 0.9217
vn 0.1804 0.9070 -0.3805
vn -0.0000 0.5598 0.8286
vn 0.3539 0.8544 -0.3805
vn 0.2142 0.5172 0.8286
vn 0.3189 0.7699 -0.5528
vn 0.2718 0.6561 0.7041
vn 0.2718 0.6561 -0.7041
vn 0.3189 0.7699 0.5528
vn 0.2142 0.5172 -0.8286
vn 0.3539 0.8544 0.3805
vn 0.1484 0.3584 -0.9217
vn 0.3754 0.9063 0.1939
vn 0.0769 0.1857 -0.9796
vn 0.3827 0.9239 -0.0000
vn 0.0769 0.1857 0.9796
vn 0.3754 0.9063 -0.1939
vn 0.1484 0.3584 0.9217
vn 0.2155 0.3225 -0.9217
vn 0.5450 0.8157 0.1939
vn 0.1117 0.1671 -0.9796
vn 0.5556 0.8315 -0.0000
vn 0.1117 0.1671 0.9796
vn 0.5450 0.8157 -0.1939
vn 0.2155 0.3225 0.9217
vn 0.5138 0.7689 -0.3805
vn 0.3110 0.4654 0.8286
vn 0.4630 0.6929 -0.5528
vn 0.3945 0.5905 0.7041
vn 0.3945 0.5905 -0.7041
vn 0.4630 0.6929 0.5528
vn 0.3110 0.4654 -0.8286
vn 0.5138 0.7689 0.3805
vn 0.3958 0.3958 0.8286
vn 0.6539 0.6539 -0.3805
vn 0.5893 0.5893 -0.5528
vn 0.5021 0.5021 0.7041
vn 0.5021 0.5021 -0.7041
vn 0.5893 0.5893 0.5528
vn 0.3958 0.3958 -0.8286
vn 0.6539 0.6539 0.3805
vn 0.2743 0.2743 -0.9217
vn 0.6937 0.6937 0.1939
vn 0.1421 0.1421 -0.9796
vn 0.7071 0.7071 -0.0000
vn 0.1421 0.1421 0.9796
vn 0.6937 0.6937 -0.1939
vn 0.2743 0.2743 0.9217
vn 0.8157 0.5450 0.1939
vn 0.3225 0.2155 -0.9217
vn 0.1671 0.1117 -0.9796
vn 0.8315 0.5556 -0.0000
vn 0.1671 0.1117 0.9796
vn 0.8157 0.5450 -0.1939
vn 0.3225 0.2155 0.9217
vn 0.7689 0.5138 -0.3805
vn 0.4654 0.3110 0.8286
vn 0.6929 0.4630 -0.5528
vn 0.5905 0.3945 0.7041
vn 0.5905 0.3945 -0.7041
vn 0.6929 0.4630 0.5528
vn 0.4654 0.3110 -0.8286
vn 0.7689 0.5138 0.3805
vn 0.8544 0.3539 -0.3805
vn 0.7699 0.3189 -0.5528
vn 0.6561 0.2718 0.7041
vn 0.6561 0.2718 -0.7041
vn 0.7699 0.3189 0.5528
vn 0.5172 0.2142 -0.8286
vn 0.8544 0.3539 0.3805
vn 0.3584 0.1484 -0.9217
vn 0.9063 0.3754 0.1939
vn 0.1857 0.0769 -0.9796
vn 0.9239 0.3827 -0.0000
vn 0.1857 0.0769 0.9796
vn 0.9063 0.3754 -0.1939
vn 0.3584 0.1484 0.9217
vn 0.5172 0.2142 0.8286
vn 0.1971 0.0392 -0.9796
vn 0.9622 0.1914 0.1939
vn 0.9808 0.1951 -0.0000
vn 0.1971 0.0392 0.9796
vn 0.9622 0.1914 -0.1939
vn 0.3804 0.0757 0.9217
vn 0.9070 0.1804 -0.3805
vn 0.5490 0.1092 0.8286
vn 0.8173 0.1626 -0.5528
vn 0.6965 0.1385 0.7041
vn 0.6965 0.1385 -0.7041
vn 0.8173 0.1626 0.5528
vn 0.5490 0.1092 -0.8286
vn 0.9070 0.1804 0.3805
vn 0.3804 0.0757 -0.9217
vn 0.7101 -0.0000 -0.7041
vn 0.7101 -0.0000 0.7041
vn 0.8333 -0.0000 0.5528
vn 0.5598 -0.0000 -0.8286
vn 0.9248 -0.0000 0.3805
vn 0.3879 -0.0000 -0.9217
vn 0.9810 -0.0000 0.1939
vn 0.2010 -0.0000 -0.9796
vn 1.0000 -0.0000 -0.0000
vn 0.2010 -0.0000 0.9796
vn 0.9810 -0.0000 -0.1939
vn 0.3879 -0.0000 0.9217
vn 0.9248 -0.0000 -0.3805
vn 0.5598 -0.0000 0.8286
vn 0.8333 -0.0000 -0.5528
vn 0.1971 -0.0392 0.9796
vn 0.1971 -0.0392 -0.9796
vn 0.9622 -0.1914 -0.1939
vn 0.3804 -0.0757 0.9217
vn 0.9070 -0.1804 -0.3805
vn 0.5490 -0.1092 0.8286
vn 0.8173 -0.1626 -0.5528
vn 0.6965 -0.1385 0.7041
vn 0.6965 -0.1385 -0.7041
vn 0.8173 -0.1626 0.5528
vn 0.5490 -0.1092 -0.8286
vn 0.9070 -0.1804 0.3805
vn 0.3804 -0.0757 -0.9217
vn 0.9622 -0.1914 0.1939
vn 0.9808 -0.1951 -0.0000
vn 0.6561 -0.2718 0.7041
vn 0.7699 -0.3189 0.5528
vn 0.6561 -0.2718 -0.7041
vn 0.5172 -0.2142 -0.8286
vn 0.8544 -0.3539 0.3805
vn 0.3584 -0.1484 -0.9217
vn 0.9063 -0.3754 0.1939
vn 0.1857 -0.0769 -0.9796
vn 0.9239 -0.3827 -0.0000
vn 0.1857 -0.0769 0.9796
vn 0.9063 -0.3754 -0.1939
vn 0.3584 -0.1484 0.9217
vn 0.8544 -0.3539 -0.3805
vn 0.5172 -0.2142 0.8286
vn 0.7699 -0.3189 -0.5528
vn 0.8315 -0.5556 -0.0000
vn 0.8157 -0.5450 -0.1939
vn 0.3225 -0.2155 0.9217
vn 0.7689 -0.5138 -0.3805
vn 0.4654 -0.3110 0.8286
vn 0.6929 -0.4630 -0.5528
vn 0.5905 -0.3945 0.7041
vn 0.5905 -0.3945 -0.7041
vn 0.6929 -0.4630 0.5528
vn 0.4654 -0.3110 -0.8286
vn 0.7689 -0.5138 0.3805
vn 0.3225 -0.2155 -0.9217
vn 0.8157 -0.5450 0.1939
vn 0.1671 -0.1117 -0.9796
vn 0.1671 -0.1117 0.9796
vn 0.3958 -0.3958 -0.8286
vn 0.6539 -0.6539 0.3805
vn 0.2743 -0.2743 -0.9217
vn 0.6937 -0.6937 0.1939
vn 0.1421 -0.1421 -0.9796
vn 0.7071 -0.7071 -0.0000
vn 0.1421 -0.1421 0.9796
vn 0.6937 -0.6937 -0.1939
vn 0.2743 -0.2743 0.9217
vn 0.6539 -0.6539 -0.3805
vn 0.3958 -0.3958 0.8286
vn 0.5893 -0.5893 -0.5528
vn 0.5021 -0.5021 0.7041
vn 0.5021 -0.5021 -0.7041
vn 0.5893 -0.5893 0.5528
vn 0.1117 -0.1671 0.9796
vn 0.2155 -0.3225 0.9217
vn 0.5138 -0.7689 -0.3805
vn 0.3110 -0.4654 0.8286
vn 0.4630 -0.6929 -0.5528
vn 0.3945 -0.5905 0.7041
vn 0.3945 -0.5905 -0.7041
vn 0.4630 -0.6929 0.5528
vn 0.3110 -0.4654 -0.8286
vn 0.5138 -0.7689 0.3805
vn 0.2155 -0.3225 -0.9217
vn 0.5450 -0.8157 0.1939
vn 0.1117 -0.1671 -0.9796
vn 0.5556 -0.8315 -0.0000
vn 0.5450 -0.8157 -0.1939
vn 0.3539 -0.8544 0.3805
vn 0.2142 -0.5172 -0.8286
vn 0.1484 -0.3584 -0.9217
vn 0.3754 -0.9063 0.1939
vn 0.0769 -0.1857 -0.9796
vn 0.3827 -0.9239 -0.0000
vn 0.0769 -0.1857 0.9796
vn 0.3754 -0.9063 -0.1939
vn 0.1484 -0.3584 0.9217
vn 0.3539 -0.8544 -0.3805
vn 0.2142 -0.5172 0.8286
vn 0.3189 -0.7699 -0.5528
vn 0.2718 -0.6561 0.7041
vn 0.2718 -0.6561 -0.7041
vn 0.3189 -0.7699 0.5528
vn 0.1804 -0.9070 -0.3805
vn 0.1092 -0.5490 0.8286
vn 0.1626 -0.8173 -0.5528
vn 0.1385 -0.6965 0.7041
vn 0.1385 -0.6965 -0.7041
vn 0.1626 -0.8173 0.5528
vn 0.1092 -0.5490 -0.8286
vn 0.1804 -0.9070 0.3805
vn 0.0757 -0.3804 -0.9217
vn 0.1914 -0.9622 0.1939
vn 0.0392 -0.1971 -0.9796
vn 0.1951 -0.9808 -0.0000
vn 0.0392 -0.1971 0.9796
vn 0.1914 -0.9622 -0.1939
vn 0.0757 -0.3804 0.9217
vn -0.0000 -0.3879 -0.9217
vn -0.0000 -0.9248 0.3805
vn -0.0000 -0.9810 0.1939
vn -0.0000 -0.2010 -0.9796
vn -0.0000 -1.0000 -0.0000
vn -0.0000 -0.2010 0.9796
vn -0.0000 -0.9810 -0.1939
vn -0.0000 -0.3879 0.9217
vn -0.0000 -0.9248 -0.3805
vn -0.0000 -0.5598 0.8286
vn -0.0000 -0.8333 -0.5528
vn -0.0000 -0.7101 0.7041
vn -0.0000 -0.7101 -0.7041
vn -0.0000 -0.8333 0.5528
vn -0.0000 -0.5598 -0.8286
vn -0.1804 -0.9070 -0.3805
vn -0.1626 -0.8173 -0.5528
vn -0.1385 -0.6965 0.7041
vn -0.1385 -0.6965 -0.7041
vn -0.1626 -0.8173 0.5528
vn -0.1092 -0.5490 -0.8286
vn -0.1804 -0.9070 0.3805
vn -0.0757 -0.3804 -0.9217
vn -0.1914 -0.9622 0.1939
vn -0.0392 -0.1971 -0.9796
vn -0.1951 -0.9808 -0.0000
vn -0.0392 -0.1971 0.9796
vn -0.1914 -0.9622 -0.1939
vn -0.0757 -0.3804 0.9217
vn -0.1092 -0.5490 0.8286
vn -0.0769 -0.1857 -0.9796
vn -0.3754 -0.9063 0.1939
vn -0.3827 -0.9239 -0.0000
vn -0.0769 -0.1857 0.9796
vn -0.3754 -0.9063 -0.1939
vn -0.1484 -0.3584 0.9217
vn -0.3539 -0.8544 -0.3805
vn -0.2142 -0.5172 0.8286
vn -0.3189 -0.7699 -0.5528
vn -0.2718 -0.6561 0.7041
vn -0.2718 -0.6561 -0.7041
vn -0.3189 -0.7699 0.5528
vn -0.2142 -0.5172 -0.8286
vn -0.3539 -0.8544 0.3805
vn -0.1484 -0.3584 -0.9217
vn -0.3945 -0.5905 0.7041
vn -0.3945 -0.5905 -0.7041
vn -0.4630 -0.6929 0.5528
vn -0.3110 -0.4654 -0.8286
vn -0.5138 -0.7689 0.3805
vn -0.2155 -0.3225 -0.9217
vn -0.5450 -0.8157 0.1939
vn -0.1117 -0.1671 -0.9796
vn -0.5556 -0.8315 -0.0000
vn -0.1117 -0.1671 0.9796
vn -0.5450 -0.8157 -0.1939
vn -0.2155 -0.3225 0.9217
vn -0.5138 -0.7689 -0.3805
vn -0.3110 -0.4654 0.8286
vn -0.4630 -0.6929 -0.5528
vn -0.6937 -0.6937 0.1939
vn -0.7071 -0.7071 -0.0000
vn -0.1421 -0.1421 0.9796
vn -0.1421 -0.1421 -0.9796
vn -0.6937 -0.6937 -0.1939
vn -0.2743 -0.2743 0.9217
vn -0.6539 -0.6539 -0.3805
vn -0.3958 -0.3958 0.8286
vn -0.5893 -0.5893 -0.5528
vn -0.5021 -0.5021 0.7041
vn -0.5021 -0.5021 -0.7041
vn -0.5893 -0.5893 0.5528
vn -0.3958 -0.3958 -0.8286
vn -0.6539 -0.6539 0.3805
vn -0.2743 -0.2743 -0.9217
vn -0.5905 -0.3945 -0.7041
vn -0.5905 -0.3945 0.7041
vn -0.6929 -0.4630 0.5528
vn -0.4654 -0.3110 -0.8286
vn -0.7689 -0.5138 0.3805
vn -0.3225 -0.2155 -0.9217
vn -0.8157 -0.5450 0.1939
vn -0.1671 -0.1117 -0.9796
vn -0.8315 -0.5556 -0.0000
vn -0.1671 -0.1117 0.9796
vn -0.8157 -0.5450 -0.1939
vn -0.3225 -0.2155 0.9217
vn -0.7689 -0.5138 -0.3805
vn -0.4654 -0.3110 0.8286
vn -0.6929 -0.4630 -0.5528
vn -0.1857 -0.0769 0.9796
vn -0.1857 -0.0769 -0.9796
vn -0.9063 -0.3754 -0.1939
vn -0.3584 -0.1484 0.9217
vn -0.8544 -0.3539 -0.3805
vn -0.5172 -0.2142 0.8286
vn -0.7699 -0.3189 -0.5528
vn -0.6561 -0.2718 0.7041
vn -0.6561 -0.2718 -0.7041
vn -0.7699 -0.3189 0.5528
vn -0.5172 -0.2142 -0.8286
vn -0.8544 -0.3539 0.3805
vn -0.3584 -0.1484 -0.9217
vn -0.9063 -0.3754 0.1939
vn -0.9239 -0.3827 -0.0000
vn -0.6965 -0.1385 0.7041
vn -0.8173 -0.1626 0.5528
vn -0.6965 -0.1385 -0.7041
vn -0.5490 -0.1092 -0.8286
vn -0.9070 -0.1804 0.3805
vn -0.3804 -0.0757 -0.9217
vn -0.9622 -0.1914 0.1939
vn -0.1971 -0.0392 -0.9796
vn -0.9808 -0.1951 -0.0000
vn -0.1971 -0.0392 0.9796
vn -0.9622 -0.1914 -0.1939
vn -0.3804 -0.0757 0.9217
vn -0.9070 -0.1804 -0.3805
vn -0.5490 -0.1092 0.8286
vn -0.8173 -0.1626 -0.5528
vn -0.9810 -0.0000 -0.1939
vn -0.3879 -0.0000 0.9217
vn -0.9248 -0.0000 -0.3805
vn -0.5598 -0.0000 0.8286
vn -0.8333 -0.0000 -0.5528
vn -0.7101 -0.0000 0.7041
vn -0.7101 -0.0000 -0.7041
vn -0.8333 -0.0000 0.5528
vn -0.5598 -0.0000 -0.8286
vn -0.9248 -0.0000 0.3805
vn -0.3879 -0.0000 -0.9217
vn -0.9810 -0.0000 0.1939
vn -0.2010 -0.0000 -0.9796
vn -1.0000 -0.0000 -0.0000
vn -0.2010 -0.0000 0.9796
vn -0.6965 0.1385 -0.7041
vn -0.5490 0.1092 -0.8286
vn -0.9070 0.1804 0.3805
vn -0.3804 0.0757 -0.9217
vn -0.9622 0.1914 0.1939
vn -0.1971 0.0392 -0.9796
vn -0.9808 0.1951 -0.0000
vn -0.1971 0.0392 0.9796
vn -0.9622 0.1914 -0.1939
vn -0.3804 0.0757 0.9217
vn -0.9070 0.1804 -0.3805
vn -0.5490 0.1092 0.8286
vn -0.8173 0.1626 -0.5528
vn -0.6965 0.1385 0.7041
vn -0.8173 0.1626 0.5528
vn -0.8544 0.3539 -0.3805
vn -0.5172 0.2142 0.8286
vn -0.7699 0.3189 -0.5528
vn -0.6561 0.2718 0.7041
vn -0.6561 0.2718 -0.7041
vn -0.7699 0.3189 0.5528
vn -0.5172 0.2142 -0.8286
vn -0.8544 0.3539 0.3805
vn -0.3584 0.1484 -0.9217
vn -0.9063 0.3754 0.1939
vn -0.1857 0.0769 -0.9796
vn -0.9239 0.3827 -0.0000
vn -0.1857 0.0769 0.9796
vn -0.9063 0.3754 -0.1939
vn -0.3584 0.1484 0.9217
vn -0.4654 0.3110 -0.8286
vn -0.3225 0.2155 -0.9217
vn -0.7689 0.5138 0.3805
vn -0.8157 0.5450 0.1939
vn -0.1671 0.1117 -0.9796
vn -0.8315 0.5556 -0.0000
vn -0.1671 0.1117 0.9796
vn -0.8157 0.5450 -0.1939
vn -0.3225 0.2155 0.9217
vn -0.7689 0.5138 -0.3805
vn -0.4654 0.3110 0.8286
vn -0.6929 0.4630 -0.5528
vn -0.5905 0.3945 0.7041
vn -0.5905 0.3945 -0.7041
vn -0.6929 0.4630 0.5528
vn -0.2743 0.2743 0.9217
vn -0.3958 0.3958 0.8286
vn -0.6539 0.6539 -0.3805
vn -0.5893 0.5893 -0.5528
vn -0.5021 0.5021 0.7041
vn -0.5021 0.5021 -0.7041
vn -0.5893 0.5893 0.5528
vn -0.3958 0.3958 -0.8286
vn -0.6539 0.6539 0.3805
vn -0.2743 0.2743 -0.9217
vn -0.6937 0.6937 0.1939
vn -0.1421 0.1421 -0.9796
vn -0.7071 0.7071 -0.0000
vn -0.1421 0.1421 0.9796
vn -0.6937 0.6937 -0.1939
vn -0.5138 0.7689 0.3805
vn -0.5450 0.8157 0.1939
vn -0.2155 0.3225 -0.9217
vn -0.1117 0.1671 -0.9796
vn -0.5556 0.8315 -0.0000
vn -0.1117 0.1671 0.9796
vn -0.5450 0.8157 -0.1939
vn -0.2155 0.3225 0.9217
vn -0.5138 0.7689 -0.3805
vn -0.3110 0.4654 0.8286
vn -0.4630 0.6929 -0.5528
vn -0.3945 0.5905 0.7041
vn -0.3945 0.5905 -0.7041
vn -0.4630 0.6929 0.5528
vn -0.3110 0.4654 -0.8286
vn -0.3539 0.8544 -0.3805
vn -0.3189 0.7699 -0.5528
vn -0.2718 0.6561 0.7041
vn -0.2718 0.6561 -0.7041
vn -0.3189 0.7699 0.5528
vn -0.2142 0.5172 -0.8286
vn -0.3539 0.8544 0.3805
vn -0.1484 0.3584 -0.9217
vn -0.3754 0.9063 0.1939
vn -0.0769 0.1857 -0.9796
vn -0.3827 0.9239 -0.0000
vn -0.0769 0.1857 0.9796
vn -0.3754 0.9063 -0.1939
vn -0.1484 0.3584 0.9217
vn -0.2142 0.5172 0.8286
vn -0.0392 0.1971 -0.9796
vn -0.1914 0.9622 0.1939
vn -0.1951 0.9808 -0.0000
vn -0.0392 0.1971 0.9796
vn -0.1914 0.9622 -0.1939
vn -0.0757 0.3804 0.9217
vn -0.1804 0.9070 -0.3805
vn -0.1092 0.5490 0.8286
vn -0.1626 0.8173 -0.5528
vn -0.1385 0.6965 0.7041
vn -0.1385 0.6965 -0.7041
vn -0.1626 0.8173 0.5528
vn -0.1092 0.5490 -0.8286
vn -0.1804 0.9070 0.3805
vn -0.0757 0.3804 -0.9217
vt 0.750000 0.375000
vt 0.718750 0.312500
vt 0.750000 0.312500
vt 0.750000 0.750000
vt 0.718750 0.812500
vt 0.718750 0.750000
vt 0.750000 0.250000
vt 0.718750 0.250000
vt 0.718750 0.687500
vt 0.750000 0.687500
vt 0.718750 0.187500
vt 0.750000 0.187500
vt 0.750000 0.625000
vt 0.718750 0.625000
vt 0.718750 0.125000
vt 0.750000 0.125000
vt 0.718750 0.562500
vt 0.750000 0.562500
vt 0.718750 0.062500
vt 0.750000 0.062500
vt 0.718750 0.500000
vt 0.750000 0.500000
vt 0.750000 0.937500
vt 0.734375 1.000000
vt 0.718750 0.937500
vt 0.734375 0.000000
vt 0.718750 0.437500
vt 0.750000 0.437500
vt 0.750000 0.875000
vt 0.718750 0.875000
vt 0.718750 0.375000
vt 0.750000 0.812500
vt 0.687500 0.375000
vt 0.687500 0.812500
vt 0.687500 0.312500
vt 0.687500 0.750000
vt 0.687500 0.250000
vt 0.687500 0.687500
vt 0.687500 0.187500
vt 0.687500 0.625000
vt 0.687500 0.125000
vt 0.687500 0.562500
vt 0.687500 0.062500
vt 0.687500 0.500000
vt 0.703125 1.000000
vt 0.687500 0.937500
vt 0.703125 0.000000
vt 0.687500 0.437500
vt 0.687500 0.875000
vt 0.656250 0.125000
vt 0.656250 0.562500
vt 0.656250 0.062500
vt 0.656250 0.500000
vt 0.671875 1.000000
vt 0.656250 0.937500
vt 0.671875 0.000000
vt 0.656250 0.437500
vt 0.656250 0.875000
vt 0.656250 0.375000
vt 0.656250 0.812500
vt 0.656250 0.312500
vt 0.656250 0.750000
vt 0.656250 0.250000
vt 0.656250 0.687500
vt 0.656250 0.187500
vt 0.656250 0.625000
vt 0.625000 0.812500
vt 0.625000 0.375000
vt 0.625000 0.312500
vt 0.625000 0.750000
vt 0.625000 0.250000
vt 0.625000 0.687500
vt 0.625000 0.187500
vt 0.625000 0.625000
vt 0.625000 0.125000
vt 0.625000 0.562500
vt 0.625000 0.062500
vt 0.625000 0.500000
vt 0.640625 1.000000
vt 0.625000 0.937500
vt 0.640625 0.000000
vt 0.625000 0.437500
vt 0.625000 0.875000
vt 0.593750 0.562500
vt 0.593750 0.125000
vt 0.593750 0.062500
vt 0.593750 0.500000
vt 0.609375 1.000000
vt 0.593750 0.937500
vt 0.609375 0.000000
vt 0.593750 0.437500
vt 0.593750 0.875000
vt 0.593750 0.375000
vt 0.593750 0.812500
vt 0.593750 0.312500
vt 0.593750 0.750000
vt 0.593750 0.250000
vt 0.593750 0.687500
vt 0.593750 0.187500
vt 0.593750 0.625000
vt 0.562500 0.375000
vt 0.562500 0.312500
vt 0.562500 0.750000
vt 0.562500 0.250000
vt 0.562500 0.687500
vt 0.562500 0.187500
vt 0.562500 0.625000
vt 0.562500 0.125000
vt 0.562500 0.562500
vt 0.562500 0.062500
vt 0.562500 0.500000
vt 0.578125 1.000000
vt 0.562500 0.937500
vt 0.578125 0.000000
vt 0.562500 0.437500
vt 0.562500 0.875000
vt 0.562500 0.812500
vt 0.531250 0.062500
vt 0.531250 0.562500
vt 0.531250 0.500000
vt 0.546875 1.000000
vt 0.531250 0.937500
vt 0.546875 0.000000
vt 0.531250 0.437500
vt 0.531250 0.875000
vt 0.531250 0.375000
vt 0.531250 0.812500
vt 0.531250 0.312500
vt 0.531250 0.750000
vt 0.531250 0.250000
vt 0.531250 0.687500
vt 0.531250 0.187500
vt 0.531250 0.625000
vt 0.531250 0.125000
vt 0.500000 0.250000
vt 0.500000 0.750000
vt 0.500000 0.687500
vt 0.500000 0.187500
vt 0.500000 0.625000
vt 0.500000 0.125000
vt 0.500000 0.562500
vt 0.500000 0.062500
vt 0.500000 0.500000
vt 0.515625 1.000000
vt 0.500000 0.937500
vt 0.515625 0.000000
vt 0.500000 0.437500
vt 0.500000 0.875000
vt 0.500000 0.375000
vt 0.500000 0.812500
vt 0.500000 0.312500
vt 0.484375 1.000000
vt 0.468750 0.937500
vt 0.484375 0.000000
vt 0.468750 0.062500
vt 0.468750 0.437500
vt 0.468750 0.875000
vt 0.468750 0.375000
vt 0.468750 0.812500
vt 0.468750 0.312500
vt 0.468750 0.750000
vt 0.468750 0.250000
vt 0.468750 0.687500
vt 0.468750 0.187500
vt 0.468750 0.625000
vt 0.468750 0.125000
vt 0.468750 0.562500
vt 0.468750 0.500000
vt 0.437500 0.750000
vt 0.437500 0.687500
vt 0.437500 0.250000
vt 0.437500 0.187500
vt 0.437500 0.625000
vt 0.437500 0.125000
vt 0.437500 0.562500
vt 0.437500 0.062500
vt 0.437500 0.500000
vt 0.453125 1.000000
vt 0.437500 0.937500
vt 0.453125 0.000000
vt 0.437500 0.437500
vt 0.437500 0.875000
vt 0.437500 0.375000
vt 0.437500 0.812500
vt 0.437500 0.312500
vt 0.406250 0.500000
vt 0.406250 0.437500
vt 0.406250 0.875000
vt 0.406250 0.375000
vt 0.406250 0.812500
vt 0.406250 0.312500
vt 0.406250 0.750000
vt 0.406250 0.250000
vt 0.406250 0.687500
vt 0.406250 0.187500
vt 0.406250 0.625000
vt 0.406250 0.125000
vt 0.406250 0.562500
vt 0.406250 0.062500
vt 0.421875 1.000000
vt 0.406250 0.937500
vt 0.421875 0.000000
vt 0.375000 0.187500
vt 0.375000 0.625000
vt 0.375000 0.125000
vt 0.375000 0.562500
vt 0.375000 0.062500
vt 0.375000 0.500000
vt 0.390625 1.000000
vt 0.375000 0.937500
vt 0.390625 0.000000
vt 0.375000 0.437500
vt 0.375000 0.875000
vt 0.375000 0.375000
vt 0.375000 0.812500
vt 0.375000 0.312500
vt 0.375000 0.750000
vt 0.375000 0.250000
vt 0.375000 0.687500
vt 0.343750 0.937500
vt 0.343750 0.875000
vt 0.343750 0.375000
vt 0.343750 0.812500
vt 0.343750 0.312500
vt 0.343750 0.750000
vt 0.343750 0.250000
vt 0.343750 0.687500
vt 0.343750 0.187500
vt 0.343750 0.625000
vt 0.343750 0.125000
vt 0.343750 0.562500
vt 0.343750 0.062500
vt 0.343750 0.500000
vt 0.359375 1.000000
vt 0.359375 0.000000
vt 0.343750 0.437500
vt 0.312500 0.625000
vt 0.312500 0.187500
vt 0.312500 0.125000
vt 0.312500 0.562500
vt 0.312500 0.062500
vt 0.312500 0.500000
vt 0.328125 1.000000
vt 0.312500 0.937500
vt 0.328125 0.000000
vt 0.312500 0.437500
vt 0.312500 0.875000
vt 0.312500 0.375000
vt 0.312500 0.812500
vt 0.312500 0.312500
vt 0.312500 0.750000
vt 0.312500 0.250000
vt 0.312500 0.687500
vt 0.281250 0.375000
vt 0.281250 0.812500
vt 0.281250 0.312500
vt 0.281250 0.750000
vt 0.281250 0.250000
vt 0.281250 0.687500
vt 0.281250 0.187500
vt 0.281250 0.625000
vt 0.281250 0.125000
vt 0.281250 0.562500
vt 0.281250 0.062500
vt 0.281250 0.500000
vt 0.296875 1.000000
vt 0.281250 0.937500
vt 0.296875 0.000000
vt 0.281250 0.437500
vt 0.281250 0.875000
vt 0.250000 0.125000
vt 0.250000 0.625000
vt 0.250000 0.562500
vt 0.250000 0.062500
vt 0.250000 0.500000
vt 0.265625 1.000000
vt 0.250000 0.937500
vt 0.265625 0.000000
vt 0.250000 0.437500
vt 0.250000 0.875000
vt 0.250000 0.375000
vt 0.250000 0.812500
vt 0.250000 0.312500
vt 0.250000 0.750000
vt 0.250000 0.250000
vt 0.250000 0.687500
vt 0.250000 0.187500
vt 0.218750 0.375000
vt 0.218750 0.312500
vt 0.218750 0.750000
vt 0.218750 0.250000
vt 0.218750 0.687500
vt 0.218750 0.187500
vt 0.218750 0.625000
vt 0.218750 0.125000
vt 0.218750 0.562500
vt 0.218750 0.062500
vt 0.218750 0.500000
vt 0.234375 1.000000
vt 0.218750 0.937500
vt 0.234375 0.000000
vt 0.218750 0.437500
vt 0.218750 0.875000
vt 0.218750 0.812500
vt 0.187500 0.062500
vt 0.187500 0.562500
vt 0.187500 0.500000
vt 0.203125 1.000000
vt 0.187500 0.937500
vt 0.203125 0.000000
vt 0.187500 0.437500
vt 0.187500 0.875000
vt 0.187500 0.375000
vt 0.187500 0.812500
vt 0.187500 0.312500
vt 0.187500 0.750000
vt 0.187500 0.250000
vt 0.187500 0.687500
vt 0.187500 0.187500
vt 0.187500 0.625000
vt 0.187500 0.125000
vt 0.156250 0.750000
vt 0.156250 0.250000
vt 0.156250 0.687500
vt 0.156250 0.187500
vt 0.156250 0.625000
vt 0.156250 0.125000
vt 0.156250 0.562500
vt 0.156250 0.062500
vt 0.156250 0.500000
vt 0.171875 1.000000
vt 0.156250 0.937500
vt 0.171875 0.000000
vt 0.156250 0.437500
vt 0.156250 0.875000
vt 0.156250 0.375000
vt 0.156250 0.812500
vt 0.156250 0.312500
vt 0.125000 0.562500
vt 0.125000 0.500000
vt 0.140625 1.000000
vt 0.125000 0.937500
vt 0.140625 0.000000
vt 0.125000 0.062500
vt 0.125000 0.437500
vt 0.125000 0.875000
vt 0.125000 0.375000
vt 0.125000 0.812500
vt 0.125000 0.312500
vt 0.125000 0.750000
vt 0.125000 0.250000
vt 0.125000 0.687500
vt 0.125000 0.187500
vt 0.125000 0.625000
vt 0.125000 0.125000
vt 0.093750 0.250000
vt 0.093750 0.750000
vt 0.093750 0.687500
vt 0.093750 0.187500
vt 0.093750 0.625000
vt 0.093750 0.125000
vt 0.093750 0.562500
vt 0.093750 0.062500
vt 0.093750 0.500000
vt 0.109375 1.000000
vt 0.093750 0.937500
vt 0.109375 0.000000
vt 0.093750 0.437500
vt 0.093750 0.875000
vt 0.093750 0.375000
vt 0.093750 0.812500
vt 0.093750 0.312500
vt 0.078125 1.000000
vt 0.062500 0.937500
vt 0.078125 0.000000
vt 0.062500 0.062500
vt 0.062500 0.437500
vt 0.062500 0.875000
vt 0.062500 0.375000
vt 0.062500 0.812500
vt 0.062500 0.312500
vt 0.062500 0.750000
vt 0.062500 0.250000
vt 0.062500 0.687500
vt 0.062500 0.187500
vt 0.062500 0.625000
vt 0.062500 0.125000
vt 0.062500 0.562500
vt 0.062500 0.500000
vt 0.031250 0.750000
vt 0.031250 0.687500
vt 0.031250 0.250000
vt 0.031250 0.187500
vt 0.031250 0.625000
vt 0.031250 0.125000
vt 0.031250 0.562500
vt 0.031250 0.062500
vt 0.031250 0.500000
vt 0.046875 1.000000
vt 0.031250 0.937500
vt 0.046875 0.000000
vt 0.031250 0.437500
vt 0.031250 0.875000
vt 0.031250 0.375000
vt 0.031250 0.812500
vt 0.031250 0.312500
vt 0.000000 0.437500
vt 0.000000 0.875000
vt 0.000000 0.375000
vt 0.000000 0.812500
vt 0.000000 0.312500
vt 0.000000 0.750000
vt 0.000000 0.250000
vt 0.000000 0.687500
vt 0.000000 0.187500
vt 0.000000 0.625000
vt 0.000000 0.125000
vt 0.000000 0.562500
vt 0.000000 0.062500
vt 0.000000 0.500000
vt 0.015625 1.000000
vt 0.000000 0.937500
vt 0.015625 0.000000
vt 1.000000 0.187500
vt 0.968750 0.250000
vt 0.968750 0.187500
vt 1.000000 0.687500
vt 0.968750 0.625000
vt 1.000000 0.625000
vt 0.968750 0.125000
vt 1.000000 0.125000
vt 1.000000 0.562500
vt 0.968750 0.562500
vt 1.000000 0.062500
vt 0.968750 0.062500
vt 1.000000 0.500000
vt 0.968750 0.500000
vt 1.000000 0.937500
vt 0.984375 1.000000
vt 0.968750 0.937500
vt 0.984375 0.000000
vt 0.968750 0.437500
vt 1.000000 0.437500
vt 0.968750 0.875000
vt 1.000000 0.875000
vt 0.968750 0.375000
vt 1.000000 0.375000
vt 0.968750 0.812500
vt 1.000000 0.812500
vt 1.000000 0.312500
vt 0.968750 0.312500
vt 0.968750 0.750000
vt 1.000000 0.750000
vt 1.000000 0.250000
vt 0.968750 0.687500
vt 0.937500 0.375000
vt 0.937500 0.812500
vt 0.937500 0.312500
vt 0.937500 0.750000
vt 0.937500 0.250000
vt 0.937500 0.687500
vt 0.937500 0.187500
vt 0.937500 0.625000
vt 0.937500 0.125000
vt 0.937500 0.562500
vt 0.937500 0.062500
vt 0.937500 0.500000
vt 0.953125 1.000000
vt 0.937500 0.937500
vt 0.953125 0.000000
vt 0.937500 0.437500
vt 0.937500 0.875000
vt 0.906250 0.187500
vt 0.906250 0.125000
vt 0.906250 0.625000
vt 0.906250 0.562500
vt 0.906250 0.062500
vt 0.906250 0.500000
vt 0.921875 1.000000
vt 0.906250 0.937500
vt 0.921875 0.000000
vt 0.906250 0.437500
vt 0.906250 0.875000
vt 0.906250 0.375000
vt 0.906250 0.812500
vt 0.906250 0.312500
vt 0.906250 0.750000
vt 0.906250 0.250000
vt 0.906250 0.687500
vt 0.875000 0.875000
vt 0.875000 0.812500
vt 0.875000 0.375000
vt 0.875000 0.312500
vt 0.875000 0.750000
vt 0.875000 0.250000
vt 0.875000 0.687500
vt 0.875000 0.187500
vt 0.875000 0.625000
vt 0.875000 0.125000
vt 0.875000 0.562500
vt 0.875000 0.062500
vt 0.875000 0.500000
vt 0.890625 1.000000
vt 0.875000 0.937500
vt 0.890625 0.000000
vt 0.875000 0.437500
vt 0.843750 0.625000
vt 0.843750 0.562500
vt 0.843750 0.125000
vt 0.843750 0.062500
vt 0.843750 0.500000
vt 0.859375 1.000000
vt 0.843750 0.937500
vt 0.859375 0.000000
vt 0.843750 0.437500
vt 0.843750 0.875000
vt 0.843750 0.375000
vt 0.843750 0.812500
vt 0.843750 0.312500
vt 0.843750 0.750000
vt 0.843750 0.250000
vt 0.843750 0.687500
vt 0.843750 0.187500
vt 0.812500 0.375000
vt 0.812500 0.312500
vt 0.812500 0.750000
vt 0.812500 0.250000
vt 0.812500 0.687500
vt 0.812500 0.187500
vt 0.812500 0.625000
vt 0.812500 0.125000
vt 0.812500 0.562500
vt 0.812500 0.062500
vt 0.812500 0.500000
vt 0.828125 1.000000
vt 0.812500 0.937500
vt 0.828125 0.000000
vt 0.812500 0.437500
vt 0.812500 0.875000
vt 0.812500 0.812500
vt 0.781250 0.062500
vt 0.781250 0.562500
vt 0.781250 0.500000
vt 0.796875 1.000000
vt 0.781250 0.937500
vt 0.796875 0.000000
vt 0.781250 0.437500
vt 0.781250 0.875000
vt 0.781250 0.375000
vt 0.781250 0.812500
vt 0.781250 0.312500
vt 0.781250 0.750000
vt 0.781250 0.250000
vt 0.781250 0.687500
vt 0.781250 0.187500
vt 0.781250 0.625000
vt 0.781250 0.125000
vt 0.765625 1.000000
vt 0.765625 0.000000
s 1
usemtl マテリアル.001
f 478/1/1 17/2/2 6/3/3
f 476/4/4 9/5/5 10/6/6
f 479/7/7 17/2/2 18/8/8
f 476/4/4 11/9/9 2/10/10
f 479/7/7 19/11/11 480/12/12
f 477/13/13 11/9/9 12/14/14
f 480/12/12 20/15/15 481/16/16
f 477/13/13 13/17/17 3/18/18
f 481/16/16 21/19/19 482/20/20
f 3/18/18 14/21/21 4/22/22
f 474/23/23 82/24/24 7/25/25
f 308/26/26 482/20/20 21/19/19
f 4/22/22 15/27/27 5/28/28
f 475/29/29 7/25/25 8/30/30
f 5/28/28 16/31/31 478/1/1
f 1/32/32 8/30/30 9/5/5
f 15/27/27 31/33/33 16/31/31
f 8/30/30 24/34/34 9/5/5
f 17/2/2 31/33/33 32/35/35
f 9/5/5 25/36/36 10/6/6
f 18/8/8 32/35/35 33/37/37
f 10/6/6 26/38/38 11/9/9
f 19/11/11 33/37/37 34/39/39
f 11/9/9 27/40/40 12/14/14
f 20/15/15 34/39/39 35/41/41
f 12/14/14 28/42/42 13/17/17
f 20/15/15 36/43/43 21/19/19
f 13/17/17 29/44/44 14/21/21
f 7/25/25 82/45/24 22/46/45
f 308/47/26 21/19/19 36/43/43
f 14/21/21 30/48/46 15/27/27
f 7/25/25 23/49/47 8/30/30
f 34/39/39 50/50/48 35/41/41
f 27/40/40 43/51/49 28/42/42
f 35/41/41 51/52/50 36/43/43
f 29/44/44 43/51/49 44/53/51
f 22/46/45 82/54/24 37/55/52
f 308/56/26 36/43/43 51/52/50
f 29/44/44 45/57/53 30/48/46
f 23/49/47 37/55/52 38/58/54
f 30/48/46 46/59/55 31/33/33
f 23/49/47 39/60/56 24/34/34
f 32/35/35 46/59/55 47/61/57
f 24/34/34 40/62/58 25/36/36
f 32/35/35 48/63/59 33/37/37
f 25/36/36 41/64/60 26/38/38
f 33/37/37 49/65/61 34/39/39
f 26/38/38 42/66/62 27/40/40
f 38/58/54 54/67/63 39/60/56
f 47/61/57 61/68/64 62/69/65
f 39/60/56 55/70/66 40/62/58
f 47/61/57 63/71/67 48/63/59
f 40/62/58 56/72/68 41/64/60
f 49/65/61 63/71/67 64/73/69
f 41/64/60 57/74/70 42/66/62
f 50/50/48 64/73/69 65/75/71
f 43/51/49 57/74/70 58/76/72
f 50/50/48 66/77/73 51/52/50
f 44/53/51 58/76/72 59/78/74
f 37/55/52 82/79/24 52/80/75
f 308/81/26 51/52/50 66/77/73
f 44/53/51 60/82/76 45/57/53
f 37/55/52 53/83/77 38/58/54
f 45/57/53 61/68/64 46/59/55
f 57/74/70 73/84/78 58/76/72
f 66/77/73 80/85/79 81/86/80
f 59/78/74 73/84/78 74/87/81
f 52/80/75 82/88/24 67/89/82
f 308/90/26 66/77/73 81/86/80
f 59/78/74 75/91/83 60/82/76
f 52/80/75 68/92/84 53/83/77
f 60/82/76 76/93/85 61/68/64
f 54/67/63 68/92/84 69/94/86
f 62/69/65 76/93/85 77/95/87
f 54/67/63 70/96/88 55/70/66
f 62/69/65 78/97/89 63/71/67
f 55/70/66 71/98/90 56/72/68
f 64/73/69 78/97/89 79/99/91
f 56/72/68 72/100/92 57/74/70
f 64/73/69 80/85/79 65/75/71
f 77/95/87 92/101/93 93/102/94
f 69/94/86 86/103/95 70/96/88
f 77/95/87 94/104/96 78/97/89
f 71/98/90 86/103/95 87/105/97
f 79/99/91 94/104/96 95/106/98
f 71/98/90 88/107/99 72/100/92
f 80/85/79 95/106/98 96/108/100
f 73/84/78 88/107/99 89/109/101
f 80/85/79 97/110/102 81/86/80
f 74/87/81 89/109/101 90/111/103
f 67/89/82 82/112/24 83/113/104
f 308/114/26 81/86/80 97/110/102
f 74/87/81 91/115/105 75/91/83
f 68/92/84 83/113/104 84/116/106
f 75/91/83 92/101/93 76/93/85
f 68/92/84 85/117/107 69/94/86
f 96/108/100 112/118/108 97/110/102
f 90/111/103 104/119/109 105/120/110
f 83/113/104 82/121/24 98/122/111
f 308/123/26 97/110/102 112/118/108
f 90/111/103 106/124/112 91/115/105
f 83/113/104 99/125/113 84/116/106
f 91/115/105 107/126/114 92/101/93
f 85/117/107 99/125/113 100/127/115
f 93/102/94 107/126/114 108/128/116
f 86/103/95 100/127/115 101/129/117
f 93/102/94 109/130/118 94/104/96
f 87/105/97 101/129/117 102/131/119
f 95/106/98 109/130/118 110/132/120
f 87/105/97 103/133/121 88/107/99
f 95/106/98 111/134/122 96/108/100
f 89/109/101 103/133/121 104/119/109
f 108/128/116 124/135/123 109/130/118
f 102/131/119 116/136/124 117/137/125
f 110/132/120 124/135/123 125/138/126
f 102/131/119 118/139/127 103/133/121
f 111/134/122 125/138/126 126/140/128
f 104/119/109 118/139/127 119/141/129
f 111/134/122 127/142/130 112/118/108
f 105/120/110 119/141/129 120/143/131
f 98/122/111 82/144/24 113/145/132
f 308/146/26 112/118/108 127/142/130
f 105/120/110 121/147/133 106/124/112
f 98/122/111 114/148/134 99/125/113
f 106/124/112 122/149/135 107/126/114
f 99/125/113 115/150/136 100/127/115
f 108/128/116 122/149/135 123/151/137
f 100/127/115 116/136/124 101/129/117
f 113/145/132 82/152/24 128/153/138
f 308/154/26 127/142/130 142/155/139
f 120/143/131 136/156/140 121/147/133
f 113/145/132 129/157/141 114/148/134
f 121/147/133 137/158/142 122/149/135
f 115/150/136 129/157/141 130/159/143
f 123/151/137 137/158/142 138/160/144
f 115/150/136 131/161/145 116/136/124
f 123/151/137 139/162/146 124/135/123
f 117/137/125 131/161/145 132/163/147
f 124/135/123 140/164/148 125/138/126
f 117/137/125 133/165/149 118/139/127
f 126/140/128 140/164/148 141/166/150
f 119/141/129 133/165/149 134/167/151
f 127/142/130 141/166/150 142/155/139
f 120/143/131 134/167/151 135/168/152
f 132/163/147 146/169/153 147/170/154
f 140/164/148 154/171/155 155/172/156
f 132/163/147 148/173/157 133/165/149
f 140/164/148 156/174/158 141/166/150
f 134/167/151 148/173/157 149/175/159
f 141/166/150 157/176/160 142/155/139
f 135/168/152 149/175/159 150/177/161
f 128/153/138 82/178/24 143/179/162
f 308/180/26 142/155/139 157/176/160
f 135/168/152 151/181/163 136/156/140
f 128/153/138 144/182/164 129/157/141
f 136/156/140 152/183/165 137/158/142
f 129/157/141 145/184/166 130/159/143
f 138/160/144 152/183/165 153/185/167
f 130/159/143 146/169/153 131/161/145
f 138/160/144 154/171/155 139/162/146
f 151/181/163 165/186/168 166/187/169
f 143/179/162 159/188/170 144/182/164
f 151/181/163 167/189/171 152/183/165
f 145/184/166 159/188/170 160/190/172
f 153/185/167 167/189/171 168/191/173
f 145/184/166 161/192/174 146/169/153
f 153/185/167 169/193/175 154/171/155
f 147/170/154 161/192/174 162/194/176
f 154/171/155 170/195/177 155/172/156
f 147/170/154 163/196/178 148/173/157
f 155/172/156 171/197/179 156/174/158
f 149/175/159 163/196/178 164/198/180
f 156/174/158 172/199/181 157/176/160
f 149/175/159 165/186/168 150/177/161
f 143/179/162 82/200/24 158/201/182
f 308/202/26 157/176/160 172/199/181
f 169/193/175 185/203/183 170/195/177
f 162/194/176 178/204/184 163/196/178
f 170/195/177 186/205/185 171/197/179
f 164/198/180 178/204/184 179/206/186
f 172/199/181 186/205/185 187/207/187
f 165/186/168 179/206/186 180/208/188
f 158/201/182 82/209/24 173/210/189
f 308/211/26 172/199/181 187/207/187
f 165/186/168 181/212/190 166/187/169
f 158/201/182 174/213/191 159/188/170
f 166/187/169 182/214/192 167/189/171
f 159/188/170 175/215/193 160/190/172
f 168/191/173 182/214/192 183/216/194
f 160/190/172 176/217/195 161/192/174
f 168/191/173 184/218/196 169/193/175
f 162/194/176 176/217/195 177/219/197
f 174/213/191 188/220/198 189/221/199
f 181/212/190 197/222/200 182/214/192
f 175/215/193 189/221/199 190/223/201
f 182/214/192 198/224/202 183/216/194
f 175/215/193 191/225/203 176/217/195
f 183/216/194 199/226/204 184/218/196
f 177/219/197 191/225/203 192/227/205
f 184/218/196 200/228/206 185/203/183
f 177/219/197 193/229/207 178/204/184
f 185/203/183 201/230/208 186/205/185
f 179/206/186 193/229/207 194/231/209
f 186/205/185 202/232/210 187/207/187
f 180/208/188 194/231/209 195/233/211
f 173/210/189 82/234/24 188/220/198
f 308/235/26 187/207/187 202/232/210
f 180/208/188 196/236/212 181/212/190
f 192/227/205 208/237/213 193/229/207
f 201/230/208 215/238/214 216/239/215
f 194/231/209 208/237/213 209/240/216
f 202/232/210 216/239/215 217/241/217
f 195/233/211 209/240/216 210/242/218
f 188/220/198 82/243/24 203/244/219
f 308/245/26 202/232/210 217/241/217
f 195/233/211 211/246/220 196/236/212
f 189/221/199 203/244/219 204/247/221
f 196/236/212 212/248/222 197/222/200
f 190/223/201 204/247/221 205/249/223
f 198/224/202 212/248/222 213/250/224
f 190/223/201 206/251/225 191/225/203
f 198/224/202 214/252/226 199/226/204
f 192/227/205 206/251/225 207/253/227
f 200/228/206 214/252/226 215/238/214
f 211/246/220 227/254/228 212/248/222
f 204/247/221 220/255/229 205/249/223
f 213/250/224 227/254/228 228/256/230
f 205/249/223 221/257/231 206/251/225
f 213/250/224 229/258/232 214/252/226
f 207/253/227 221/257/231 222/259/233
f 214/252/226 230/260/234 215/238/214
f 207/253/227 223/261/235 208/237/213
f 215/238/214 231/262/236 216/239/215
f 209/240/216 223/261/235 224/263/237
f 216/239/215 232/264/238 217/241/217
f 210/242/218 224/263/237 225/265/239
f 203/244/219 82/266/24 218/267/240
f 308/268/26 217/241/217 232/264/238
f 210/242/218 226/269/241 211/246/220
f 203/244/219 219/270/242 204/247/221
f 230/260/234 246/271/243 231/262/236
f 224/263/237 238/272/244 239/273/245
f 232/264/238 246/271/243 247/274/246
f 225/265/239 239/273/245 240/275/247
f 218/267/240 82/276/24 233/277/248
f 308/278/26 232/264/238 247/274/246
f 225/265/239 241/279/249 226/269/241
f 219/270/242 233/277/248 234/280/250
f 226/269/241 242/281/251 227/254/228
f 220/255/229 234/280/250 235/282/252
f 228/256/230 242/281/251 243/283/253
f 220/255/229 236/284/254 221/257/231
f 228/256/230 244/285/255 229/258/232
f 222/259/233 236/284/254 237/286/256
f 230/260/234 244/285/255 245/287/257
f 222/259/233 238/272/244 223/261/235
f 243/283/253 257/288/258 258/289/259
f 235/282/252 251/290/260 236/284/254
f 243/283/253 259/291/261 244/285/255
f 237/286/256 251/290/260 252/292/262
f 244/285/255 260/293/263 245/287/257
f 237/286/256 253/294/264 238/272/244
f 246/271/243 260/293/263 261/295/265
f 239/273/245 253/294/264 254/296/266
f 246/271/243 262/297/267 247/274/246
f 240/275/247 254/296/266 255/298/268
f 233/277/248 82/299/24 248/300/269
f 308/301/26 247/274/246 262/297/267
f 240/275/247 256/302/270 241/279/249
f 234/280/250 248/300/269 249/303/271
f 241/279/249 257/288/258 242/281/251
f 235/282/252 249/303/271 250/304/272
f 261/295/265 277/305/273 262/297/267
f 255/298/268 269/306/274 270/307/275
f 248/300/269 82/308/24 263/309/276
f 308/310/26 262/297/267 277/305/273
f 255/298/268 271/311/277 256/302/270
f 249/303/271 263/309/276 264/312/278
f 256/302/270 272/313/279 257/288/258
f 249/303/271 265/314/280 250/304/272
f 258/289/259 272/313/279 273/315/281
f 250/304/272 266/316/282 251/290/260
f 258/289/259 274/317/283 259/291/261
f 251/290/260 267/318/284 252/292/262
f 260/293/263 274/317/283 275/319/285
f 252/292/262 268/320/286 253/294/264
f 260/293/263 276/321/287 261/295/265
f 254/296/266 268/320/286 269/306/274
f 265/314/280 281/322/288 266/316/282
f 273/315/281 289/323/289 274/317/283
f 267/318/284 281/322/288 282/324/290
f 275/319/285 289/323/289 290/325/291
f 267/318/284 283/326/292 268/320/286
f 276/321/287 290/325/291 291/327/293
f 269/306/274 283/326/292 284/328/294
f 277/305/273 291/327/293 292/329/295
f 270/307/275 284/328/294 285/330/296
f 263/309/276 82/331/24 278/332/297
f 308/333/26 277/305/273 292/329/295
f 270/307/275 286/334/298 271/311/277
f 264/312/278 278/332/297 279/335/299
f 271/311/277 287/336/300 272/313/279
f 264/312/278 280/337/301 265/314/280
f 273/315/281 287/336/300 288/338/302
f 285/330/296 299/339/303 300/340/304
f 278/332/297 82/341/24 293/342/305
f 308/343/26 292/329/295 307/344/306
f 285/330/296 301/345/307 286/334/298
f 279/335/299 293/342/305 294/346/308
f 286/334/298 302/347/309 287/336/300
f 280/337/301 294/346/308 295/348/310
f 288/338/302 302/347/309 303/349/311
f 280/337/301 296/350/312 281/322/288
f 288/338/302 304/351/313 289/323/289
f 282/324/290 296/350/312 297/352/314
f 289/323/289 305/353/315 290/325/291
f 282/324/290 298/354/316 283/326/292
f 291/327/293 305/353/315 306/355/317
f 284/328/294 298/354/316 299/339/303
f 292/329/295 306/355/317 307/344/306
f 303/349/311 320/356/318 304/351/313
f 297/352/314 312/357/319 313/358/320
f 305/353/315 320/356/318 321/359/321
f 297/352/314 314/360/322 298/354/316
f 306/355/317 321/359/321 322/361/323
f 299/339/303 314/360/322 315/362/324
f 306/355/317 323/363/325 307/344/306
f 300/340/304 315/362/324 316/364/326
f 293/342/305 82/365/24 309/366/327
f 308/367/26 307/344/306 323/363/325
f 300/340/304 317/368/328 301/345/307
f 294/346/308 309/366/327 310/369/329
f 301/345/307 318/370/330 302/347/309
f 294/346/308 311/371/331 295/348/310
f 303/349/311 318/370/330 319/372/332
f 295/348/310 312/357/319 296/350/312
f 309/366/327 82/373/24 324/374/333
f 308/375/26 323/363/325 338/376/334
f 316/364/326 332/377/335 317/368/328
f 309/366/327 325/378/336 310/369/329
f 317/368/328 333/379/337 318/370/330
f 311/371/331 325/378/336 326/380/338
f 319/372/332 333/379/337 334/381/339
f 311/371/331 327/382/340 312/357/319
f 319/372/332 335/383/341 320/356/318
f 312/357/319 328/384/342 313/358/320
f 321/359/321 335/383/341 336/385/343
f 313/358/320 329/386/344 314/360/322
f 321/359/321 337/387/345 322/361/323
f 315/362/324 329/386/344 330/388/346
f 322/361/323 338/376/334 323/363/325
f 316/364/326 330/388/346 331/389/347
f 328/384/342 342/390/348 343/391/349
f 336/385/343 350/392/350 351/393/351
f 328/384/342 344/394/352 329/386/344
f 336/385/343 352/395/353 337/387/345
f 330/388/346 344/394/352 345/396/354
f 337/387/345 353/397/355 338/376/334
f 331/389/347 345/396/354 346/398/356
f 324/374/333 82/399/24 339/400/357
f 308/401/26 338/376/334 353/397/355
f 331/389/347 347/402/358 332/377/335
f 325/378/336 339/400/357 340/403/359
f 332/377/335 348/404/360 333/379/337
f 326/380/338 340/403/359 341/405/361
f 334/381/339 348/404/360 349/406/362
f 326/380/338 342/390/348 327/382/340
f 334/381/339 350/392/350 335/383/341
f 346/398/356 362/407/363 347/402/358
f 339/400/357 355/408/364 340/403/359
f 347/402/358 363/409/365 348/404/360
f 341/405/361 355/408/364 356/410/366
f 349/406/362 363/409/365 364/411/367
f 341/405/361 357/412/368 342/390/348
f 349/406/362 365/413/369 350/392/350
f 343/391/349 357/412/368 358/414/370
f 351/393/351 365/413/369 366/415/371
f 343/391/349 359/416/372 344/394/352
f 351/393/351 367/417/373 352/395/353
f 345/396/354 359/416/372 360/418/374
f 352/395/353 368/419/375 353/397/355
f 346/398/356 360/418/374 361/420/376
f 339/400/357 82/421/24 354/422/377
f 308/423/26 353/397/355 368/419/375
f 366/424/371 380/425/378 381/426/379
f 358/427/370 374/428/380 359/429/372
f 366/424/371 382/430/381 367/431/373
f 360/432/374 374/428/380 375/433/382
f 368/434/375 382/430/381 383/435/383
f 361/436/376 375/433/382 376/437/384
f 354/438/377 82/439/24 369/440/385
f 308/441/26 368/434/375 383/435/383
f 361/436/376 377/442/386 362/443/363
f 354/438/377 370/444/387 355/445/364
f 362/443/363 378/446/388 363/447/365
f 355/445/364 371/448/389 356/449/366
f 364/450/367 378/446/388 379/451/390
f 356/449/366 372/452/391 357/453/368
f 364/450/367 380/425/378 365/454/369
f 358/427/370 372/452/391 373/455/392
f 377/442/386 393/456/393 378/446/388
f 370/444/387 386/457/394 371/448/389
f 379/451/390 393/456/393 394/458/395
f 371/448/389 387/459/396 372/452/391
f 379/451/390 395/460/397 380/425/378
f 373/455/392 387/459/396 388/461/398
f 381/426/379 395/460/397 396/462/399
f 373/455/392 389/463/400 374/428/380
f 381/426/379 397/464/401 382/430/381
f 375/433/382 389/463/400 390/465/402
f 382/430/381 398/466/403 383/435/383
f 376/437/384 390/465/402 391/467/404
f 369/440/385 82/468/24 384/469/405
f 308/470/26 383/435/383 398/466/403
f 376/437/384 392/471/406 377/442/386
f 369/440/385 385/472/407 370/444/387
f 397/464/401 411/473/408 412/474/409
f 390/465/402 404/475/410 405/476/411
f 397/464/401 413/477/412 398/466/403
f 391/467/404 405/476/411 406/478/413
f 384/469/405 82/479/24 399/480/414
f 308/481/26 398/466/403 413/477/412
f 391/467/404 407/482/415 392/471/406
f 385/472/407 399/480/414 400/483/416
f 392/471/406 408/484/417 393/456/393
f 386/457/394 400/483/416 401/485/418
f 394/458/395 408/484/417 409/486/419
f 386/457/394 402/487/420 387/459/396
f 394/458/395 410/488/421 395/460/397
f 388/461/398 402/487/420 403/489/422
f 396/462/399 410/488/421 411/473/408
f 388/461/398 404/475/410 389/463/400
f 401/485/418 415/490/423 416/491/424
f 409/486/419 423/492/425 424/493/426
f 401/485/418 417/494/427 402/487/420
f 409/486/419 425/495/428 410/488/421
f 402/487/420 418/496/429 403/489/422
f 411/473/408 425/495/428 426/497/430
f 403/489/422 419/498/431 404/475/410
f 411/473/408 427/499/432 412/474/409
f 405/476/411 419/498/431 420/500/433
f 412/474/409 428/501/434 413/477/412
f 406/478/413 420/500/433 421/502/435
f 399/480/414 82/503/24 414/504/436
f 308/505/26 413/477/412 428/501/434
f 406/478/413 422/506/437 407/482/415
f 400/483/416 414/504/436 415/490/423
f 407/482/415 423/492/425 408/484/417
f 420/500/433 434/507/438 435/508/439
f 428/501/434 442/509/440 443/510/441
f 421/502/435 435/508/439 436/511/442
f 414/504/436 82/512/24 429/513/443
f 308/514/26 428/501/434 443/510/441
f 421/502/435 437/515/444 422/506/437
f 414/504/436 430/516/445 415/490/423
f 422/506/437 438/517/446 423/492/425
f 416/491/424 430/516/445 431/518/447
f 424/493/426 438/517/446 439/519/448
f 416/491/424 432/520/449 417/494/427
f 424/493/426 440/521/450 425/495/428
f 418/496/429 432/520/449 433/522/451
f 426/497/430 440/521/450 441/523/452
f 418/496/429 434/507/438 419/498/431
f 426/497/430 442/509/440 427/499/432
f 439/519/448 453/524/453 454/525/454
f 431/518/447 447/526/455 432/520/449
f 439/519/448 455/527/456 440/521/450
f 433/522/451 447/526/455 448/528/457
f 441/523/452 455/527/456 456/529/458
f 433/522/451 449/530/459 434/507/438
f 441/523/452 457/531/460 442/509/440
f 435/508/439 449/530/459 450/532/461
f 442/509/440 458/533/462 443/510/441
f 436/511/442 450/532/461 451/534/463
f 429/513/443 82/535/24 444/536/464
f 308/537/26 443/510/441 458/533/462
f 436/511/442 452/538/465 437/515/444
f 430/516/445 444/536/464 445/539/466
f 437/515/444 453/524/453 438/517/446
f 431/518/447 445/539/466 446/540/467
f 457/531/460 473/541/468 458/533/462
f 451/534/463 465/542/469 466/543/470
f 444/536/464 82/544/24 459/545/471
f 308/546/26 458/533/462 473/541/468
f 451/534/463 467/547/472 452/538/465
f 444/536/464 460/548/473 445/539/466
f 452/538/465 468/549/474 453/524/453
f 445/539/466 461/550/475 446/540/467
f 454/525/454 468/549/474 469/551/476
f 446/540/467 462/552/477 447/526/455
f 454/525/454 470/553/478 455/527/456
f 448/528/457 462/552/477 463/554/479
f 456/529/458 470/553/478 471/555/480
f 448/528/457 464/556/481 449/530/459
f 456/529/458 472/557/482 457/531/460
f 450/532/461 464/556/481 465/542/469
f 462/552/477 1/32/32 476/4/4
f 469/551/476 479/7/7 470/553/478
f 463/554/479 476/4/4 2/10/10
f 471/555/480 479/7/7 480/12/12
f 464/556/481 2/10/10 477/13/13
f 472/557/482 480/12/12 481/16/16
f 465/542/469 477/13/13 3/18/18
f 473/541/468 481/16/16 482/20/20
f 466/543/470 3/18/18 4/22/22
f 459/545/471 82/558/24 474/23/23
f 308/559/26 473/541/468 482/20/20
f 466/543/470 5/28/28 467/547/472
f 460/548/473 474/23/23 475/29/29
f 467/547/472 478/1/1 468/549/474
f 461/550/475 475/29/29 1/32/32
f 468/549/474 6/3/3 469/551/476
f 478/1/1 16/31/31 17/2/2
f 476/4/4 1/32/32 9/5/5
f 479/7/7 6/3/3 17/2/2
f 476/4/4 10/6/6 11/9/9
f 479/7/7 18/8/8 19/11/11
f 477/13/13 2/10/10 11/9/9
f 480/12/12 19/11/11 20/15/15
f 477/13/13 12/14/14 13/17/17
f 481/16/16 20/15/15 21/19/19
f 3/18/18 13/17/17 14/21/21
f 4/22/22 14/21/21 15/27/27
f 475/29/29 474/23/23 7/25/25
f 5/28/28 15/27/27 16/31/31
f 1/32/32 475/29/29 8/30/30
f 15/27/27 30/48/46 31/33/33
f 8/30/30 23/49/47 24/34/34
f 17/2/2 16/31/31 31/33/33
f 9/5/5 24/34/34 25/36/36
f 18/8/8 17/2/2 32/35/35
f 10/6/6 25/36/36 26/38/38
f 19/11/11 18/8/8 33/37/37
f 11/9/9 26/38/38 27/40/40
f 20/15/15 19/11/11 34/39/39
f 12/14/14 27/40/40 28/42/42
f 20/15/15 35/41/41 36/43/43
f 13/17/17 28/42/42 29/44/44
f 14/21/21 29/44/44 30/48/46
f 7/25/25 22/46/45 23/49/47
f 34/39/39 49/65/61 50/50/48
f 27/40/40 42/66/62 43/51/49
f 35/41/41 50/50/48 51/52/50
f 29/44/44 28/42/42 43/51/49
f 29/44/44 44/53/51 45/57/53
f 23/49/47 22/46/45 37/55/52
f 30/48/46 45/57/53 46/59/55
f 23/49/47 38/58/54 39/60/56
f 32/35/35 31/33/33 46/59/55
f 24/34/34 39/60/56 40/62/58
f 32/35/35 47/61/57 48/63/59
f 25/36/36 40/62/58 41/64/60
f 33/37/37 48/63/59 49/65/61
f 26/38/38 41/64/60 42/66/62
f 38/58/54 53/83/77 54/67/63
f 47/61/57 46/59/55 61/68/64
f 39/60/56 54/67/63 55/70/66
f 47/61/57 62/69/65 63/71/67
f 40/62/58 55/70/66 56/72/68
f 49/65/61 48/63/59 63/71/67
f 41/64/60 56/72/68 57/74/70
f 50/50/48 49/65/61 64/73/69
f 43/51/49 42/66/62 57/74/70
f 50/50/48 65/75/71 66/77/73
f 44/53/51 43/51/49 58/76/72
f 44/53/51 59/78/74 60/82/76
f 37/55/52 52/80/75 53/83/77
f 45/57/53 60/82/76 61/68/64
f 57/74/70 72/100/92 73/84/78
f 66/77/73 65/75/71 80/85/79
f 59/78/74 58/76/72 73/84/78
f 59/78/74 74/87/81 75/91/83
f 52/80/75 67/89/82 68/92/84
f 60/82/76 75/91/83 76/93/85
f 54/67/63 53/83/77 68/92/84
f 62/69/65 61/68/64 76/93/85
f 54/67/63 69/94/86 70/96/88
f 62/69/65 77/95/87 78/97/89
f 55/70/66 70/96/88 71/98/90
f 64/73/69 63/71/67 78/97/89
f 56/72/68 71/98/90 72/100/92
f 64/73/69 79/99/91 80/85/79
f 77/95/87 76/93/85 92/101/93
f 69/94/86 85/117/107 86/103/95
f 77/95/87 93/102/94 94/104/96
f 71/98/90 70/96/88 86/103/95
f 79/99/91 78/97/89 94/104/96
f 71/98/90 87/105/97 88/107/99
f 80/85/79 79/99/91 95/106/98
f 73/84/78 72/100/92 88/107/99
f 80/85/79 96/108/100 97/110/102
f 74/87/81 73/84/78 89/109/101
f 74/87/81 90/111/103 91/115/105
f 68/92/84 67/89/82 83/113/104
f 75/91/83 91/115/105 92/101/93
f 68/92/84 84/116/106 85/117/107
f 96/108/100 111/134/122 112/118/108
f 90/111/103 89/109/101 104/119/109
f 90/111/103 105/120/110 106/124/112
f 83/113/104 98/122/111 99/125/113
f 91/115/105 106/124/112 107/126/114
f 85/117/107 84/116/106 99/125/113
f 93/102/94 92/101/93 107/126/114
f 86/103/95 85/117/107 100/127/115
f 93/102/94 108/128/116 109/130/118
f 87/105/97 86/103/95 101/129/117
f 95/106/98 94/104/96 109/130/118
f 87/105/97 102/131/119 103/133/121
f 95/106/98 110/132/120 111/134/122
f 89/109/101 88/107/99 103/133/121
f 108/128/116 123/151/137 124/135/123
f 102/131/119 101/129/117 116/136/124
f 110/132/120 109/130/118 124/135/123
f 102/131/119 117/137/125 118/139/127
f 111/134/122 110/132/120 125/138/126
f 104/119/109 103/133/121 118/139/127
f 111/134/122 126/140/128 127/142/130
f 105/120/110 104/119/109 119/141/129
f 105/120/110 120/143/131 121/147/133
f 98/122/111 113/145/132 114/148/134
f 106/124/112 121/147/133 122/149/135
f 99/125/113 114/148/134 115/150/136
f 108/128/116 107/126/114 122/149/135
f 100/127/115 115/150/136 116/136/124
f 120/143/131 135/168/152 136/156/140
f 113/145/132 128/153/138 129/157/141
f 121/147/133 136/156/140 137/158/142
f 115/150/136 114/148/134 129/157/141
f 123/151/137 122/149/135 137/158/142
f 115/150/136 130/159/143 131/161/145
f 123/151/137 138/160/144 139/162/146
f 117/137/125 116/136/124 131/161/145
f 124/135/123 139/162/146 140/164/148
f 117/137/125 132/163/147 133/165/149
f 126/140/128 125/138/126 140/164/148
f 119/141/129 118/139/127 133/165/149
f 127/142/130 126/140/128 141/166/150
f 120/143/131 119/141/129 134/167/151
f 132/163/147 131/161/145 146/169/153
f 140/164/148 139/162/146 154/171/155
f 132/163/147 147/170/154 148/173/157
f 140/164/148 155/172/156 156/174/158
f 134/167/151 133/165/149 148/173/157
f 141/166/150 156/174/158 157/176/160
f 135/168/152 134/167/151 149/175/159
f 135/168/152 150/177/161 151/181/163
f 128/153/138 143/179/162 144/182/164
f 136/156/140 151/181/163 152/183/165
f 129/157/141 144/182/164 145/184/166
f 138/160/144 137/158/142 152/183/165
f 130/159/143 145/184/166 146/169/153
f 138/160/144 153/185/167 154/171/155
f 151/181/163 150/177/161 165/186/168
f 143/179/162 158/201/182 159/188/170
f 151/181/163 166/187/169 167/189/171
f 145/184/166 144/182/164 159/188/170
f 153/185/167 152/183/165 167/189/171
f 145/184/166 160/190/172 161/192/174
f 153/185/167 168/191/173 169/193/175
f 147/170/154 146/169/153 161/192/174
f 154/171/155 169/193/175 170/195/177
f 147/170/154 162/194/176 163/196/178
f 155/172/156 170/195/177 171/197/179
f 149/175/159 148/173/157 163/196/178
f 156/174/158 171/197/179 172/199/181
f 149/175/159 164/198/180 165/186/168
f 169/193/175 184/218/196 185/203/183
f 162/194/176 177/219/197 178/204/184
f 170/195/177 185/203/183 186/205/185
f 164/198/180 163/196/178 178/204/184
f 172/199/181 171/197/179 186/205/185
f 165/186/168 164/198/180 179/206/186
f 165/186/168 180/208/188 181/212/190
f 158/201/182 173/210/189 174/213/191
f 166/187/169 181/212/190 182/214/192
f 159/188/170 174/213/191 175/215/193
f 168/191/173 167/189/171 182/214/192
f 160/190/172 175/215/193 176/217/195
f 168/191/173 183/216/194 184/218/196
f 162/194/176 161/192/174 176/217/195
f 174/213/191 173/210/189 188/220/198
f 181/212/190 196/236/212 197/222/200
f 175/215/193 174/213/191 189/221/199
f 182/214/192 197/222/200 198/224/202
f 175/215/193 190/223/201 191/225/203
f 183/216/194 198/224/202 199/226/204
f 177/219/197 176/217/195 191/225/203
f 184/218/196 199/226/204 200/228/206
f 177/219/197 192/227/205 193/229/207
f 185/203/183 200/228/206 201/230/208
f 179/206/186 178/204/184 193/229/207
f 186/205/185 201/230/208 202/232/210
f 180/208/188 179/206/186 194/231/209
f 180/208/188 195/233/211 196/236/212
f 192/227/205 207/253/227 208/237/213
f 201/230/208 200/228/206 215/238/214
f 194/231/209 193/229/207 208/237/213
f 202/232/210 201/230/208 216/239/215
f 195/233/211 194/231/209 209/240/216
f 195/233/211 210/242/218 211/246/220
f 189/221/199 188/220/198 203/244/219
f 196/236/212 211/246/220 212/248/222
f 190/223/201 189/221/199 204/247/221
f 198/224/202 197/222/200 212/248/222
f 190/223/201 205/249/223 206/251/225
f 198/224/202 213/250/224 214/252/226
f 192/227/205 191/225/203 206/251/225
f 200/228/206 199/226/204 214/252/226
f 211/246/220 226/269/241 227/254/228
f 204/247/221 219/270/242 220/255/229
f 213/250/224 212/248/222 227/254/228
f 205/249/223 220/255/229 221/257/231
f 213/250/224 228/256/230 229/258/232
f 207/253/227 206/251/225 221/257/231
f 214/252/226 229/258/232 230/260/234
f 207/253/227 222/259/233 223/261/235
f 215/238/214 230/260/234 231/262/236
f 209/240/216 208/237/213 223/261/235
f 216/239/215 231/262/236 232/264/238
f 210/242/218 209/240/216 224/263/237
f 210/242/218 225/265/239 226/269/241
f 203/244/219 218/267/240 219/270/242
f 230/260/234 245/287/257 246/271/243
f 224/263/237 223/261/235 238/272/244
f 232/264/238 231/262/236 246/271/243
f 225/265/239 224/263/237 239/273/245
f 225/265/239 240/275/247 241/279/249
f 219/270/242 218/267/240 233/277/248
f 226/269/241 241/279/249 242/281/251
f 220/255/229 219/270/242 234/280/250
f 228/256/230 227/254/228 242/281/251
f 220/255/229 235/282/252 236/284/254
f 228/256/230 243/283/253 244/285/255
f 222/259/233 221/257/231 236/284/254
f 230/260/234 229/258/232 244/285/255
f 222/259/233 237/286/256 238/272/244
f 243/283/253 242/281/251 257/288/258
f 235/282/252 250/304/272 251/290/260
f 243/283/253 258/289/259 259/291/261
f 237/286/256 236/284/254 251/290/260
f 244/285/255 259/291/261 260/293/263
f 237/286/256 252/292/262 253/294/264
f 246/271/243 245/287/257 260/293/263
f 239/273/245 238/272/244 253/294/264
f 246/271/243 261/295/265 262/297/267
f 240/275/247 239/273/245 254/296/266
f 240/275/247 255/298/268 256/302/270
f 234/280/250 233/277/248 248/300/269
f 241/279/249 256/302/270 257/288/258
f 235/282/252 234/280/250 249/303/271
f 261/295/265 276/321/287 277/305/273
f 255/298/268 254/296/266 269/306/274
f 255/298/268 270/307/275 271/311/277
f 249/303/271 248/300/269 263/309/276
f 256/302/270 271/311/277 272/313/279
f 249/303/271 264/312/278 265/314/280
f 258/289/259 257/288/258 272/313/279
f 250/304/272 265/314/280 266/316/282
f 258/289/259 273/315/281 274/317/283
f 251/290/260 266/316/282 267/318/284
f 260/293/263 259/291/261 274/317/283
f 252/292/262 267/318/284 268/320/286
f 260/293/263 275/319/285 276/321/287
f 254/296/266 253/294/264 268/320/286
f 265/314/280 280/337/301 281/322/288
f 273/315/281 288/338/302 289/323/289
f 267/318/284 266/316/282 281/322/288
f 275/319/285 274/317/283 289/323/289
f 267/318/284 282/324/290 283/326/292
f 276/321/287 275/319/285 290/325/291
f 269/306/274 268/320/286 283/326/292
f 277/305/273 276/321/287 291/327/293
f 270/307/275 269/306/274 284/328/294
f 270/307/275 285/330/296 286/334/298
f 264/312/278 263/309/276 278/332/297
f 271/311/277 286/334/298 287/336/300
f 264/312/278 279/335/299 280/337/301
f 273/315/281 272/313/279 287/336/300
f 285/330/296 284/328/294 299/339/303
f 285/330/296 300/340/304 301/345/307
f 279/335/299 278/332/297 293/342/305
f 286/334/298 301/345/307 302/347/309
f 280/337/301 279/335/299 294/346/308
f 288/338/302 287/336/300 302/347/309
f 280/337/301 295/348/310 296/350/312
f 288/338/302 303/349/311 304/351/313
f 282/324/290 281/322/288 296/350/312
f 289/323/289 304/351/313 305/353/315
f 282/324/290 297/352/314 298/354/316
f 291/327/293 290/325/291 305/353/315
f 284/328/294 283/326/292 298/354/316
f 292/329/295 291/327/293 306/355/317
f 303/349/311 319/372/332 320/356/318
f 297/352/314 296/350/312 312/357/319
f 305/353/315 304/351/313 320/356/318
f 297/352/314 313/358/320 314/360/322
f 306/355/317 305/353/315 321/359/321
f 299/339/303 298/354/316 314/360/322
f 306/355/317 322/361/323 323/363/325
f 300/340/304 299/339/303 315/362/324
f 300/340/304 316/364/326 317/368/328
f 294/346/308 293/342/305 309/366/327
f 301/345/307 317/368/328 318/370/330
f 294/346/308 310/369/329 311/371/331
f 303/349/311 302/347/309 318/370/330
f 295/348/310 311/371/331 312/357/319
f 316/364/326 331/389/347 332/377/335
f 309/366/327 324/374/333 325/378/336
f 317/368/328 332/377/335 333/379/337
f 311/371/331 310/369/329 325/378/336
f 319/372/332 318/370/330 333/379/337
f 311/371/331 326/380/338 327/382/340
f 319/372/332 334/381/339 335/383/341
f 312/357/319 327/382/340 328/384/342
f 321/359/321 320/356/318 335/383/341
f 313/358/320 328/384/342 329/386/344
f 321/359/321 336/385/343 337/387/345
f 315/362/324 314/360/322 329/386/344
f 322/361/323 337/387/345 338/376/334
f 316/364/326 315/362/324 330/388/346
f 328/384/342 327/382/340 342/390/348
f 336/385/343 335/383/341 350/392/350
f 328/384/342 343/391/349 344/394/352
f 336/385/343 351/393/351 352/395/353
f 330/388/346 329/386/344 344/394/352
f 337/387/345 352/395/353 353/397/355
f 331/389/347 330/388/346 345/396/354
f 331/389/347 346/398/356 347/402/358
f 325/378/336 324/374/333 339/400/357
f 332/377/335 347/402/358 348/404/360
f 326/380/338 325/378/336 340/403/359
f 334/381/339 333/379/337 348/404/360
f 326/380/338 341/405/361 342/390/348
f 334/381/339 349/406/362 350/392/350
f 346/398/356 361/420/376 362/407/363
f 339/400/357 354/422/377 355/408/364
f 347/402/358 362/407/363 363/409/365
f 341/405/361 340/403/359 355/408/364
f 349/406/362 348/404/360 363/409/365
f 341/405/361 356/410/366 357/412/368
f 349/406/362 364/411/367 365/413/369
f 343/391/349 342/390/348 357/412/368
f 351/393/351 350/392/350 365/413/369
f 343/391/349 358/414/370 359/416/372
f 351/393/351 366/415/371 367/417/373
f 345/396/354 344/394/352 359/416/372
f 352/395/353 367/417/373 368/419/375
f 346/398/356 345/396/354 360/418/374
f 366/424/371 365/454/369 380/425/378
f 358/427/370 373/455/392 374/428/380
f 366/424/371 381/426/379 382/430/381
f 360/432/374 359/429/372 374/428/380
f 368/434/375 367/431/373 382/430/381
f 361/436/376 360/432/374 375/433/382
f 361/436/376 376/437/384 377/442/386
f 354/438/377 369/440/385 370/444/387
f 362/443/363 377/442/386 378/446/388
f 355/445/364 370/444/387 371/448/389
f 364/450/367 363/447/365 378/446/388
f 356/449/366 371/448/389 372/452/391
f 364/450/367 379/451/390 380/425/378
f 358/427/370 357/453/368 372/452/391
f 377/442/386 392/471/406 393/456/393
f 370/444/387 385/472/407 386/457/394
f 379/451/390 378/446/388 393/456/393
f 371/448/389 386/457/394 387/459/396
f 379/451/390 394/458/395 395/460/397
f 373/455/392 372/452/391 387/459/396
f 381/426/379 380/425/378 395/460/397
f 373/455/392 388/461/398 389/463/400
f 381/426/379 396/462/399 397/464/401
f 375/433/382 374/428/380 389/463/400
f 382/430/381 397/464/401 398/466/403
f 376/437/384 375/433/382 390/465/402
f 376/437/384 391/467/404 392/471/406
f 369/440/385 384/469/405 385/472/407
f 397/464/401 396/462/399 411/473/408
f 390/465/402 389/463/400 404/475/410
f 397/464/401 412/474/409 413/477/412
f 391/467/404 390/465/402 405/476/411
f 391/467/404 406/478/413 407/482/415
f 385/472/407 384/469/405 399/480/414
f 392/471/406 407/482/415 408/484/417
f 386/457/394 385/472/407 400/483/416
f 394/458/395 393/456/393 408/484/417
f 386/457/394 401/485/418 402/487/420
f 394/458/395 409/486/419 410/488/421
f 388/461/398 387/459/396 402/487/420
f 396/462/399 395/460/397 410/488/421
f 388/461/398 403/489/422 404/475/410
f 401/485/418 400/483/416 415/490/423
f 409/486/419 408/484/417 423/492/425
f 401/485/418 416/491/424 417/494/427
f 409/486/419 424/493/426 425/495/428
f 402/487/420 417/494/427 418/496/429
f 411/473/408 410/488/421 425/495/428
f 403/489/422 418/496/429 419/498/431
f 411/473/408 426/497/430 427/499/432
f 405/476/411 404/475/410 419/498/431
f 412/474/409 427/499/432 428/501/434
f 406/478/413 405/476/411 420/500/433
f 406/478/413 421/502/435 422/506/437
f 400/483/416 399/480/414 414/504/436
f 407/482/415 422/506/437 423/492/425
f 420/500/433 419/498/431 434/507/438
f 428/501/434 427/499/432 442/509/440
f 421/502/435 420/500/433 435/508/439
f 421/502/435 436/511/442 437/515/444
f 414/504/436 429/513/443 430/516/445
f 422/506/437 437/515/444 438/517/446
f 416/491/424 415/490/423 430/516/445
f 424/493/426 423/492/425 438/517/446
f 416/491/424 431/518/447 432/520/449
f 424/493/426 439/519/448 440/521/450
f 418/496/429 417/494/427 432/520/449
f 426/497/430 425/495/428 440/521/450
f 418/496/429 433/522/451 434/507/438
f 426/497/430 441/523/452 442/509/440
f 439/519/448 438/517/446 453/524/453
f 431/518/447 446/540/467 447/526/455
f 439/519/448 454/525/454 455/527/456
f 433/522/451 432/520/449 447/526/455
f 441/523/452 440/521/450 455/527/456
f 433/522/451 448/528/457 449/530/459
f 441/523/452 456/529/458 457/531/460
f 435/508/439 434/507/438 449/530/459
f 442/509/440 457/531/460 458/533/462
f 436/511/442 435/508/439 450/532/461
f 436/511/442 451/534/463 452/538/465
f 430/516/445 429/513/443 444/536/464
f 437/515/444 452/538/465 453/524/453
f 431/518/447 430/516/445 445/539/466
f 457/531/460 472/557/482 473/541/468
f 451/534/463 450/532/461 465/542/469
f 451/534/463 466/543/470 467/547/472
f 444/536/464 459/545/471 460/548/473
f 452/538/465 467/547/472 468/549/474
f 445/539/466 460/548/473 461/550/475
f 454/525/454 453/524/453 468/549/474
f 446/540/467 461/550/475 462/552/477
f 454/525/454 469/551/476 470/553/478
f 448/528/457 447/526/455 462/552/477
f 456/529/458 455/527/456 470/553/478
f 448/528/457 463/554/479 464/556/481
f 456/529/458 471/555/480 472/557/482
f 450/532/461 449/530/459 464/556/481
f 462/552/477 461/550/475 1/32/32
f 469/551/476 6/3/3 479/7/7
f 463/554/479 462/552/477 476/4/4
f 471/555/480 470/553/478 479/7/7
f 464/556/481 463/554/479 2/10/10
f 472/557/482 471/555/480 480/12/12
f 465/542/469 464/556/481 477/13/13
f 473/541/468 472/557/482 481/16/16
f 466/543/470 465/542/469 3/18/18
f 466/543/470 4/22/22 5/28/28
f 460/548/473 459/545/471 474/23/23
f 467/547/472 5/28/28 478/1/1
f 461/550/475 460/548/473 475/29/29
f 468/549/474 478/1/1 6/3/3
